<?xml version="1.0" ?><svg contentScriptType="text/ecmascript" contentStyleType="text/css" enable-background="new 0 0 2048 2048" height="2048px" id="Layer_1" preserveAspectRatio="xMidYMid meet" version="1.1" viewBox="0.0 0 1536.0 2048" width="1536.0px" xml:space="preserve" xmlns="http://www.w3.org/2000/svg" xmlns:xlink="http://www.w3.org/1999/xlink" zoomAndPan="magnify"><path d="M1120,1056c0,8-3.333,16-10,24l-319,319c-7.333,6-15,9-23,9s-15.667-3-23-9l-320-320c-10-10.667-12.333-22.333-7-35  c5.333-13.333,15.333-20,30-20h192V672c0-9.333,3-17,9-23s13.667-9,23-9h192c9.333,0,17,3,23,9s9,13.667,9,23v352h192  c9.333,0,17,3,23,9S1120,1046.667,1120,1056z M768,480c-98.667,0-189.667,24.333-273,73S345.667,667.667,297,751s-73,174.333-73,273  s24.333,189.667,73,273s114.667,149.333,198,198s174.333,73,273,73s189.667-24.333,273-73s149.333-114.667,198-198  s73-174.333,73-273s-24.333-189.667-73-273s-114.667-149.333-198-198S866.667,480,768,480z M1536,1024  c0,139.333-34.333,267.833-103,385.5s-161.833,210.833-279.5,279.5S907.333,1792,768,1792s-267.833-34.333-385.5-103  S171.667,1527.167,103,1409.5S0,1163.333,0,1024s34.333-267.833,103-385.5S264.833,427.667,382.5,359S628.667,256,768,256  s267.833,34.333,385.5,103s210.833,161.833,279.5,279.5S1536,884.667,1536,1024z"/></svg>