<?xml version="1.0" ?><svg contentScriptType="text/ecmascript" contentStyleType="text/css" enable-background="new 0 0 2048 2048" height="2048px" id="Layer_1" preserveAspectRatio="xMidYMid meet" version="1.1" viewBox="93.0 0 1606.0 2048" width="1606.0px" xml:space="preserve" xmlns="http://www.w3.org/2000/svg" xmlns:xlink="http://www.w3.org/1999/xlink" zoomAndPan="magnify"><path d="M1699,314c0,23.333-14.333,49.333-43,78l-632,632v768h320c17.333,0,32.333,6.333,45,19s19,27.667,19,45s-6.333,32.333-19,45  s-27.667,19-45,19H448c-17.333,0-32.333-6.333-45-19s-19-27.667-19-45s6.333-32.333,19-45s27.667-19,45-19h320v-768L136,392  c-28.667-28.667-43-54.667-43-78c0-15.333,6-27.5,18-36.5s24.667-14.833,38-17.5s27.667-4,43-4h1408c15.333,0,29.667,1.333,43,4  s26,8.5,38,17.5S1699,298.667,1699,314z"/></svg>