<?xml version="1.0" ?><svg contentScriptType="text/ecmascript" contentStyleType="text/css" enable-background="new 0 0 2048 2048" height="2048px" id="Layer_1" preserveAspectRatio="xMidYMid meet" version="1.1" viewBox="0.0 0 1664.0 2048" width="1664.0px" xml:space="preserve" xmlns="http://www.w3.org/2000/svg" xmlns:xlink="http://www.w3.org/1999/xlink" zoomAndPan="magnify"><path d="M768,1152v384c0,34.667-12.667,64.667-38,90s-55.333,38-90,38H128c-34.667,0-64.667-12.667-90-38s-38-55.333-38-90v-384  c0-34.667,12.667-64.667,38-90s55.333-38,90-38h512c34.667,0,64.667,12.667,90,38S768,1117.333,768,1152z M768,384v384  c0,34.667-12.667,64.667-38,90s-55.333,38-90,38H128c-34.667,0-64.667-12.667-90-38S0,802.667,0,768V384  c0-34.667,12.667-64.667,38-90s55.333-38,90-38h512c34.667,0,64.667,12.667,90,38S768,349.333,768,384z M1664,1152v384  c0,34.667-12.667,64.667-38,90s-55.333,38-90,38h-512c-34.667,0-64.667-12.667-90-38s-38-55.333-38-90v-384  c0-34.667,12.667-64.667,38-90s55.333-38,90-38h512c34.667,0,64.667,12.667,90,38S1664,1117.333,1664,1152z M1664,384v384  c0,34.667-12.667,64.667-38,90s-55.333,38-90,38h-512c-34.667,0-64.667-12.667-90-38s-38-55.333-38-90V384  c0-34.667,12.667-64.667,38-90s55.333-38,90-38h512c34.667,0,64.667,12.667,90,38S1664,349.333,1664,384z"/></svg>