<?xml version="1.0" ?><svg contentScriptType="text/ecmascript" contentStyleType="text/css" enable-background="new 0 0 2048 2048" height="2048px" id="Layer_1" preserveAspectRatio="xMidYMid meet" version="1.1" viewBox="0.0 0 1920.0 2048" width="1920.0px" xml:space="preserve" xmlns="http://www.w3.org/2000/svg" xmlns:xlink="http://www.w3.org/1999/xlink" zoomAndPan="magnify"><path d="M384,1728v-128c0-17.333-6.333-32.333-19-45s-27.667-19-45-19H192c-17.333,0-32.333,6.333-45,19s-19,27.667-19,45v128  c0,17.333,6.333,32.333,19,45s27.667,19,45,19h128c17.333,0,32.333-6.333,45-19S384,1745.333,384,1728z M384,1344v-128  c0-17.333-6.333-32.333-19-45s-27.667-19-45-19H192c-17.333,0-32.333,6.333-45,19s-19,27.667-19,45v128c0,17.333,6.333,32.333,19,45  s27.667,19,45,19h128c17.333,0,32.333-6.333,45-19S384,1361.333,384,1344z M384,960V832c0-17.333-6.333-32.333-19-45  s-27.667-19-45-19H192c-17.333,0-32.333,6.333-45,19s-19,27.667-19,45v128c0,17.333,6.333,32.333,19,45s27.667,19,45,19h128  c17.333,0,32.333-6.333,45-19S384,977.333,384,960z M1408,1728v-512c0-17.333-6.333-32.333-19-45s-27.667-19-45-19H576  c-17.333,0-32.333,6.333-45,19s-19,27.667-19,45v512c0,17.333,6.333,32.333,19,45s27.667,19,45,19h768c17.333,0,32.333-6.333,45-19  S1408,1745.333,1408,1728z M384,576V448c0-17.333-6.333-32.333-19-45s-27.667-19-45-19H192c-17.333,0-32.333,6.333-45,19  s-19,27.667-19,45v128c0,17.333,6.333,32.333,19,45s27.667,19,45,19h128c17.333,0,32.333-6.333,45-19S384,593.333,384,576z   M1792,1728v-128c0-17.333-6.333-32.333-19-45s-27.667-19-45-19h-128c-17.333,0-32.333,6.333-45,19s-19,27.667-19,45v128  c0,17.333,6.333,32.333,19,45s27.667,19,45,19h128c17.333,0,32.333-6.333,45-19S1792,1745.333,1792,1728z M1408,960V448  c0-17.333-6.333-32.333-19-45s-27.667-19-45-19H576c-17.333,0-32.333,6.333-45,19s-19,27.667-19,45v512c0,17.333,6.333,32.333,19,45  s27.667,19,45,19h768c17.333,0,32.333-6.333,45-19S1408,977.333,1408,960z M1792,1344v-128c0-17.333-6.333-32.333-19-45  s-27.667-19-45-19h-128c-17.333,0-32.333,6.333-45,19s-19,27.667-19,45v128c0,17.333,6.333,32.333,19,45s27.667,19,45,19h128  c17.333,0,32.333-6.333,45-19S1792,1361.333,1792,1344z M1792,960V832c0-17.333-6.333-32.333-19-45s-27.667-19-45-19h-128  c-17.333,0-32.333,6.333-45,19s-19,27.667-19,45v128c0,17.333,6.333,32.333,19,45s27.667,19,45,19h128c17.333,0,32.333-6.333,45-19  S1792,977.333,1792,960z M1792,576V448c0-17.333-6.333-32.333-19-45s-27.667-19-45-19h-128c-17.333,0-32.333,6.333-45,19  s-19,27.667-19,45v128c0,17.333,6.333,32.333,19,45s27.667,19,45,19h128c17.333,0,32.333-6.333,45-19S1792,593.333,1792,576z   M1920,416v1344c0,44-15.667,81.667-47,113s-69,47-113,47H160c-44,0-81.667-15.667-113-47s-47-69-47-113V416  c0-44,15.667-81.667,47-113s69-47,113-47h1600c44,0,81.667,15.667,113,47S1920,372,1920,416z"/></svg>