<?xml version="1.0" ?><svg contentScriptType="text/ecmascript" contentStyleType="text/css" enable-background="new 0 0 2048 2048" height="2048px" id="Layer_1" preserveAspectRatio="xMidYMid meet" version="1.1" viewBox="0.0 0 1664.0 2048" width="1664.0px" xml:space="preserve" xmlns="http://www.w3.org/2000/svg" xmlns:xlink="http://www.w3.org/1999/xlink" zoomAndPan="magnify"><path d="M768,480v1088c0,17.333-6.333,32.333-19,45s-27.667,19-45,19s-32.333-6.333-45-19l-333-333H64c-17.333,0-32.333-6.333-45-19  s-19-27.667-19-45V832c0-17.333,6.333-32.333,19-45s27.667-19,45-19h262l333-333c12.667-12.667,27.667-19,45-19s32.333,6.333,45,19  S768,462.667,768,480z M1152,1024c0,50.667-14.167,97.833-42.5,141.5c-28.333,43.667-65.833,74.833-112.5,93.5  c-6.667,3.333-15,5-25,5c-17.333,0-32.333-6.167-45-18.5s-19-27.5-19-45.5c0-14,4-25.833,12-35.5s17.667-18,29-25  s22.667-14.667,34-23s21-20.167,29-35.5s12-34.333,12-57c0-22.667-4-41.667-12-57s-17.667-27.167-29-35.5s-22.667-16-34-23  s-21-15.333-29-25S908,862,908,848c0-18,6.333-33.167,19-45.5s27.667-18.5,45-18.5c10,0,18.333,1.667,25,5  c46.667,18,84.167,49,112.5,93S1152,973.333,1152,1024z M1408,1024c0,102-28.333,196.167-85,282.5s-131.667,149.167-225,188.5  c-8.667,3.333-17,5-25,5c-18,0-33.333-6.333-46-19c-12.667-12.667-19-27.667-19-45c0-26,13-45.667,39-59  c37.333-19.333,62.667-34,76-44c49.333-36,87.833-81.167,115.5-135.5c27.667-54.333,41.5-112.167,41.5-173.5  s-13.833-119.167-41.5-173.5S1172.333,751,1123,715c-13.333-10-38.667-24.667-76-44c-26-13.333-39-33-39-59  c0-17.333,6.333-32.333,19-45c12.667-12.667,27.667-19,45-19c8.667,0,17.333,1.667,26,5c93.333,39.333,168.333,102.167,225,188.5  S1408,922,1408,1024z M1664,1024c0,153.333-42.333,294.167-127,422.5s-197.333,222.833-338,283.5c-8.667,3.333-17.333,5-26,5  c-17.333,0-32.333-6.333-45-19s-19-27.667-19-45c0-24,13-43.667,39-59c4.667-2.667,12.167-6.167,22.5-10.5s17.833-7.833,22.5-10.5  c30.667-16.667,58-33.667,82-51c82-60.667,146-136.333,192-227s69-187,69-289s-23-198.333-69-289s-110-166.333-192-227  c-24-17.333-51.333-34.333-82-51c-4.667-2.667-12.167-6.167-22.5-10.5s-17.833-7.833-22.5-10.5c-26-15.333-39-35-39-59  c0-17.333,6.333-32.333,19-45s27.667-19,45-19c8.667,0,17.333,1.667,26,5c140.667,60.667,253.333,155.167,338,283.5  S1664,870.667,1664,1024z"/></svg>