<?xml version="1.0" ?><svg contentScriptType="text/ecmascript" contentStyleType="text/css" enable-background="new 0 0 2048 2048" height="2048px" id="Layer_1" preserveAspectRatio="xMidYMid meet" version="1.1" viewBox="0.0 0 1152.0 2048" width="1152.0px" xml:space="preserve" xmlns="http://www.w3.org/2000/svg" xmlns:xlink="http://www.w3.org/1999/xlink" zoomAndPan="magnify"><path d="M768,480v1088c0,17.333-6.333,32.333-19,45s-27.667,19-45,19s-32.333-6.333-45-19l-333-333H64c-17.333,0-32.333-6.333-45-19  s-19-27.667-19-45V832c0-17.333,6.333-32.333,19-45s27.667-19,45-19h262l333-333c12.667-12.667,27.667-19,45-19s32.333,6.333,45,19  S768,462.667,768,480z M1152,1024c0,50.667-14.167,97.833-42.5,141.5c-28.333,43.667-65.833,74.833-112.5,93.5  c-6.667,3.333-15,5-25,5c-17.333,0-32.333-6.167-45-18.5s-19-27.5-19-45.5c0-14,4-25.833,12-35.5s17.667-18,29-25  s22.667-14.667,34-23s21-20.167,29-35.5s12-34.333,12-57c0-22.667-4-41.667-12-57s-17.667-27.167-29-35.5s-22.667-16-34-23  s-21-15.333-29-25S908,862,908,848c0-18,6.333-33.167,19-45.5s27.667-18.5,45-18.5c10,0,18.333,1.667,25,5  c46.667,18,84.167,49,112.5,93S1152,973.333,1152,1024z"/></svg>