<?xml version="1.0" ?><svg contentScriptType="text/ecmascript" contentStyleType="text/css" enable-background="new 0 0 2048 2048" height="2048px" id="Layer_1" preserveAspectRatio="xMidYMid meet" version="1.1" viewBox="50.0 0 1820.0 2048" width="1820.0px" xml:space="preserve" xmlns="http://www.w3.org/2000/svg" xmlns:xlink="http://www.w3.org/1999/xlink" zoomAndPan="magnify"><path d="M1111,1124v-4l-24-320c-0.667-8.667-4.333-16.167-11-22.5s-14.333-9.5-23-9.5H867c-8.667,0-16.333,3.167-23,9.5  s-10.333,13.833-11,22.5l-24,320v4c-0.667,8,2,14.667,8,20s13,8,21,8h244c8,0,15-2.667,21-8S1111.667,1132,1111,1124z M1870,1591  c0,48.667-15.333,73-46,73h-704c8.667,0,16-3.167,22-9.5s8.667-13.833,8-22.5l-20-256c-0.667-8.667-4.333-16.167-11-22.5  s-14.333-9.5-23-9.5H824c-8.667,0-16.333,3.167-23,9.5s-10.333,13.833-11,22.5l-20,256c-0.667,8.667,2,16.167,8,22.5  s13.333,9.5,22,9.5H96c-30.667,0-46-24.333-46-73c0-36,8.667-74.667,26-116L493,431c5.333-12.667,14-23.667,26-33s24.667-14,38-14  h339c-8.667,0-16.333,3.167-23,9.5s-10.333,13.833-11,22.5l-15,192c-0.667,9.333,2,17,8,23s13.333,9,22,9h166c8.667,0,16-3,22-9  s8.667-13.667,8-23l-15-192c-0.667-8.667-4.333-16.167-11-22.5s-14.333-9.5-23-9.5h339c13.333,0,26,4.667,38,14s20.667,20.333,26,33  l417,1044C1861.333,1516.333,1870,1555,1870,1591z"/></svg>