<?xml version="1.0" ?><svg contentScriptType="text/ecmascript" contentStyleType="text/css" enable-background="new 0 0 2048 2048" height="2048px" id="Layer_1" preserveAspectRatio="xMidYMid meet" version="1.1" viewBox="0.0 0 1920.0 2048" width="1920.0px" xml:space="preserve" xmlns="http://www.w3.org/2000/svg" xmlns:xlink="http://www.w3.org/1999/xlink" zoomAndPan="magnify"><path d="M960,800c79.333,0,147.167,28.167,203.5,84.5s84.5,124.167,84.5,203.5s-28.167,147.167-84.5,203.5S1039.333,1376,960,1376  s-147.167-28.167-203.5-84.5S672,1167.333,672,1088s28.167-147.167,84.5-203.5S880.667,800,960,800z M1664,384  c70.667,0,131,25,181,75s75,110.333,75,181v896c0,70.667-25,131-75,181s-110.333,75-181,75H256c-70.667,0-131-25-181-75  S0,1606.667,0,1536V640c0-70.667,25-131,75-181s110.333-75,181-75h224l51-136c12.667-32.667,35.833-60.833,69.5-84.5  S668.667,128,704,128h512c35.333,0,69.833,11.833,103.5,35.5s56.833,51.833,69.5,84.5l51,136H1664z M960,1536  c123.333,0,228.833-43.833,316.5-131.5S1408,1211.333,1408,1088s-43.833-228.833-131.5-316.5S1083.333,640,960,640  s-228.833,43.833-316.5,131.5S512,964.667,512,1088s43.833,228.833,131.5,316.5S836.667,1536,960,1536z"/></svg>