<?xml version="1.0" ?><svg contentScriptType="text/ecmascript" contentStyleType="text/css" enable-background="new 0 0 2048 2048" height="2048px" id="Layer_1" preserveAspectRatio="xMidYMid meet" version="1.1" viewBox="0.0 0 1792.0 2048" width="1792.0px" xml:space="preserve" xmlns="http://www.w3.org/2000/svg" xmlns:xlink="http://www.w3.org/1999/xlink" zoomAndPan="magnify"><path d="M63,1664H0V256h63V1664z M126,1663H94V256h32V1663z M220,1663h-31V256h31V1663z M377,1663h-31V256h31V1663z M534,1663h-62  V256h62V1663z M660,1663h-31V256h31V1663z M723,1663h-31V256h31V1663z M786,1663h-31V256h31V1663z M943,1663h-63V256h63V1663z   M1100,1663h-63V256h63V1663z M1226,1663h-63V256h63V1663z M1352,1663h-63V256h63V1663z M1446,1663h-63V256h63V1663z M1635,1663h-94  V256h94V1663z M1698,1663h-32V256h32V1663z M1792,1664h-63V256h63V1664z"/></svg>