<?xml version="1.0" ?><svg contentScriptType="text/ecmascript" contentStyleType="text/css" enable-background="new 0 0 2048 2048" height="2048px" id="Layer_1" preserveAspectRatio="xMidYMid meet" version="1.1" viewBox="0.0 0 1536.0 2048" width="1536.0px" xml:space="preserve" xmlns="http://www.w3.org/2000/svg" xmlns:xlink="http://www.w3.org/1999/xlink" zoomAndPan="magnify"><path d="M1023,1088h316c-0.667-2-1.5-4.667-2.5-8s-1.833-6-2.5-8l-212-496H414l-212,496c-0.667,1.333-1.5,4-2.5,8  s-1.833,6.667-2.5,8h316l95,192h320L1023,1088z M1536,1118v482c0,17.333-6.333,32.333-19,45s-27.667,19-45,19H64  c-17.333,0-32.333-6.333-45-19s-19-27.667-19-45v-482c0-41.333,8.333-82.333,25-123l238-552c6.667-16.667,18.833-30.667,36.5-42  s35.167-17,52.5-17h832c17.333,0,34.833,5.667,52.5,17s29.833,25.333,36.5,42l238,552C1527.667,1035.667,1536,1076.667,1536,1118z"/></svg>