<?xml version="1.0" ?><svg contentScriptType="text/ecmascript" contentStyleType="text/css" enable-background="new 0 0 2048 2048" height="2048px" id="Layer_1" preserveAspectRatio="xMidYMid meet" version="1.1" viewBox="0.0 0 1792.0 2048" width="1792.0px" xml:space="preserve" xmlns="http://www.w3.org/2000/svg" xmlns:xlink="http://www.w3.org/1999/xlink" zoomAndPan="magnify"><path d="M256,1440v192c0,8.667-3.167,16.167-9.5,22.5s-13.833,9.5-22.5,9.5H32c-8.667,0-16.167-3.167-22.5-9.5S0,1640.667,0,1632  v-192c0-8.667,3.167-16.167,9.5-22.5s13.833-9.5,22.5-9.5h192c8.667,0,16.167,3.167,22.5,9.5S256,1431.333,256,1440z M256,1056v192  c0,8.667-3.167,16.167-9.5,22.5s-13.833,9.5-22.5,9.5H32c-8.667,0-16.167-3.167-22.5-9.5S0,1256.667,0,1248v-192  c0-8.667,3.167-16.167,9.5-22.5s13.833-9.5,22.5-9.5h192c8.667,0,16.167,3.167,22.5,9.5S256,1047.333,256,1056z M256,672v192  c0,8.667-3.167,16.167-9.5,22.5S232.667,896,224,896H32c-8.667,0-16.167-3.167-22.5-9.5S0,872.667,0,864V672  c0-8.667,3.167-16.167,9.5-22.5S23.333,640,32,640h192c8.667,0,16.167,3.167,22.5,9.5S256,663.333,256,672z M1792,1440v192  c0,8.667-3.167,16.167-9.5,22.5s-13.833,9.5-22.5,9.5H416c-8.667,0-16.167-3.167-22.5-9.5s-9.5-13.833-9.5-22.5v-192  c0-8.667,3.167-16.167,9.5-22.5s13.833-9.5,22.5-9.5h1344c8.667,0,16.167,3.167,22.5,9.5S1792,1431.333,1792,1440z M256,288v192  c0,8.667-3.167,16.167-9.5,22.5S232.667,512,224,512H32c-8.667,0-16.167-3.167-22.5-9.5S0,488.667,0,480V288  c0-8.667,3.167-16.167,9.5-22.5S23.333,256,32,256h192c8.667,0,16.167,3.167,22.5,9.5S256,279.333,256,288z M1792,1056v192  c0,8.667-3.167,16.167-9.5,22.5s-13.833,9.5-22.5,9.5H416c-8.667,0-16.167-3.167-22.5-9.5s-9.5-13.833-9.5-22.5v-192  c0-8.667,3.167-16.167,9.5-22.5s13.833-9.5,22.5-9.5h1344c8.667,0,16.167,3.167,22.5,9.5S1792,1047.333,1792,1056z M1792,672v192  c0,8.667-3.167,16.167-9.5,22.5s-13.833,9.5-22.5,9.5H416c-8.667,0-16.167-3.167-22.5-9.5S384,872.667,384,864V672  c0-8.667,3.167-16.167,9.5-22.5s13.833-9.5,22.5-9.5h1344c8.667,0,16.167,3.167,22.5,9.5S1792,663.333,1792,672z M1792,288v192  c0,8.667-3.167,16.167-9.5,22.5s-13.833,9.5-22.5,9.5H416c-8.667,0-16.167-3.167-22.5-9.5S384,488.667,384,480V288  c0-8.667,3.167-16.167,9.5-22.5s13.833-9.5,22.5-9.5h1344c8.667,0,16.167,3.167,22.5,9.5S1792,279.333,1792,288z"/></svg>