<?xml version="1.0" ?><svg contentScriptType="text/ecmascript" contentStyleType="text/css" enable-background="new 0 0 2048 2048" height="2048px" id="Layer_1" preserveAspectRatio="xMidYMid meet" version="1.1" viewBox="0.0 0 1536.0 2048" width="1536.0px" xml:space="preserve" xmlns="http://www.w3.org/2000/svg" xmlns:xlink="http://www.w3.org/1999/xlink" zoomAndPan="magnify"><path d="M1536,352v1120c0,33.333-11.333,63-34,89s-51.333,46.167-86,60.5s-69.167,25-103.5,32S1246,1664,1216,1664  s-62.167-3.5-96.5-10.5s-68.833-17.667-103.5-32c-34.667-14.333-63.333-34.5-86-60.5s-34-55.667-34-89s11.333-63,34-89  s51.333-46.167,86-60.5c34.667-14.333,69.167-25,103.5-32s66.5-10.5,96.5-10.5c70,0,134,13,192,39V782l-768,237v709  c0,33.333-11.333,63-34,89s-51.333,46.167-86,60.5s-69.167,25-103.5,32S350,1920,320,1920s-62.167-3.5-96.5-10.5  s-68.833-17.667-103.5-32S56.667,1843,34,1817s-34-55.667-34-89s11.333-63,34-89s51.333-46.167,86-60.5s69.167-25,103.5-32  S290,1536,320,1536c70,0,134,13,192,39V608c0-20.667,6.333-39.5,19-56.5s29-28.833,49-35.5l832-256c8-2.667,17.333-4,28-4  c26.667,0,49.333,9.333,68,28S1536,325.333,1536,352z"/></svg>