<?xml version="1.0" ?><svg contentScriptType="text/ecmascript" contentStyleType="text/css" enable-background="new 0 0 2048 2048" height="2048px" id="Layer_1" preserveAspectRatio="xMidYMid meet" version="1.1" viewBox="0.0 0 1536.0 2048" width="1536.0px" xml:space="preserve" xmlns="http://www.w3.org/2000/svg" xmlns:xlink="http://www.w3.org/1999/xlink" zoomAndPan="magnify"><path d="M1511,1184c0,3.333-0.333,5.667-1,7c-42.667,178.667-132,323.5-268,434.5S946.667,1792,764,1792  c-97.333,0-191.5-18.333-282.5-55s-172.167-89-243.5-157l-129,129c-12.667,12.667-27.667,19-45,19s-32.333-6.333-45-19  s-19-27.667-19-45v-448c0-17.333,6.333-32.333,19-45s27.667-19,45-19h448c17.333,0,32.333,6.333,45,19s19,27.667,19,45  s-6.333,32.333-19,45l-137,137c47.333,44,101,78,161,102s122.333,36,187,36c89.333,0,172.667-21.667,250-65s139.333-103,186-179  c7.333-11.333,25-50.333,53-117c5.333-15.333,15.333-23,30-23h192c8.667,0,16.167,3.167,22.5,9.5S1511,1175.333,1511,1184z   M1536,384v448c0,17.333-6.333,32.333-19,45s-27.667,19-45,19h-448c-17.333,0-32.333-6.333-45-19s-19-27.667-19-45  s6.333-32.333,19-45l138-138c-98.667-91.333-215-137-349-137c-89.333,0-172.667,21.667-250,65S378.667,680,332,756  c-7.333,11.333-25,50.333-53,117c-5.333,15.333-15.333,23-30,23H50c-8.667,0-16.167-3.167-22.5-9.5S18,872.667,18,864v-7  c43.333-178.667,133.333-323.5,270-434.5S584.667,256,768,256c97.333,0,192,18.5,284,55.5s173.667,89.167,245,156.5l130-129  c12.667-12.667,27.667-19,45-19s32.333,6.333,45,19S1536,366.667,1536,384z"/></svg>