<?xml version="1.0" ?><svg contentScriptType="text/ecmascript" contentStyleType="text/css" enable-background="new 0 0 2048 2048" height="2048px" id="Layer_1" preserveAspectRatio="xMidYMid meet" version="1.1" viewBox="0.0 0 768.0 2048" width="768.0px" xml:space="preserve" xmlns="http://www.w3.org/2000/svg" xmlns:xlink="http://www.w3.org/1999/xlink" zoomAndPan="magnify"><path d="M768,480v1088c0,17.333-6.333,32.333-19,45s-27.667,19-45,19s-32.333-6.333-45-19l-333-333H64c-17.333,0-32.333-6.333-45-19  s-19-27.667-19-45V832c0-17.333,6.333-32.333,19-45s27.667-19,45-19h262l333-333c12.667-12.667,27.667-19,45-19s32.333,6.333,45,19  S768,462.667,768,480z"/></svg>