<?xml version="1.0" ?><svg contentScriptType="text/ecmascript" contentStyleType="text/css" enable-background="new 0 0 2048 2048" height="2048px" id="Layer_1" preserveAspectRatio="xMidYMid meet" version="1.1" viewBox="0.0 0 1792.0 2048" width="1792.0px" xml:space="preserve" xmlns="http://www.w3.org/2000/svg" xmlns:xlink="http://www.w3.org/1999/xlink" zoomAndPan="magnify"><path d="M384,1312v64c0,8.667-3.167,16.167-9.5,22.5s-13.833,9.5-22.5,9.5h-64c-8.667,0-16.167-3.167-22.5-9.5s-9.5-13.833-9.5-22.5  v-64c0-8.667,3.167-16.167,9.5-22.5s13.833-9.5,22.5-9.5h64c8.667,0,16.167,3.167,22.5,9.5S384,1303.333,384,1312z M384,1056v64  c0,8.667-3.167,16.167-9.5,22.5s-13.833,9.5-22.5,9.5h-64c-8.667,0-16.167-3.167-22.5-9.5s-9.5-13.833-9.5-22.5v-64  c0-8.667,3.167-16.167,9.5-22.5s13.833-9.5,22.5-9.5h64c8.667,0,16.167,3.167,22.5,9.5S384,1047.333,384,1056z M384,800v64  c0,8.667-3.167,16.167-9.5,22.5S360.667,896,352,896h-64c-8.667,0-16.167-3.167-22.5-9.5S256,872.667,256,864v-64  c0-8.667,3.167-16.167,9.5-22.5s13.833-9.5,22.5-9.5h64c8.667,0,16.167,3.167,22.5,9.5S384,791.333,384,800z M1536,1312v64  c0,8.667-3.167,16.167-9.5,22.5s-13.833,9.5-22.5,9.5H544c-8.667,0-16.167-3.167-22.5-9.5s-9.5-13.833-9.5-22.5v-64  c0-8.667,3.167-16.167,9.5-22.5s13.833-9.5,22.5-9.5h960c8.667,0,16.167,3.167,22.5,9.5S1536,1303.333,1536,1312z M1536,1056v64  c0,8.667-3.167,16.167-9.5,22.5s-13.833,9.5-22.5,9.5H544c-8.667,0-16.167-3.167-22.5-9.5s-9.5-13.833-9.5-22.5v-64  c0-8.667,3.167-16.167,9.5-22.5s13.833-9.5,22.5-9.5h960c8.667,0,16.167,3.167,22.5,9.5S1536,1047.333,1536,1056z M1536,800v64  c0,8.667-3.167,16.167-9.5,22.5s-13.833,9.5-22.5,9.5H544c-8.667,0-16.167-3.167-22.5-9.5S512,872.667,512,864v-64  c0-8.667,3.167-16.167,9.5-22.5s13.833-9.5,22.5-9.5h960c8.667,0,16.167,3.167,22.5,9.5S1536,791.333,1536,800z M1664,1504V672  c0-8.667-3.167-16.167-9.5-22.5s-13.833-9.5-22.5-9.5H160c-8.667,0-16.167,3.167-22.5,9.5S128,663.333,128,672v832  c0,8.667,3.167,16.167,9.5,22.5s13.833,9.5,22.5,9.5h1472c8.667,0,16.167-3.167,22.5-9.5S1664,1512.667,1664,1504z M1792,416v1088  c0,44-15.667,81.667-47,113s-69,47-113,47H160c-44,0-81.667-15.667-113-47s-47-69-47-113V416c0-44,15.667-81.667,47-113  s69-47,113-47h1472c44,0,81.667,15.667,113,47S1792,372,1792,416z"/></svg>