<?xml version="1.0" ?><svg contentScriptType="text/ecmascript" contentStyleType="text/css" enable-background="new 0 0 2048 2048" height="2048px" id="Layer_1" preserveAspectRatio="xMidYMid meet" version="1.1" viewBox="0.0 0 1280.0 2048" width="1280.0px" xml:space="preserve" xmlns="http://www.w3.org/2000/svg" xmlns:xlink="http://www.w3.org/1999/xlink" zoomAndPan="magnify"><path d="M1164,256c15.333,0,30,3,44,9c22,8.667,39.5,22.333,52.5,41s19.5,39.333,19.5,62v1289c0,22.667-6.5,43.333-19.5,62  s-30.5,32.333-52.5,41c-12.667,5.333-27.333,8-44,8c-32,0-59.667-10.667-83-32l-441-424l-441,424c-24,22-51.667,33-83,33  c-15.333,0-30-3-44-9c-22-8.667-39.5-22.333-52.5-41S0,1679.667,0,1657V368c0-22.667,6.5-43.333,19.5-62S50,273.667,72,265  c14-6,28.667-9,44-9H1164z"/></svg>