<?xml version="1.0" ?><svg contentScriptType="text/ecmascript" contentStyleType="text/css" enable-background="new 0 0 2048 2048" height="2048px" id="Layer_1" preserveAspectRatio="xMidYMid meet" version="1.1" viewBox="0.0 0 1792.0 2048" width="1792.0px" xml:space="preserve" xmlns="http://www.w3.org/2000/svg" xmlns:xlink="http://www.w3.org/1999/xlink" zoomAndPan="magnify"><path d="M896,1792c-17.333,0-32-6-44-18l-624-602c-6.667-5.333-15.833-14-27.5-26s-30.167-33.833-55.5-65.5s-48-64.167-68-97.5  s-37.833-73.667-53.5-121S0,768.667,0,724c0-146.667,42.333-261.333,127-344s201.667-124,351-124c41.333,0,83.5,7.167,126.5,21.5  s83,33.667,120,58s68.833,47.167,95.5,68.5s52,44,76,68c24-24,49.333-46.667,76-68s58.5-44.167,95.5-68.5s77-43.667,120-58  S1272.667,256,1314,256c149.333,0,266.333,41.333,351,124s127,197.333,127,344c0,147.333-76.333,297.333-229,450l-623,600  C928,1786,913.333,1792,896,1792z"/></svg>