<?xml version="1.0" ?><svg contentScriptType="text/ecmascript" contentStyleType="text/css" enable-background="new 0 0 2048 2048" height="2048px" id="Layer_1" preserveAspectRatio="xMidYMid meet" version="1.1" viewBox="0.0 0 1664.0 2048" width="1664.0px" xml:space="preserve" xmlns="http://www.w3.org/2000/svg" xmlns:xlink="http://www.w3.org/1999/xlink" zoomAndPan="magnify"><path d="M384,1664h896v-256H384V1664z M384,1024h896V640h-160c-26.667,0-49.333-9.333-68-28s-28-41.333-28-68V384H384V1024z   M1536,1088c0-17.333-6.333-32.333-19-45s-27.667-19-45-19s-32.333,6.333-45,19s-19,27.667-19,45s6.333,32.333,19,45  s27.667,19,45,19s32.333-6.333,45-19S1536,1105.333,1536,1088z M1664,1088v416c0,8.667-3.167,16.167-9.5,22.5s-13.833,9.5-22.5,9.5  h-224v160c0,26.667-9.333,49.333-28,68s-41.333,28-68,28H352c-26.667,0-49.333-9.333-68-28s-28-41.333-28-68v-160H32  c-8.667,0-16.167-3.167-22.5-9.5S0,1512.667,0,1504v-416c0-52.667,18.833-97.833,56.5-135.5S139.333,896,192,896h64V352  c0-26.667,9.333-49.333,28-68s41.333-28,68-28h672c26.667,0,56,6.667,88,20s57.333,29.333,76,48l152,152  c18.667,18.667,34.667,44,48,76s20,61.333,20,88v256h64c52.667,0,97.833,18.833,135.5,56.5S1664,1035.333,1664,1088z"/></svg>