<?xml version="1.0" ?><svg contentScriptType="text/ecmascript" contentStyleType="text/css" enable-background="new 0 0 2048 2048" height="2048px" id="Layer_1" preserveAspectRatio="xMidYMid meet" version="1.1" viewBox="0.0 0 1536.0 2048" width="1536.0px" xml:space="preserve" xmlns="http://www.w3.org/2000/svg" xmlns:xlink="http://www.w3.org/1999/xlink" zoomAndPan="magnify"><path d="M1536,1024c0,104-20.333,203.333-61,298s-95.333,176.333-164,245s-150.333,123.333-245,164s-194,61-298,61  s-203.333-20.333-298-61s-176.333-95.333-245-164s-123.333-150.333-164-245S0,1128,0,1024c0-121.333,26.833-235.667,80.5-343  S209.667,483.667,307,411c28.667-21.333,60.5-29.667,95.5-25s62.833,21.333,83.5,50c21.333,28,29.5,59.5,24.5,94.5  S489,593.667,461,615c-65.333,49.333-115.833,109.667-151.5,181S256,943.333,256,1024c0,69.333,13.5,135.5,40.5,198.5  S360,1340,406,1386s100.5,82.5,163.5,109.5S698.667,1536,768,1536s135.5-13.5,198.5-40.5S1084,1432,1130,1386  s82.5-100.5,109.5-163.5s40.5-129.167,40.5-198.5c0-80.667-17.833-156.667-53.5-228s-86.167-131.667-151.5-181  c-28-21.333-44.5-49.5-49.5-84.5s3.167-66.5,24.5-94.5c20.667-28.667,48.667-45.333,84-50s67,3.667,95,25  c97.333,72.667,172.833,162.667,226.5,270S1536,902.667,1536,1024z M896,256v640c0,34.667-12.667,64.667-38,90s-55.333,38-90,38  s-64.667-12.667-90-38s-38-55.333-38-90V256c0-34.667,12.667-64.667,38-90s55.333-38,90-38s64.667,12.667,90,38S896,221.333,896,256  z"/></svg>