<?xml version="1.0" ?><svg contentScriptType="text/ecmascript" contentStyleType="text/css" enable-background="new 0 0 2048 2048" height="2048px" id="Layer_1" preserveAspectRatio="xMidYMid meet" version="1.1" viewBox="0.0 0 1664.0 2048" width="1664.0px" xml:space="preserve" xmlns="http://www.w3.org/2000/svg" xmlns:xlink="http://www.w3.org/1999/xlink" zoomAndPan="magnify"><path d="M1408,1117v259c0,79.333-28.167,147.167-84.5,203.5S1199.333,1664,1120,1664H288c-79.333,0-147.167-28.167-203.5-84.5  S0,1455.333,0,1376V544c0-79.333,28.167-147.167,84.5-203.5S208.667,256,288,256h255l0,0c8.667,0,16.167,3.167,22.5,9.5  s9.5,13.833,9.5,22.5c0,18-8.667,28.667-26,32c-51.333,17.333-95.667,37.333-133,60c-6.667,2.667-12,4-16,4H288  c-44,0-81.667,15.667-113,47s-47,69-47,113v832c0,44,15.667,81.667,47,113s69,47,113,47h832c44,0,81.667-15.667,113-47s47-69,47-113  v-214c0-12.667,6-22.333,18-29c18.667-8.667,36.667-21,54-37c10.667-10.667,22.333-13.333,35-8C1401,1094,1408,1103.667,1408,1117z   M1645,621l-384,384c-12,12.667-27,19-45,19c-8,0-16.333-1.667-25-5c-26-11.333-39-31-39-59V768H992  c-215.333,0-361.333,43.667-438,131c-79.333,91.333-104,249-74,473c2,15.333-4.667,26.667-20,34c-5.333,1.333-9.333,2-12,2  c-10.667,0-19.333-4.333-26-13c-6.667-9.333-13.667-19.667-21-31s-20.5-34.167-39.5-68.5S326,1228,312,1196s-26.833-70-38.5-114  S256,997.333,256,960c0-32.667,1.167-63,3.5-91s7-58,14-90s16.333-61.333,28-88s27.333-53.833,47-81.5s42.5-52.333,68.5-74  s57.5-42.167,94.5-61.5S590,438.5,636,425.5s99.167-23.167,159.5-30.5s125.833-11,196.5-11h160V192c0-28,13-47.667,39-59  c8.667-3.333,17-5,25-5c17.333,0,32.333,6.333,45,19l384,384c12.667,12.667,19,27.667,19,45S1657.667,608.333,1645,621z"/></svg>