<?xml version="1.0" ?><svg contentScriptType="text/ecmascript" contentStyleType="text/css" enable-background="new 0 0 2048 2048" height="2048px" id="Layer_1" preserveAspectRatio="xMidYMid meet" version="1.1" viewBox="0.0 0 1408.0 2048" width="1408.0px" xml:space="preserve" xmlns="http://www.w3.org/2000/svg" xmlns:xlink="http://www.w3.org/1999/xlink" zoomAndPan="magnify"><path d="M384,1280v128H256v-128H384z M384,512v128H256V512H384z M1152,512v128h-128V512H1152z M128,1535h384v-383H128V1535z   M128,768h384V384H128V768z M896,768h384V384H896V768z M640,1024v640H0v-640H640z M1152,1536v128h-128v-128H1152z M1408,1536v128  h-128v-128H1408z M1408,1024v384h-384v-128H896v384H768v-640h384v128h128v-128H1408z M640,256v640H0V256H640z M1408,256v640H768V256  H1408z"/></svg>