<?xml version="1.0" ?><svg contentScriptType="text/ecmascript" contentStyleType="text/css" enable-background="new 0 0 2048 2048" height="2048px" id="Layer_1" preserveAspectRatio="xMidYMid meet" version="1.1" viewBox="0.0 0 1664.0 2048" width="1664.0px" xml:space="preserve" xmlns="http://www.w3.org/2000/svg" xmlns:xlink="http://www.w3.org/1999/xlink" zoomAndPan="magnify"><path d="M1024,928v64c0,8.667-3.167,16.167-9.5,22.5s-13.833,9.5-22.5,9.5H416c-8.667,0-16.167-3.167-22.5-9.5s-9.5-13.833-9.5-22.5  v-64c0-8.667,3.167-16.167,9.5-22.5s13.833-9.5,22.5-9.5h576c8.667,0,16.167,3.167,22.5,9.5S1024,919.333,1024,928z M1152,960  c0-123.333-43.833-228.833-131.5-316.5S827.333,512,704,512s-228.833,43.833-316.5,131.5S256,836.667,256,960  s43.833,228.833,131.5,316.5S580.667,1408,704,1408s228.833-43.833,316.5-131.5S1152,1083.333,1152,960z M1664,1792  c0,35.333-12.5,65.5-37.5,90.5s-55.167,37.5-90.5,37.5c-36,0-66-12.667-90-38l-343-342c-119.333,82.667-252.333,124-399,124  c-95.333,0-186.5-18.5-273.5-55.5s-162-87-225-150s-113-138-150-225S0,1055.333,0,960s18.5-186.5,55.5-273.5s87-162,150-225  s138-113,225-150S608.667,256,704,256s186.5,18.5,273.5,55.5s162,87,225,150s113,138,150,225S1408,864.667,1408,960  c0,146.667-41.333,279.667-124,399l343,343C1651.667,1726.667,1664,1756.667,1664,1792z"/></svg>