<?xml version="1.0" ?><svg contentScriptType="text/ecmascript" contentStyleType="text/css" enable-background="new 0 0 2048 2048" height="2048px" id="Layer_1" preserveAspectRatio="xMidYMid meet" version="1.1" viewBox="64.0 0 1472.0 2048" width="1472.0px" xml:space="preserve" xmlns="http://www.w3.org/2000/svg" xmlns:xlink="http://www.w3.org/1999/xlink" zoomAndPan="magnify"><path d="M1536,1024v128c0,35.333-10.833,65.5-32.5,90.5s-49.833,37.5-84.5,37.5H715l293,294c25.333,24,38,54,38,90s-12.667,66-38,90  l-75,76c-24.667,24.667-54.667,37-90,37c-34.667,0-65-12.333-91-37l-651-652c-24.667-24.667-37-54.667-37-90  c0-34.667,12.333-65,37-91l651-650c25.333-25.333,55.667-38,91-38c34.667,0,64.667,12.667,90,38l75,74  c25.333,25.333,38,55.667,38,91s-12.667,65.667-38,91L715,896h704c34.667,0,62.833,12.5,84.5,37.5S1536,988.667,1536,1024z"/></svg>