<?xml version="1.0" ?><svg contentScriptType="text/ecmascript" contentStyleType="text/css" enable-background="new 0 0 2048 2048" height="2048px" id="Layer_1" preserveAspectRatio="xMidYMid meet" version="1.1" viewBox="0.0 0 1792.0 2048" width="1792.0px" xml:space="preserve" xmlns="http://www.w3.org/2000/svg" xmlns:xlink="http://www.w3.org/1999/xlink" zoomAndPan="magnify"><path d="M1376,1536h32V896h-32c-23.333,0-45.833-4-67.5-12s-42.5-20.333-62.5-37s-36.667-32-50-46s-29.667-32-49-54  c-1.333-2-2.5-3.5-3.5-4.5s-2.333-2.5-4-4.5s-3.167-3.667-4.5-5c-48-54-85.333-102.333-112-145c-9.333-14.667-22-37.333-38-68  c-0.667-2-4.167-9.5-10.5-22.5s-12.5-25-18.5-36s-12.667-22.833-20-35.5s-14.5-22.833-21.5-30.5S901.333,384,896,384  c-47.333,0-85.833,10.167-115.5,30.5S736,467.333,736,512c0,28.667,5,56.833,15,84.5s21,50.333,33,68s23,36,33,55s15,35.167,15,48.5  H256c-33.333,0-63,12.833-89,38.5S128,862,128,896c0,34.667,12.667,64.667,38,90s55.333,38,90,38h331  c-10,11.333-18.333,27.167-25,47.5s-10,38.833-10,55.5c0,46,17.667,85.667,53,119c-12,21.333-18,44.333-18,69  s5.833,49.167,17.5,73.5s27.5,41.833,47.5,52.5c-2.667,16-4,34.667-4,56c0,56.667,16.167,98.667,48.5,126s77.5,41,135.5,41  c56,0,117-10.667,183-32s130.667-42.667,194-64S1328,1536,1376,1536z M1664,1472c0-17.333-6.333-32.333-19-45s-27.667-19-45-19  s-32.333,6.333-45,19s-19,27.667-19,45s6.333,32.333,19,45s27.667,19,45,19s32.333-6.333,45-19S1664,1489.333,1664,1472z M1792,896  v640c0,35.333-12.5,65.5-37.5,90.5s-55.167,37.5-90.5,37.5h-288c-39.333,0-113.667,19.667-223,59c-126.667,46-232.333,69-317,69  c-94.667,0-171.333-25.833-230-77.5s-87.667-124.167-87-217.5l1-5c-40.667-50.667-61-110-61-178c0-14.667,1-29,3-43  c-22-38-34.333-77.667-37-119H256c-70,0-130.167-25.333-180.5-76S0,965,0,895c0-68.667,25.333-128.333,76-179s110.667-76,180-76h374  c-14.667-40-22-82.667-22-128c0-81.333,27.167-144.333,81.5-189s123.167-67,206.5-67c25.333,0,48.5,5.833,69.5,17.5  s39.333,28.167,55,49.5c15.667,21.333,29.167,42.333,40.5,63s23.667,44.667,37,72s24.333,48,33,62  c23.333,36.667,56.667,79.667,100,129c1.333,2,6,7.667,14,17s14.333,16.5,19,21.5s11.5,12.167,20.5,21.5s17,16.833,24,22.5  s14.5,11.667,22.5,18s15.833,11,23.5,14s14.833,4.5,21.5,4.5h288c35.333,0,65.5,12.5,90.5,37.5S1792,860.667,1792,896z"/></svg>