<?xml version="1.0" ?><svg contentScriptType="text/ecmascript" contentStyleType="text/css" enable-background="new 0 0 2048 2048" height="2048px" id="Layer_1" preserveAspectRatio="xMidYMid meet" version="1.1" viewBox="0.0 0 1024.0 2048" width="1024.0px" xml:space="preserve" xmlns="http://www.w3.org/2000/svg" xmlns:xlink="http://www.w3.org/1999/xlink" zoomAndPan="magnify"><path d="M45,1779c-12.667,12.667-23.333,17-32,13s-13-14.667-13-32V288c0-17.333,4.333-28,13-32s19.333,0.333,32,13l710,710  c5.333,5.333,9.667,11.667,13,19V320c0-17.333,6.333-32.333,19-45s27.667-19,45-19h128c17.333,0,32.333,6.333,45,19s19,27.667,19,45  v1408c0,17.333-6.333,32.333-19,45s-27.667,19-45,19H832c-17.333,0-32.333-6.333-45-19s-19-27.667-19-45v-678  c-3.333,6.667-7.667,13-13,19L45,1779z"/></svg>