<?xml version="1.0" ?><svg contentScriptType="text/ecmascript" contentStyleType="text/css" enable-background="new 0 0 2048 2048" height="2048px" id="Layer_1" preserveAspectRatio="xMidYMid meet" version="1.1" viewBox="0.0 0 1536.0 2048" width="1536.0px" xml:space="preserve" xmlns="http://www.w3.org/2000/svg" xmlns:xlink="http://www.w3.org/1999/xlink" zoomAndPan="magnify"><path d="M1536,960v128c0,134-32.833,254.667-98.5,362s-157,191.167-274,251.5S914.667,1792,768,1792s-278.5-30.167-395.5-90.5  s-208.333-144.167-274-251.5S0,1222,0,1088V960c0-17.333,6.333-32.333,19-45s27.667-19,45-19h384c17.333,0,32.333,6.333,45,19  s19,27.667,19,45v128c0,34.667,7.833,64.667,23.5,90s33.5,44.333,53.5,57s43.667,22.667,71,30s48.667,11.667,64,13s30,2,44,2  s28.667-0.667,44-2s36.667-5.667,64-13s51-17.333,71-30s37.833-31.667,53.5-57s23.5-55.333,23.5-90V960c0-17.333,6.333-32.333,19-45  s27.667-19,45-19h384c17.333,0,32.333,6.333,45,19S1536,942.667,1536,960z M512,320v384c0,17.333-6.333,32.333-19,45  s-27.667,19-45,19H64c-17.333,0-32.333-6.333-45-19S0,721.333,0,704V320c0-17.333,6.333-32.333,19-45s27.667-19,45-19h384  c17.333,0,32.333,6.333,45,19S512,302.667,512,320z M1536,320v384c0,17.333-6.333,32.333-19,45s-27.667,19-45,19h-384  c-17.333,0-32.333-6.333-45-19s-19-27.667-19-45V320c0-17.333,6.333-32.333,19-45s27.667-19,45-19h384c17.333,0,32.333,6.333,45,19  S1536,302.667,1536,320z"/></svg>