<?xml version="1.0" ?><svg contentScriptType="text/ecmascript" contentStyleType="text/css" enable-background="new 0 0 2048 2048" height="2048px" id="Layer_1" preserveAspectRatio="xMidYMid meet" version="1.1" viewBox="53.0 0 1558.0 2048" width="1558.0px" xml:space="preserve" xmlns="http://www.w3.org/2000/svg" xmlns:xlink="http://www.w3.org/1999/xlink" zoomAndPan="magnify"><path d="M1611,1099c0,34-12.333,64-37,90l-75,75c-25.333,25.333-55.667,38-91,38c-36,0-66-12.667-90-38l-294-293v704  c0,34.667-12.5,62.833-37.5,84.5S931.333,1792,896,1792H768c-35.333,0-65.5-10.833-90.5-32.5S640,1709.667,640,1675V971l-294,293  c-24,25.333-54,38-90,38s-66-12.667-90-38l-75-75c-25.333-25.333-38-55.333-38-90c0-35.333,12.667-65.667,38-91l651-651  c23.333-24.667,53.333-37,90-37c36,0,66.333,12.333,91,37l651,651C1598.667,1034,1611,1064.333,1611,1099z"/></svg>