<?xml version="1.0" ?><svg contentScriptType="text/ecmascript" contentStyleType="text/css" enable-background="new 0 0 2048 2048" height="2048px" id="Layer_1" preserveAspectRatio="xMidYMid meet" version="1.1" viewBox="0.0 0 1536.0 2048" width="1536.0px" xml:space="preserve" xmlns="http://www.w3.org/2000/svg" xmlns:xlink="http://www.w3.org/1999/xlink" zoomAndPan="magnify"><path d="M1280,1728c0-17.333-6.333-32.333-19-45s-27.667-19-45-19s-32.333,6.333-45,19s-19,27.667-19,45s6.333,32.333,19,45  s27.667,19,45,19s32.333-6.333,45-19S1280,1745.333,1280,1728z M1408,964c0-126-55.667-189-167-189c-17.333,0-36,1.667-56,5  c-10.667-20-28.167-35.833-52.5-47.5S1083.667,715,1059,715s-47.667,6-69,18c-33.333-35.333-73-53-119-53  c-16.667,0-35.167,3.333-55.5,10s-36.167,15-47.5,25V384c0-34.667-12.667-64.667-38-90s-55.333-38-90-38c-34,0-63.833,13-89.5,39  S512,350.667,512,384v576c-13.333,0-29.5-5-48.5-15s-37.333-21-55-33s-40.333-23-68-33s-55.833-15-84.5-15  c-44.667,0-77.167,14.833-97.5,44.5S128,976.667,128,1024c0,16,46.333,46,139,90c29.333,16,51,28.333,65,37  c42.667,26.667,91,64,145,112c54,47.333,89.333,81,106,101c38,46,57,92.667,57,140v32h640v-32c0-48,10.667-103.667,32-167  s42.667-127.833,64-193.5C1397.333,1077.833,1408,1018,1408,964z M1536,959c0,88.667-23,196-69,322  c-39.333,109.333-59,183.667-59,223v288c0,35.333-12.5,65.5-37.5,90.5s-55.167,37.5-90.5,37.5H640c-35.333,0-65.5-12.5-90.5-37.5  S512,1827.333,512,1792v-288c0-6.667-1.5-13.833-4.5-21.5s-7.667-15.5-14-23.5s-12.333-15.5-18-22.5s-13.167-15-22.5-24  s-16.5-15.833-21.5-20.5s-12.167-11-21.5-19s-15-12.667-17-14c-49.333-43.333-92.333-76.667-129-100c-14-8.667-34.667-19.667-62-33  s-51.333-25.667-72-37s-41.667-24.833-63-40.5c-21.333-15.667-37.833-34-49.5-55S0,1049.333,0,1024  c0-83.333,22.333-152.167,67-206.5S174.667,736,256,736c45.333,0,88,7.333,128,22V384c0-69.333,25.333-129.333,76-180  s110.333-76,179-76c70,0,130.333,25.167,181,75.5S896,314,896,384v169c41.333,2.667,81,15,119,37c14-2,28.333-3,43-3  c67.333,0,126.667,20,178,60c92.667-0.667,165.833,27.667,219.5,85S1536,865,1536,959z"/></svg>