<?xml version="1.0" ?><svg contentScriptType="text/ecmascript" contentStyleType="text/css" enable-background="new 0 0 2048 2048" height="2048px" id="Layer_1" preserveAspectRatio="xMidYMid meet" version="1.1" viewBox="-4.666999816894531 0 1545.333984375 2048" width="1545.333984375px" xml:space="preserve" xmlns="http://www.w3.org/2000/svg" xmlns:xlink="http://www.w3.org/1999/xlink" zoomAndPan="magnify"><path d="M1376,1024l138,135c20,18.667,26.667,42,20,70c-8,27.333-25.333,44.333-52,51l-188,48l53,186c8,27.333,1.667,50.667-19,70  c-19.333,20.667-42.667,27-70,19l-186-53l-48,188c-6.667,26.667-23.667,44-51,52c-8,1.333-14.333,2-19,2  c-20.667,0-37.667-7.333-51-22l-135-138l-135,138c-18.667,20-42,26.667-70,20c-27.333-7.333-44.333-24.667-51-52l-48-188l-186,53  c-27.333,8-50.667,1.667-70-19c-20.667-19.333-27-42.667-19-70l53-186l-188-48c-26.667-6.667-44-23.667-52-51  c-6.667-28,0-51.333,20-70l138-135L22,889C2,870.333-4.667,847,2,819c8-27.333,25.333-44.333,52-51l188-48l-53-186  c-8-27.333-1.667-50.667,19-70c19.333-20.667,42.667-27,70-19l186,53l48-188c6.667-27.333,23.667-44.333,51-51  c27.333-8,50.667-1.667,70,19l135,139l135-139c19.333-20,42.667-26.333,70-19c27.333,6.667,44.333,23.667,51,51l48,188l186-53  c27.333-8,50.667-1.667,70,19c20.667,19.333,27,42.667,19,70l-53,186l188,48c26.667,6.667,44,23.667,52,51c6.667,28,0,51.333-20,70  L1376,1024z"/></svg>