<?xml version="1.0" ?><svg contentScriptType="text/ecmascript" contentStyleType="text/css" enable-background="new 0 0 2048 2048" height="2048px" id="Layer_1" preserveAspectRatio="xMidYMid meet" version="1.1" viewBox="13.0 0 1510.0 2048" width="1510.0px" xml:space="preserve" xmlns="http://www.w3.org/2000/svg" xmlns:xlink="http://www.w3.org/1999/xlink" zoomAndPan="magnify"><path d="M768,1088v448c0,17.333-6.333,32.333-19,45s-27.667,19-45,19s-32.333-6.333-45-19l-144-144l-332,332  c-6.667,6.667-14.333,10-23,10s-16.333-3.333-23-10L23,1655c-6.667-6.667-10-14.333-10-23s3.333-16.333,10-23l332-332l-144-144  c-12.667-12.667-19-27.667-19-45s6.333-32.333,19-45s27.667-19,45-19h448c17.333,0,32.333,6.333,45,19S768,1070.667,768,1088z   M1523,416c0,8.667-3.333,16.333-10,23l-332,332l144,144c12.667,12.667,19,27.667,19,45s-6.333,32.333-19,45s-27.667,19-45,19H832  c-17.333,0-32.333-6.333-45-19s-19-27.667-19-45V512c0-17.333,6.333-32.333,19-45s27.667-19,45-19s32.333,6.333,45,19l144,144  l332-332c6.667-6.667,14.333-10,23-10s16.333,3.333,23,10l114,114C1519.667,399.667,1523,407.333,1523,416z"/></svg>