<?xml version="1.0" ?><svg contentScriptType="text/ecmascript" contentStyleType="text/css" enable-background="new 0 0 2048 2048" height="2048px" id="Layer_1" preserveAspectRatio="xMidYMid meet" version="1.1" viewBox="0.0 0 1536.0 2048" width="1536.0px" xml:space="preserve" xmlns="http://www.w3.org/2000/svg" xmlns:xlink="http://www.w3.org/1999/xlink" zoomAndPan="magnify"><path d="M1536,320v1408c0,17.333-6.333,32.333-19,45s-27.667,19-45,19H960c-17.333,0-32.333-6.333-45-19s-19-27.667-19-45V320  c0-17.333,6.333-32.333,19-45s27.667-19,45-19h512c17.333,0,32.333,6.333,45,19S1536,302.667,1536,320z M640,320v1408  c0,17.333-6.333,32.333-19,45s-27.667,19-45,19H64c-17.333,0-32.333-6.333-45-19s-19-27.667-19-45V320c0-17.333,6.333-32.333,19-45  s27.667-19,45-19h512c17.333,0,32.333,6.333,45,19S640,302.667,640,320z"/></svg>