<?xml version="1.0" ?><svg contentScriptType="text/ecmascript" contentStyleType="text/css" enable-background="new 0 0 2048 2048" height="2048px" id="Layer_1" preserveAspectRatio="xMidYMid meet" version="1.1" viewBox="0.0 0 1536.0 2048" width="1536.0px" xml:space="preserve" xmlns="http://www.w3.org/2000/svg" xmlns:xlink="http://www.w3.org/1999/xlink" zoomAndPan="magnify"><path d="M256,576c0-17.333-6.333-32.333-19-45s-27.667-19-45-19s-32.333,6.333-45,19s-19,27.667-19,45s6.333,32.333,19,45  s27.667,19,45,19s32.333-6.333,45-19S256,593.333,256,576z M1408,1152c0-23.333-7.167-50.333-21.5-81s-32.167-46.333-53.5-47  c10-11.333,18.333-27.167,25-47.5s10-38.833,10-55.5c0-46-17.667-85.667-53-119c12-21.333,18-44.333,18-69s-5.833-49.167-17.5-73.5  c-11.667-24.333-27.5-41.833-47.5-52.5c3.333-20,5-38.667,5-56c0-56.667-16.333-98.667-49-126s-78-41-136-41H960  c-87.333,0-201.333,24.333-342,73c-3.333,1.333-13,4.833-29,10.5s-27.833,9.833-35.5,12.5s-19.333,6.5-35,11.5  c-15.667,5-28.333,8.667-38,11s-20.667,4.5-33,6.5s-22.833,3-31.5,3h-32v640h32c10.667,0,22.5,3,35.5,9s26.333,15,40,27  s26.5,23.833,38.5,35.5s25.333,26.333,40,44s26.167,31.833,34.5,42.5s18.833,24.333,31.5,41s20.333,26.667,23,30  c36.667,45.333,62.333,75.667,77,91c27.333,28.667,47.167,65.167,59.5,109.5S818,1667.667,826,1707s20.667,67.667,38,85  c64,0,106.667-15.667,128-47s32-79.667,32-145c0-39.333-16-92.833-48-160.5s-48-120.833-48-159.5h352c33.333,0,63-12.833,89-38.5  S1408,1186,1408,1152z M1536,1153c0,68.667-25.333,128.333-76,179s-110.667,76-180,76h-176c32,66,48,130,48,192  c0,78.667-11.667,140.667-35,186c-23.333,46-57.333,79.833-102,101.5c-44.667,21.667-95,32.5-151,32.5c-34,0-64-12.333-90-37  c-22.667-22-40.667-49.333-54-82s-21.833-62.833-25.5-90.5s-9.5-55.833-17.5-84.5s-18.333-50-31-64  c-32-33.333-67.667-75.667-107-127c-67.333-87.333-113-139-137-155H128c-35.333,0-65.5-12.5-90.5-37.5S0,1187.333,0,1152V512  c0-35.333,12.5-65.5,37.5-90.5S92.667,384,128,384h288c14.667,0,60.667-13.333,138-40c85.333-29.333,159.667-51.333,223-66  s130-22,200-22h112c93.333,0,168.833,26.333,226.5,79s86.167,124.667,85.5,216v5c40,51.333,60,110.667,60,178c0,14.667-1,29-3,43  c25.333,44.667,38,92.667,38,144c0,24-3,47-9,69C1519.667,1039.333,1536,1093.667,1536,1153z"/></svg>