<?xml version="1.0" ?><svg contentScriptType="text/ecmascript" contentStyleType="text/css" enable-background="new 0 0 2048 2048" height="2048px" id="Layer_1" preserveAspectRatio="xMidYMid meet" version="1.1" viewBox="53.0 0 1558.0 2048" width="1558.0px" xml:space="preserve" xmlns="http://www.w3.org/2000/svg" xmlns:xlink="http://www.w3.org/1999/xlink" zoomAndPan="magnify"><path d="M1611,1344c0,35.333-12.333,65.333-37,90l-75,75c-25.333,25.333-55.667,38-91,38c-36,0-66-12.667-90-38l-486-485l-486,485  c-24,25.333-54,38-90,38s-66-12.667-90-38l-75-75c-25.333-24-38-54-38-90c0-35.333,12.667-65.667,38-91l651-651  c24.667-24.667,54.667-37,90-37c34.667,0,65,12.333,91,37l650,651C1598.333,1278.333,1611,1308.667,1611,1344z"/></svg>