<?xml version="1.0" ?><svg contentScriptType="text/ecmascript" contentStyleType="text/css" enable-background="new 0 0 2048 2048" height="2048px" id="Layer_1" preserveAspectRatio="xMidYMid meet" version="1.1" viewBox="0.0 0 1535.0 2048" width="1535.0px" xml:space="preserve" xmlns="http://www.w3.org/2000/svg" xmlns:xlink="http://www.w3.org/1999/xlink" zoomAndPan="magnify"><path d="M1407,954c0-29.333-2.333-67.167-7-113.5s-10.667-78.5-18-96.5c-8-20-13.667-34.667-17-44s-6.333-21.5-9-36.5  s-4-31.167-4-48.5c0-15.333,1.667-38.167,5-68.5s5-52.833,5-67.5c0-24.667-3.333-43-10-55c-2.667-0.667-7-1-13-1  c-12.667,0-32,1.5-58,4.5s-45.667,4.5-59,4.5c-40,0-98.667-8-176-24s-135.667-24-175-24c-28.667,0-60.167,3.833-94.5,11.5  s-62.667,15.5-85,23.5s-52.167,19.333-89.5,34c-91.333,36-158.667,70.333-202,103c-64,48.667-117.167,111.833-159.5,189.5  s-71.667,156.333-88,236S128,1144,128,1230c0,26.667,4.167,66.667,12.5,120s12.5,93.667,12.5,121c0,15.333-3.667,37.5-11,66.5  s-11,50.833-11,65.5s4,26.833,12,36.5s19.333,14.5,34,14.5c16,0,40.167-3.667,72.5-11s56.833-11,73.5-11c38,0,94.5,5.167,169.5,15.5  S624,1663,662,1663c120.667,0,215.333-12,284-36c86-30,164.5-80.833,235.5-152.5s126.333-153.5,166-245.5S1407,1045.333,1407,954z   M1535,952c0,110-23.333,219.167-70,327.5s-112,204.333-196,288s-177.667,143.833-281,180.5c-82.667,29.333-191.333,44-326,44  c-38,0-94.667-4.833-170-14.5S360.333,1763,323,1763c-16,0-40.167,4.833-72.5,14.5S193.667,1792,177,1792  c-48.667,0-89.833-18.5-123.5-55.5S3,1656.667,3,1608c0-16,3.667-38.667,11-68s11-51.667,11-67c0-26.667-4.167-66.833-12.5-120.5  S0,1258.333,0,1231c0-74,6-146.5,18-217.5S48.167,872.667,72.5,804S130.333,670.667,173,610c42.667-60.667,92.667-112.667,150-156  c52-39.333,129.333-79.333,232-120c129.333-52,234.667-78,316-78c40,0,98.5,8,175.5,24s134.833,24,173.5,24  c12.667,0,31.667-1.667,57-5s44.667-5,58-5c54,0,93.333,16.833,118,50.5s37,78.5,37,134.5c0,15.333-1.667,38-5,68s-5,52.667-5,68  c0,6.667,0.333,12.833,1,18.5s1.667,11.333,3,17s2.667,10.167,4,13.5s3.5,8.667,6.5,16s5.167,13,6.5,17  c10.667,26.667,19,66.167,25,118.5S1535,913.333,1535,952z"/></svg>