<?xml version="1.0" ?><svg contentScriptType="text/ecmascript" contentStyleType="text/css" enable-background="new 0 0 2048 2048" height="2048px" id="Layer_1" preserveAspectRatio="xMidYMid meet" version="1.1" viewBox="0.0 0 1792.0 2048" width="1792.0px" xml:space="preserve" xmlns="http://www.w3.org/2000/svg" xmlns:xlink="http://www.w3.org/1999/xlink" zoomAndPan="magnify"><path d="M256,1472c0-17.333-6.333-32.333-19-45s-27.667-19-45-19s-32.333,6.333-45,19s-19,27.667-19,45s6.333,32.333,19,45  s27.667,19,45,19s32.333-6.333,45-19S256,1489.333,256,1472z M1664,896c0-34-13-63.833-39-89.5s-55.667-38.5-89-38.5H960  c0-13.333,5-29.5,15-48.5s21-37.333,33-55s23-40.333,33-68s15-55.833,15-84.5c0-44.667-14.833-77.167-44.5-97.5  C981.833,394.167,943.333,384,896,384c-16,0-46,46.333-90,139c-16,29.333-28.333,51-37,65c-26.667,42.667-64,91-112,145  c-47.333,54-81,89.333-101,106c-46,38-92.667,57-140,57h-32v640h32c48,0,103.667,10.667,167,32s127.833,42.667,193.5,64  s125.5,32,179.5,32c126,0,189-55.667,189-167c0-17.333-1.667-36-5-56c20-10.667,35.833-28.167,47.5-52.5s17.5-48.833,17.5-73.5  s-6-47.667-18-69c35.333-33.333,53-73,53-119c0-16.667-3.333-35.167-10-55.5s-15-36.167-25-47.5h331c34.667,0,64.667-12.667,90-38  S1664,930.667,1664,896z M1792,895c0,70-25.167,130.333-75.5,181s-110.5,76-180.5,76h-169c-2.667,41.333-15,81-37,119  c2,14,3,28.333,3,43c0,67.333-20,126.667-60,178c0.667,92.667-27.667,165.833-85,219.5s-133,80.5-227,80.5c-88.667,0-196-23-322-69  c-109.333-39.333-183.667-59-223-59H128c-35.333,0-65.5-12.5-90.5-37.5S0,1571.333,0,1536V896c0-35.333,12.5-65.5,37.5-90.5  S92.667,768,128,768h288c6.667,0,13.833-1.5,21.5-4.5s15.5-7.667,23.5-14s15.5-12.333,22.5-18s15-13.167,24-22.5  s15.833-16.5,20.5-21.5s11-12.167,19-21.5s12.667-15,14-17c43.333-49.333,76.667-92.333,100-129c8.667-14,19.667-34.667,33-62  s25.667-51.333,37-72s24.833-41.667,40.5-63s34-37.833,55-49.5S870.667,256,896,256c83.333,0,152.167,22.333,206.5,67  s81.5,107.667,81.5,189c0,45.333-7.333,88-22,128h374c69.333,0,129.333,25.333,180,76S1792,826.333,1792,895z"/></svg>