<?xml version="1.0" ?><svg contentScriptType="text/ecmascript" contentStyleType="text/css" enable-background="new 0 0 2048 2048" height="2048px" id="Layer_1" preserveAspectRatio="xMidYMid meet" version="1.1" viewBox="0.0 0 1792.0 2048" width="1792.0px" xml:space="preserve" xmlns="http://www.w3.org/2000/svg" xmlns:xlink="http://www.w3.org/1999/xlink" zoomAndPan="magnify"><path d="M1664,724c0-54-7.167-101.667-21.5-143s-32.667-74.167-55-98.5S1538,438.333,1506,423s-63.333-25.667-94-31s-63.333-8-98-8  s-72,8.5-112,25.5s-76.833,38.333-110.5,64s-62.5,49.667-86.5,72s-44,42.833-60,61.5c-12,14.667-28.333,22-49,22s-37-7.333-49-22  c-16-18.667-36-39.167-60-61.5s-52.833-46.333-86.5-72s-70.5-47-110.5-64S512.667,384,478,384s-67.333,2.667-98,8s-62,15.667-94,31  s-59.167,35.167-81.5,59.5s-40.667,57.167-55,98.5S128,670,128,724c0,112,62.333,230.333,187,355l581,560l580-559  C1601.333,954.667,1664,836,1664,724z M1792,724c0,147.333-76.333,297.333-229,450l-623,600c-12,12-26.667,18-44,18s-32-6-44-18  l-624-602c-6.667-5.333-15.833-14-27.5-26s-30.167-33.833-55.5-65.5s-48-64.167-68-97.5s-37.833-73.667-53.5-121S0,768.667,0,724  c0-146.667,42.333-261.333,127-344s201.667-124,351-124c41.333,0,83.5,7.167,126.5,21.5s83,33.667,120,58s68.833,47.167,95.5,68.5  s52,44,76,68c24-24,49.333-46.667,76-68s58.5-44.167,95.5-68.5s77-43.667,120-58S1272.667,256,1314,256  c149.333,0,266.333,41.333,351,124S1792,577.333,1792,724z"/></svg>