<?xml version="1.0" ?><svg contentScriptType="text/ecmascript" contentStyleType="text/css" enable-background="new 0 0 2048 2048" height="2048px" id="Layer_1" preserveAspectRatio="xMidYMid meet" version="1.1" viewBox="0.0 0 1920.0 2048" width="1920.0px" xml:space="preserve" xmlns="http://www.w3.org/2000/svg" xmlns:xlink="http://www.w3.org/1999/xlink" zoomAndPan="magnify"><path d="M1280,1632c0,8.667-3.167,16.167-9.5,22.5s-13.833,9.5-22.5,9.5H288c-5.333,0-9.833-0.667-13.5-2s-6.667-3.667-9-7  s-4.167-6-5.5-8s-2.333-5.833-3-11.5s-1-9.5-1-11.5v-13v-11v-160v-416H64c-17.333,0-32.333-6.333-45-19S0,977.333,0,960  c0-16,5-29.667,15-41l320-384c12.667-14.667,29-22,49-22s36.333,7.333,49,22l320,384c10,11.333,15,25,15,41  c0,17.333-6.333,32.333-19,45s-27.667,19-45,19H512v384h576c10.667,0,19,3.667,25,11l160,192  C1277.667,1618.333,1280,1625.333,1280,1632z M1920,1216c0,16-5,29.667-15,41l-320,384c-13.333,15.333-29.667,23-49,23  s-35.667-7.667-49-23l-320-384c-10-11.333-15-25-15-41c0-17.333,6.333-32.333,19-45s27.667-19,45-19h192V768H832  c-10.667,0-19-4-25-12L647,564c-4.667-6-7-12.667-7-20c0-8.667,3.167-16.167,9.5-22.5s13.833-9.5,22.5-9.5h960  c5.333,0,9.833,0.667,13.5,2s6.667,3.667,9,7s4.167,6,5.5,8s2.333,5.833,3,11.5s1,9.5,1,11.5v13v11v160v416h192  c17.333,0,32.333,6.333,45,19S1920,1198.667,1920,1216z"/></svg>