<?xml version="1.0" ?><svg contentScriptType="text/ecmascript" contentStyleType="text/css" enable-background="new 0 0 2048 2048" height="2048px" id="Layer_1" preserveAspectRatio="xMidYMid meet" version="1.1" viewBox="0.0 0 1664.0 2048" width="1664.0px" xml:space="preserve" xmlns="http://www.w3.org/2000/svg" xmlns:xlink="http://www.w3.org/1999/xlink" zoomAndPan="magnify"><path d="M1280,1600c0-17.333-6.333-32.333-19-45s-27.667-19-45-19s-32.333,6.333-45,19s-19,27.667-19,45s6.333,32.333,19,45  s27.667,19,45,19s32.333-6.333,45-19S1280,1617.333,1280,1600z M1536,1600c0-17.333-6.333-32.333-19-45s-27.667-19-45-19  s-32.333,6.333-45,19s-19,27.667-19,45s6.333,32.333,19,45s27.667,19,45,19s32.333-6.333,45-19S1536,1617.333,1536,1600z M1664,1376  v320c0,26.667-9.333,49.333-28,68s-41.333,28-68,28H96c-26.667,0-49.333-9.333-68-28s-28-41.333-28-68v-320  c0-26.667,9.333-49.333,28-68s41.333-28,68-28h427c14,37.333,37.5,68,70.5,92s69.833,36,110.5,36h256c40.667,0,77.5-12,110.5-36  s56.5-54.667,70.5-92h427c26.667,0,49.333,9.333,68,28S1664,1349.333,1664,1376z M1339,728c-11.333,26.667-31,40-59,40h-256v448  c0,17.333-6.333,32.333-19,45s-27.667,19-45,19H704c-17.333,0-32.333-6.333-45-19s-19-27.667-19-45V768H384  c-28,0-47.667-13.333-59-40c-11.333-26-6.667-49,14-69l448-448c12-12.667,27-19,45-19s33,6.333,45,19l448,448  C1345.667,679,1350.333,702,1339,728z"/></svg>