<?xml version="1.0" ?><svg contentScriptType="text/ecmascript" contentStyleType="text/css" enable-background="new 0 0 2048 2048" height="2048px" id="Layer_1" preserveAspectRatio="xMidYMid meet" version="1.1" viewBox="0.0 0 1024.0 2048" width="1024.0px" xml:space="preserve" xmlns="http://www.w3.org/2000/svg" xmlns:xlink="http://www.w3.org/1999/xlink" zoomAndPan="magnify"><path d="M979,269c12.667-12.667,23.333-17,32-13s13,14.667,13,32v1472c0,17.333-4.333,28-13,32s-19.333-0.333-32-13l-710-710  c-6-6-10.333-12.333-13-19v678c0,17.333-6.333,32.333-19,45s-27.667,19-45,19H64c-17.333,0-32.333-6.333-45-19s-19-27.667-19-45V320  c0-17.333,6.333-32.333,19-45s27.667-19,45-19h128c17.333,0,32.333,6.333,45,19s19,27.667,19,45v678c2.667-7.333,7-13.667,13-19  L979,269z"/></svg>