<?xml version="1.0" ?><svg contentScriptType="text/ecmascript" contentStyleType="text/css" enable-background="new 0 0 2048 2048" height="2048px" id="Layer_1" preserveAspectRatio="xMidYMid meet" version="1.1" viewBox="0.0 0 1536.0 2048" width="1536.0px" xml:space="preserve" xmlns="http://www.w3.org/2000/svg" xmlns:xlink="http://www.w3.org/1999/xlink" zoomAndPan="magnify"><path d="M755,1184c0,8.667-3.333,16.333-10,23l-332,332l144,144c12.667,12.667,19,27.667,19,45s-6.333,32.333-19,45  s-27.667,19-45,19H64c-17.333,0-32.333-6.333-45-19s-19-27.667-19-45v-448c0-17.333,6.333-32.333,19-45s27.667-19,45-19  s32.333,6.333,45,19l144,144l332-332c6.667-6.667,14.333-10,23-10s16.333,3.333,23,10l114,114  C751.667,1167.667,755,1175.333,755,1184z M1536,320v448c0,17.333-6.333,32.333-19,45s-27.667,19-45,19s-32.333-6.333-45-19  l-144-144l-332,332c-6.667,6.667-14.333,10-23,10s-16.333-3.333-23-10L791,887c-6.667-6.667-10-14.333-10-23s3.333-16.333,10-23  l332-332L979,365c-12.667-12.667-19-27.667-19-45s6.333-32.333,19-45s27.667-19,45-19h448c17.333,0,32.333,6.333,45,19  S1536,302.667,1536,320z"/></svg>