<?xml version="1.0" ?><svg contentScriptType="text/ecmascript" contentStyleType="text/css" enable-background="new 0 0 2048 2048" height="2048px" id="Layer_1" preserveAspectRatio="xMidYMid meet" version="1.1" viewBox="0.0 0 1536.0 2048" width="1536.0px" xml:space="preserve" xmlns="http://www.w3.org/2000/svg" xmlns:xlink="http://www.w3.org/1999/xlink" zoomAndPan="magnify"><path d="M1197,1152h-109c-17.333,0-32.333-6.333-45-19s-19-27.667-19-45V960c0-17.333,6.333-32.333,19-45s27.667-19,45-19h109  c-21.333-72-58.833-134.833-112.5-188.5S968,616.333,896,595v109c0,17.333-6.333,32.333-19,45s-27.667,19-45,19H704  c-17.333,0-32.333-6.333-45-19s-19-27.667-19-45V595c-72,21.333-134.833,58.833-188.5,112.5S360.333,824,339,896h109  c17.333,0,32.333,6.333,45,19s19,27.667,19,45v128c0,17.333-6.333,32.333-19,45s-27.667,19-45,19H339  c21.333,72,58.833,134.833,112.5,188.5S568,1431.667,640,1453v-109c0-17.333,6.333-32.333,19-45s27.667-19,45-19h128  c17.333,0,32.333,6.333,45,19s19,27.667,19,45v109c72-21.333,134.833-58.833,188.5-112.5S1175.667,1224,1197,1152z M1536,960v128  c0,17.333-6.333,32.333-19,45s-27.667,19-45,19h-143c-24.667,107.333-76.167,200.167-154.5,278.5S1003.333,1560.333,896,1585v143  c0,17.333-6.333,32.333-19,45s-27.667,19-45,19H704c-17.333,0-32.333-6.333-45-19s-19-27.667-19-45v-143  c-107.333-24.667-200.167-76.167-278.5-154.5S231.667,1259.333,207,1152H64c-17.333,0-32.333-6.333-45-19s-19-27.667-19-45V960  c0-17.333,6.333-32.333,19-45s27.667-19,45-19h143c24.667-107.333,76.167-200.167,154.5-278.5S532.667,487.667,640,463V320  c0-17.333,6.333-32.333,19-45s27.667-19,45-19h128c17.333,0,32.333,6.333,45,19s19,27.667,19,45v143  c107.333,24.667,200.167,76.167,278.5,154.5S1304.333,788.667,1329,896h143c17.333,0,32.333,6.333,45,19S1536,942.667,1536,960z"/></svg>