<?xml version="1.0" ?><svg contentScriptType="text/ecmascript" contentStyleType="text/css" enable-background="new 0 0 2048 2048" height="2048px" id="Layer_1" preserveAspectRatio="xMidYMid meet" version="1.1" viewBox="-0.6669999957084656 0 1410.0 2048" width="1410.0px" xml:space="preserve" xmlns="http://www.w3.org/2000/svg" xmlns:xlink="http://www.w3.org/1999/xlink" zoomAndPan="magnify"><path d="M1376,288c29.333,34.667,33.333,84,12,148s-57.333,121.333-108,172l-161,161l160,696c3.333,12.667-0.667,23.667-12,33  l-128,96c-4.667,4-11,6-19,6c-2.667,0-5-0.333-7-1c-10-2-17-7.333-21-16l-279-508l-259,259l53,194c3.333,11.333,0.667,21.667-8,31  l-96,96c-6,6-13.667,9-23,9h-2c-10-1.333-18-5.667-24-13l-189-252L13,1210c-7.333-4.667-11.667-12.333-13-23  c-0.667-8.667,2.333-17,9-25l96-97c6-6,13.667-9,23-9c4,0,6.667,0.333,8,1l194,53l259-259L81,572c-9.333-5.333-15-13.333-17-24  c-1.333-10.667,1.667-19.667,9-27l128-128c9.333-8.667,19.333-11.333,30-8l665,159l160-160c50.667-50.667,108-86.667,172-108  S1341.333,258.667,1376,288z"/></svg>