<?xml version="1.0" ?><svg contentScriptType="text/ecmascript" contentStyleType="text/css" enable-background="new 0 0 2048 2048" height="2048px" id="Layer_1" preserveAspectRatio="xMidYMid meet" version="1.1" viewBox="0.0 0 1792.0 2048" width="1792.0px" xml:space="preserve" xmlns="http://www.w3.org/2000/svg" xmlns:xlink="http://www.w3.org/1999/xlink" zoomAndPan="magnify"><path d="M928,960c0-9.333-3-17-9-23s-13.667-9-23-9c-44,0-81.667,15.667-113,47s-47,69-47,113c0,9.333,3,17,9,23s13.667,9,23,9  s17-3,23-9s9-13.667,9-23c0-26.667,9.333-49.333,28-68c18.667-18.667,41.333-28,68-28c9.333,0,17-3,23-9S928,969.333,928,960z   M1152,1090c0,70.667-25,131-75,181s-110.333,75-181,75s-131-25-181-75s-75-110.333-75-181s25-131,75-181s110.333-75,181-75  s131,25,181,75S1152,1019.333,1152,1090z M128,1664h1536v-128H128V1664z M1280,1090c0-106-37.5-196.5-112.5-271.5S1002,706,896,706  s-196.5,37.5-271.5,112.5S512,984,512,1090s37.5,196.5,112.5,271.5S790,1474,896,1474s196.5-37.5,271.5-112.5S1280,1196,1280,1090z   M256,448h384V320H256V448z M128,640h1536V522V384H836l-64,128H128V640z M1792,384v1280c0,35.333-12.5,65.5-37.5,90.5  s-55.167,37.5-90.5,37.5H128c-35.333,0-65.5-12.5-90.5-37.5S0,1699.333,0,1664V384c0-35.333,12.5-65.5,37.5-90.5S92.667,256,128,256  h1536c35.333,0,65.5,12.5,90.5,37.5S1792,348.667,1792,384z"/></svg>