<?xml version="1.0" ?><svg contentScriptType="text/ecmascript" contentStyleType="text/css" enable-background="new 0 0 2048 2048" height="2048px" id="Layer_1" preserveAspectRatio="xMidYMid meet" version="1.1" viewBox="0.0 0 1920.0 2048" width="1920.0px" xml:space="preserve" xmlns="http://www.w3.org/2000/svg" xmlns:xlink="http://www.w3.org/1999/xlink" zoomAndPan="magnify"><path d="M1760,256c44,0,81.667,15.667,113,47s47,69,47,113v1216c0,44-15.667,81.667-47,113s-69,47-113,47H160  c-44,0-81.667-15.667-113-47s-47-69-47-113V416c0-44,15.667-81.667,47-113s69-47,113-47H1760z M160,384  c-8.667,0-16.167,3.167-22.5,9.5S128,407.333,128,416v224h1664V416c0-8.667-3.167-16.167-9.5-22.5s-13.833-9.5-22.5-9.5H160z   M1760,1664c8.667,0,16.167-3.167,22.5-9.5s9.5-13.833,9.5-22.5v-608H128v608c0,8.667,3.167,16.167,9.5,22.5s13.833,9.5,22.5,9.5  H1760z M256,1536v-128h256v128H256z M640,1536v-128h384v128H640z"/></svg>