<?xml version="1.0" ?><svg contentScriptType="text/ecmascript" contentStyleType="text/css" enable-background="new 0 0 2048 2048" height="2048px" id="Layer_1" preserveAspectRatio="xMidYMid meet" version="1.1" viewBox="0.0 0 1664.0 2048" width="1664.0px" xml:space="preserve" xmlns="http://www.w3.org/2000/svg" xmlns:xlink="http://www.w3.org/1999/xlink" zoomAndPan="magnify"><path d="M1664,704v256c0,17.333-6.333,32.333-19,45s-27.667,19-45,19h-64c-17.333,0-32.333-6.333-45-19s-19-27.667-19-45V704  c0-70.667-25-131-75-181s-110.333-75-181-75s-131,25-181,75s-75,110.333-75,181v192h96c26.667,0,49.333,9.333,68,28s28,41.333,28,68  v576c0,26.667-9.333,49.333-28,68s-41.333,28-68,28H96c-26.667,0-49.333-9.333-68-28s-28-41.333-28-68V992  c0-26.667,9.333-49.333,28-68s41.333-28,68-28h672V704c0-123.333,43.833-228.833,131.5-316.5S1092.667,256,1216,256  s228.833,43.833,316.5,131.5S1664,580.667,1664,704z"/></svg>