<?xml version="1.0" ?><svg contentScriptType="text/ecmascript" contentStyleType="text/css" enable-background="new 0 0 2048 2048" height="2048px" id="Layer_1" preserveAspectRatio="xMidYMid meet" version="1.1" viewBox="0.0 0 1536.0 2048" width="1536.0px" xml:space="preserve" xmlns="http://www.w3.org/2000/svg" xmlns:xlink="http://www.w3.org/1999/xlink" zoomAndPan="magnify"><path d="M928,1484v-56V960V768H608v192v468v56c0,16.667,6,29.5,18,38.5s27.333,13.5,46,13.5h192c18.667,0,34-4.5,46-13.5  S928,1500.667,928,1484z M472,640h195L541,479c-17.333-20.667-40.333-31-69-31c-26.667,0-49.333,9.333-68,28s-28,41.333-28,68  s9.333,49.333,28,68S445.333,640,472,640z M1160,544c0-26.667-9.333-49.333-28-68s-41.333-28-68-28c-28.667,0-51.667,10.333-69,31  L870,640h194c26.667,0,49.333-9.333,68-28S1160,570.667,1160,544z M1536,800v320c0,9.333-3,17-9,23s-13.667,9-23,9h-96v416  c0,26.667-9.333,49.333-28,68s-41.333,28-68,28H224c-26.667,0-49.333-9.333-68-28s-28-41.333-28-68v-416H32c-9.333,0-17-3-23-9  s-9-13.667-9-23V800c0-9.333,3-17,9-23s13.667-9,23-9h440c-62,0-114.833-21.833-158.5-65.5S248,606,248,544  s21.833-114.833,65.5-158.5S410,320,472,320c71.333,0,127.333,25.667,168,77l128,165l128-165c40.667-51.333,96.667-77,168-77  c62,0,114.833,21.833,158.5,65.5S1288,482,1288,544s-21.833,114.833-65.5,158.5S1126,768,1064,768h440c9.333,0,17,3,23,9  S1536,790.667,1536,800z"/></svg>