<?xml version="1.0" ?><svg contentScriptType="text/ecmascript" contentStyleType="text/css" enable-background="new 0 0 2048 2048" height="2048px" id="Layer_1" preserveAspectRatio="xMidYMid meet" version="1.1" viewBox="0.0 0 1472.0 2048" width="1472.0px" xml:space="preserve" xmlns="http://www.w3.org/2000/svg" xmlns:xlink="http://www.w3.org/1999/xlink" zoomAndPan="magnify"><path d="M1472,1088c0,36-12.333,66.333-37,91l-651,651c-26,24.667-56.333,37-91,37c-34,0-64-12.333-90-37l-75-75  c-25.333-25.333-38-55.667-38-91s12.667-65.667,38-91l293-293H117c-34.667,0-62.833-12.5-84.5-37.5S0,1187.333,0,1152v-128  c0-35.333,10.833-65.5,32.5-90.5S82.333,896,117,896h704L528,602c-25.333-24-38-54-38-90s12.667-66,38-90l75-75  c25.333-25.333,55.333-38,90-38c35.333,0,65.667,12.667,91,38l651,651C1459.667,1021.333,1472,1051.333,1472,1088z"/></svg>