<?xml version="1.0" ?><svg contentScriptType="text/ecmascript" contentStyleType="text/css" enable-background="new 0 0 2048 2048" height="2048px" id="Layer_1" preserveAspectRatio="xMidYMid meet" version="1.1" viewBox="-3.0 0 1544.0 2048" width="1544.0px" xml:space="preserve" xmlns="http://www.w3.org/2000/svg" xmlns:xlink="http://www.w3.org/1999/xlink" zoomAndPan="magnify"><path d="M14,1107l710-710c12.667-12.667,27.667-19,45-19s32.333,6.333,45,19l710,710c12.667,12.667,17,23.333,13,32  s-14.667,13-32,13H33c-17.333,0-28-4.333-32-13S1.333,1119.667,14,1107z M1473,1664H65c-17.333,0-32.333-6.333-45-19  s-19-27.667-19-45v-256c0-17.333,6.333-32.333,19-45s27.667-19,45-19h1408c17.333,0,32.333,6.333,45,19s19,27.667,19,45v256  c0,17.333-6.333,32.333-19,45S1490.333,1664,1473,1664z"/></svg>