<?xml version="1.0" ?><svg contentScriptType="text/ecmascript" contentStyleType="text/css" enable-background="new 0 0 2048 2048" height="2048px" id="Layer_1" preserveAspectRatio="xMidYMid meet" version="1.1" viewBox="0.0 0 1536.0 2048" width="1536.0px" xml:space="preserve" xmlns="http://www.w3.org/2000/svg" xmlns:xlink="http://www.w3.org/1999/xlink" zoomAndPan="magnify"><path d="M1408,1088c0-56-10.667-117-32-183s-42.667-130.667-64-194s-32-119-32-167v-32H640v32c0,23.333-4,45.833-12,67.5  S607.667,654,591,674s-32,36.667-46,50s-32,29.667-54,49c-6,5.333-10.667,9.333-14,12c-54,48-102.333,85.333-145,112  c-14.667,9.333-37.333,22-68,38c-2,0.667-9.5,4.167-22.5,10.5s-25,12.5-36,18.5s-22.833,12.667-35.5,20s-22.833,14.5-30.5,21.5  S128,1018.667,128,1024c0,47.333,10.167,85.833,30.5,115.5c20.333,29.667,52.833,44.5,97.5,44.5c28.667,0,56.833-5,84.5-15  s50.333-21,68-33s36-23,55-33s35.167-15,48.5-15v576c0,33.333,12.833,63,38.5,89s55.5,39,89.5,39c34.667,0,64.667-12.667,90-38  s38-55.333,38-90v-331c30.667,23.333,65,35,103,35c46,0,85.667-17.667,119-53c21.333,12,44.333,18,69,18s49.167-5.833,73.5-17.5  s41.833-27.5,52.5-47.5c16,2.667,34.667,4,56,4c56.667,0,98.667-16.167,126-48.5S1408,1146,1408,1088z M1280,320  c0-17.333-6.333-32.333-19-45s-27.667-19-45-19s-32.333,6.333-45,19s-19,27.667-19,45s6.333,32.333,19,45s27.667,19,45,19  s32.333-6.333,45-19S1280,337.333,1280,320z M1536,1084c0,94.667-25.833,171.333-77.5,230s-124.167,87.667-217.5,87l-5-1  c-50.667,40.667-110,61-178,61c-14.667,0-29-1-43-3c-36,20-75.667,32.333-119,37v169c0,70-25.333,130.167-76,180.5  S709,1920,639,1920c-68.667,0-128.333-25.333-179-76s-76-110.667-76-180v-374c-36,14.667-78.667,22-128,22  c-80.667,0-143.5-27.167-188.5-81.5S0,1107.333,0,1024c0-25.333,5.833-48.5,17.5-69.5s28.167-39.333,49.5-55s42.333-29.167,63-40.5  s44.667-23.667,72-37s48-24.333,62-33c36.667-23.333,79.667-56.667,129-100c2-1.333,7.667-6,17-14s16.5-14.333,21.5-19  s12.167-11.5,21.5-20.5s16.833-17,22.5-24s11.667-14.5,18-22.5s11-15.833,14-23.5s4.5-14.833,4.5-21.5V256  c0-35.333,12.5-65.5,37.5-90.5S604.667,128,640,128h640c35.333,0,65.5,12.5,90.5,37.5s37.5,55.167,37.5,90.5v288  c0,39.333,19.667,113.667,59,223C1513,893.667,1536,999.333,1536,1084z"/></svg>