<?xml version="1.0" ?><svg contentScriptType="text/ecmascript" contentStyleType="text/css" enable-background="new 0 0 2048 2048" height="2048px" id="Layer_1" preserveAspectRatio="xMidYMid meet" version="1.1" viewBox="0.0 0 1792.0 2048" width="1792.0px" xml:space="preserve" xmlns="http://www.w3.org/2000/svg" xmlns:xlink="http://www.w3.org/1999/xlink" zoomAndPan="magnify"><path d="M1792,1024c0,116-40,223.167-120,321.5s-188.667,176-326,233s-287.333,85.5-450,85.5c-46.667,0-95-2.667-145-8  c-132,116.667-285.333,197.333-460,242c-32.667,9.333-70.667,16.667-114,22c-11.333,1.333-21.5-1.667-30.5-9s-14.833-17-17.5-29v-1  c-2-2.667-2.167-6.667-0.5-12c1.667-5.333,2.333-8.667,2-10s1.167-4.5,4.5-9.5l6-9c0,0,2.333-2.833,7-8.5s7.333-8.667,8-9  c4.667-5.333,15-16.833,31-34.5s27.5-30.333,34.5-38s17.333-20.833,31-39.5c13.667-18.667,24.5-35.667,32.5-51s17-35,27-59  s18.667-49.333,26-76c-104.667-59.333-187.167-132.667-247.5-220S0,1124,0,1024c0-86.667,23.667-169.5,71-248.5S182,628.333,262,571  s175.333-102.833,286-136.5S774.667,384,896,384c162.667,0,312.667,28.5,450,85.5s246,134.667,326,233S1792,908,1792,1024z"/></svg>