<?xml version="1.0" ?><svg contentScriptType="text/ecmascript" contentStyleType="text/css" enable-background="new 0 0 2048 2048" height="2048px" id="Layer_1" preserveAspectRatio="xMidYMid meet" version="1.1" viewBox="0.0 0 1792.0 2048" width="1792.0px" xml:space="preserve" xmlns="http://www.w3.org/2000/svg" xmlns:xlink="http://www.w3.org/1999/xlink" zoomAndPan="magnify"><path d="M1280,832c0-17.333-6.333-32.333-19-45s-27.667-19-45-19c-114.667,0-220.667,16.5-318,49.5s-183.833,77.667-259.5,134  S484.333,1081,403,1171c-12.667,14-19,29-19,45c0,17.333,6.333,32.333,19,45s27.667,19,45,19c16,0,31-6.333,45-19  c18-16,42.667-39.667,74-71s53.667-53.333,67-66c91.333-82.667,180.833-141.333,268.5-176s192.167-52,313.5-52  c17.333,0,32.333-6.333,45-19S1280,849.333,1280,832z M1792,634c0,63.333-6.667,127.667-20,193  c-30.667,149.333-92.167,277-184.5,383S1376,1405.333,1230,1478c-142.667,72-288.667,108-438,108c-98.667,0-194-15.667-286-47  c-10-3.333-39.333-17.333-88-42s-80.667-37-96-37c-10.667,0-23.833,10.667-39.5,32s-30.667,44.667-45,70s-31.833,48.667-52.5,70  s-40.667,32-60,32c-20,0-37-3.667-51-11s-24.333-15.333-31-24s-15.667-22.667-27-42c-1.333-2.667-3.333-6.333-6-11s-4.5-8-5.5-10  s-2-5.167-3-9.5S0,1547.667,0,1543c0-23.333,10.333-47.833,31-73.5s43.333-47.5,68-65.5s47.333-36.667,68-56s31-35.333,31-48  c0-2.667-4.667-15.333-14-38s-14.667-37.333-16-44c-6-34-9-68.667-9-104c0-76.667,14.5-150,43.5-220s68.667-131.5,119-184.5  s107.167-99.333,170.5-139S623.333,499,696,475c36.667-12,85-20.5,145-25.5s119.833-8,179.5-9c59.667-1,119.167-3,178.5-6  s113.833-11,163.5-24S1450,378.667,1476,354l29.5-29.5c0,0,9.833-9.333,29.5-28s28.667-25.333,27-20s10.5,0,36.5-16  S1639,243,1642,256c26,0,49.5,15.333,70.5,46s36.833,68,47.5,112s18.667,85.333,24,124S1792,608.667,1792,634z"/></svg>