<?xml version="1.0" ?><svg contentScriptType="text/ecmascript" contentStyleType="text/css" enable-background="new 0 0 2048 2048" height="2048px" id="Layer_1" preserveAspectRatio="xMidYMid meet" version="1.1" viewBox="0.0 0 1792.0 2048" width="1792.0px" xml:space="preserve" xmlns="http://www.w3.org/2000/svg" xmlns:xlink="http://www.w3.org/1999/xlink" zoomAndPan="magnify"><path d="M1024,1536h640v-128h-640V1536z M640,1024h1024V896H640V1024z M1280,512h384V384h-384V512z M1792,1344v256  c0,17.333-6.333,32.333-19,45s-27.667,19-45,19H64c-17.333,0-32.333-6.333-45-19s-19-27.667-19-45v-256c0-17.333,6.333-32.333,19-45  s27.667-19,45-19h1664c17.333,0,32.333,6.333,45,19S1792,1326.667,1792,1344z M1792,832v256c0,17.333-6.333,32.333-19,45  s-27.667,19-45,19H64c-17.333,0-32.333-6.333-45-19s-19-27.667-19-45V832c0-17.333,6.333-32.333,19-45s27.667-19,45-19h1664  c17.333,0,32.333,6.333,45,19S1792,814.667,1792,832z M1792,320v256c0,17.333-6.333,32.333-19,45s-27.667,19-45,19H64  c-17.333,0-32.333-6.333-45-19S0,593.333,0,576V320c0-17.333,6.333-32.333,19-45s27.667-19,45-19h1664c17.333,0,32.333,6.333,45,19  S1792,302.667,1792,320z"/></svg>