<?xml version="1.0" ?><svg contentScriptType="text/ecmascript" contentStyleType="text/css" enable-background="new 0 0 2048 2048" height="2048px" id="Layer_1" preserveAspectRatio="xMidYMid meet" version="1.1" viewBox="0.0 0 1536.0 2048" width="1536.0px" xml:space="preserve" xmlns="http://www.w3.org/2000/svg" xmlns:xlink="http://www.w3.org/1999/xlink" zoomAndPan="magnify"><path d="M1284,1023c0-18-6-33-18-45L904,616l-91-91c-12-12-27-18-45-18s-33,6-45,18l-91,91L270,978c-12,12-18,27-18,45s6,33,18,45  l91,91c12,12,27,18,45,18s33-6,45-18l189-189v502c0,17.333,6.333,32.333,19,45s27.667,19,45,19h128c17.333,0,32.333-6.333,45-19  s19-27.667,19-45V970l189,189c12.667,12.667,27.667,19,45,19s32.333-6.333,45-19l91-91C1278,1056,1284,1041,1284,1023z M1536,1024  c0,139.333-34.333,267.833-103,385.5s-161.833,210.833-279.5,279.5S907.333,1792,768,1792s-267.833-34.333-385.5-103  S171.667,1527.167,103,1409.5S0,1163.333,0,1024s34.333-267.833,103-385.5S264.833,427.667,382.5,359S628.667,256,768,256  s267.833,34.333,385.5,103s210.833,161.833,279.5,279.5S1536,884.667,1536,1024z"/></svg>