<?xml version="1.0" ?><svg contentScriptType="text/ecmascript" contentStyleType="text/css" enable-background="new 0 0 2048 2048" height="2048px" id="Layer_1" preserveAspectRatio="xMidYMid meet" version="1.1" viewBox="0.0 0 1920.0 2048" width="1920.0px" xml:space="preserve" xmlns="http://www.w3.org/2000/svg" xmlns:xlink="http://www.w3.org/1999/xlink" zoomAndPan="magnify"><path d="M512,1152v384H256v-384H512z M896,640v896H640V640H896z M1280,896v640h-256V896H1280z M1664,512v1024h-256V512H1664z   M1792,1632V416c0-8.667-3.167-16.167-9.5-22.5s-13.833-9.5-22.5-9.5H160c-8.667,0-16.167,3.167-22.5,9.5S128,407.333,128,416v1216  c0,8.667,3.167,16.167,9.5,22.5s13.833,9.5,22.5,9.5h1600c8.667,0,16.167-3.167,22.5-9.5S1792,1640.667,1792,1632z M1920,416v1216  c0,44-15.667,81.667-47,113s-69,47-113,47H160c-44,0-81.667-15.667-113-47s-47-69-47-113V416c0-44,15.667-81.667,47-113  s69-47,113-47h1600c44,0,81.667,15.667,113,47S1920,372,1920,416z"/></svg>