<?xml version="1.0" ?><svg contentScriptType="text/ecmascript" contentStyleType="text/css" enable-background="new 0 0 2048 2048" height="2048px" id="Layer_1" preserveAspectRatio="xMidYMid meet" version="1.1" viewBox="0.0 0 1408.0 2048" width="1408.0px" xml:space="preserve" xmlns="http://www.w3.org/2000/svg" xmlns:xlink="http://www.w3.org/1999/xlink" zoomAndPan="magnify"><path d="M1408,1824v64c0,8.667-3.167,16.167-9.5,22.5s-13.833,9.5-22.5,9.5H32c-8.667,0-16.167-3.167-22.5-9.5S0,1896.667,0,1888  v-64c0-8.667,3.167-16.167,9.5-22.5s13.833-9.5,22.5-9.5h1344c8.667,0,16.167,3.167,22.5,9.5S1408,1815.333,1408,1824z M1152,768  c0,52-8.167,100-24.5,144s-37.667,81.5-64,112.5s-55.5,60.333-87.5,88s-64,53.5-96,77.5s-61.167,48-87.5,72s-47.667,51.167-64,81.5  S704,1406,704,1440c0,64,22.333,138.667,67,224l-4-1l1,1c-60-27.333-113.333-55-160-83s-92.833-61.333-138.5-100  S386,1401.5,356,1358.5s-54.167-93.167-72.5-150.5c-18.333-57.333-27.5-118.667-27.5-184c0-52,8.167-100,24.5-144  s37.667-81.5,64-112.5s55.5-60.333,87.5-88s64-53.5,96-77.5s61.167-48,87.5-72s47.667-51.167,64-81.5S704,386,704,352  c0-62.667-22-137.333-66-224l3,1l-1-1c60,27.333,113.333,55,160,83s92.833,61.333,138.5,100s83.5,79.5,113.5,122.5  s54.167,93.167,72.5,150.5C1142.833,641.333,1152,702.667,1152,768z"/></svg>