<?xml version="1.0" ?><svg contentScriptType="text/ecmascript" contentStyleType="text/css" enable-background="new 0 0 2048 2048" height="2048px" id="Layer_1" preserveAspectRatio="xMidYMid meet" version="1.1" viewBox="113.5 0 1437.0 2048" width="1437.0px" xml:space="preserve" xmlns="http://www.w3.org/2000/svg" xmlns:xlink="http://www.w3.org/1999/xlink" zoomAndPan="magnify"><path d="M1482,1178c30.667,17.333,50.5,43.167,59.5,77.5s4.833,66.833-12.5,97.5l-64,110c-17.333,30.667-43.167,50.5-77.5,59.5  s-66.833,4.833-97.5-12.5l-266-153v307c0,34.667-12.667,64.667-38,90s-55.333,38-90,38H768c-34.667,0-64.667-12.667-90-38  s-38-55.333-38-90v-307l-266,153c-30.667,17.333-63.167,21.5-97.5,12.5s-60.167-28.833-77.5-59.5l-64-110  c-17.333-30.667-21.5-63.167-12.5-97.5s28.833-60.167,59.5-77.5l266-154L182,870c-30.667-17.333-50.5-43.167-59.5-77.5  s-4.833-66.833,12.5-97.5l64-110c17.333-30.667,43.167-50.5,77.5-59.5s66.833-4.833,97.5,12.5l266,153V384  c0-34.667,12.667-64.667,38-90s55.333-38,90-38h128c34.667,0,64.667,12.667,90,38s38,55.333,38,90v307l266-153  c30.667-17.333,63.167-21.5,97.5-12.5s60.167,28.833,77.5,59.5l64,110c17.333,30.667,21.5,63.167,12.5,97.5  s-28.833,60.167-59.5,77.5l-266,154L1482,1178z"/></svg>