<?xml version="1.0" ?><svg contentScriptType="text/ecmascript" contentStyleType="text/css" enable-background="new 0 0 2048 2048" height="2048px" id="Layer_1" preserveAspectRatio="xMidYMid meet" version="1.1" viewBox="64.0 0 640.0 2048" width="640.0px" xml:space="preserve" xmlns="http://www.w3.org/2000/svg" xmlns:xlink="http://www.w3.org/1999/xlink" zoomAndPan="magnify"><path d="M704,448c0,17.333-6.333,32.333-19,45s-27.667,19-45,19H512v1024h128c17.333,0,32.333,6.333,45,19s19,27.667,19,45  s-6.333,32.333-19,45l-256,256c-12.667,12.667-27.667,19-45,19s-32.333-6.333-45-19L83,1645c-12.667-12.667-19-27.667-19-45  s6.333-32.333,19-45s27.667-19,45-19h128V512H128c-17.333,0-32.333-6.333-45-19s-19-27.667-19-45s6.333-32.333,19-45l256-256  c12.667-12.667,27.667-19,45-19s32.333,6.333,45,19l256,256C697.667,415.667,704,430.667,704,448z"/></svg>