<?xml version="1.0" ?><svg contentScriptType="text/ecmascript" contentStyleType="text/css" enable-background="new 0 0 2048 2048" height="2048px" id="Layer_1" preserveAspectRatio="xMidYMid meet" version="1.1" viewBox="0.0 0 1536.0 2048" width="1536.0px" xml:space="preserve" xmlns="http://www.w3.org/2000/svg" xmlns:xlink="http://www.w3.org/1999/xlink" zoomAndPan="magnify"><path d="M1184,1024c0,17.333-6.333,32.333-19,45l-544,544c-12.667,12.667-27.667,19-45,19s-32.333-6.333-45-19s-19-27.667-19-45  v-288H64c-17.333,0-32.333-6.333-45-19s-19-27.667-19-45V832c0-17.333,6.333-32.333,19-45s27.667-19,45-19h448V480  c0-17.333,6.333-32.333,19-45s27.667-19,45-19s32.333,6.333,45,19l544,544C1177.667,991.667,1184,1006.667,1184,1024z M1536,672v704  c0,79.333-28.167,147.167-84.5,203.5S1327.333,1664,1248,1664H928c-8.667,0-16.167-3.167-22.5-9.5s-9.5-13.833-9.5-22.5  c0-2.667-0.333-9.333-1-20s-0.833-19.5-0.5-26.5s1.333-14.833,3-23.5s5-15.167,10-19.5s11.833-6.5,20.5-6.5h320  c44,0,81.667-15.667,113-47s47-69,47-113V672c0-44-15.667-81.667-47-113s-69-47-113-47H960h-11h-13c0,0-3.833-0.333-11.5-1  s-11.5-1.667-11.5-3s-2.667-3.167-8-5.5s-7.667-5.333-7-9s0-8.167-2-13.5c0-2.667-0.333-9.333-1-20s-0.833-19.5-0.5-26.5  s1.333-14.833,3-23.5s5-15.167,10-19.5s11.833-6.5,20.5-6.5h320c79.333,0,147.167,28.167,203.5,84.5S1536,592.667,1536,672z"/></svg>