<?xml version="1.0" ?><svg contentScriptType="text/ecmascript" contentStyleType="text/css" enable-background="new 0 0 2048 2048" height="2048px" id="Layer_1" preserveAspectRatio="xMidYMid meet" version="1.1" viewBox="0.0 0 1536.0 2048" width="1536.0px" xml:space="preserve" xmlns="http://www.w3.org/2000/svg" xmlns:xlink="http://www.w3.org/1999/xlink" zoomAndPan="magnify"><path d="M1040,1344c0,22-7.833,40.833-23.5,56.5c-15.667,15.667-34.5,23.5-56.5,23.5s-40.833-7.833-56.5-23.5S880,1366,880,1344  s7.833-40.833,23.5-56.5S938,1264,960,1264s40.833,7.833,56.5,23.5C1032.167,1303.167,1040,1322,1040,1344z M1296,1344  c0,22-7.833,40.833-23.5,56.5S1238,1424,1216,1424s-40.833-7.833-56.5-23.5S1136,1366,1136,1344s7.833-40.833,23.5-56.5  s34.5-23.5,56.5-23.5s40.833,7.833,56.5,23.5S1296,1322,1296,1344z M1408,1504v-320c0-8.667-3.167-16.167-9.5-22.5  s-13.833-9.5-22.5-9.5H160c-8.667,0-16.167,3.167-22.5,9.5s-9.5,13.833-9.5,22.5v320c0,8.667,3.167,16.167,9.5,22.5  s13.833,9.5,22.5,9.5h1216c8.667,0,16.167-3.167,22.5-9.5S1408,1512.667,1408,1504z M178,1024h1180l-157-482  c-2.667-8.667-8-15.833-16-21.5s-16.667-8.5-26-8.5H377c-9.333,0-18,2.833-26,8.5s-13.333,12.833-16,21.5L178,1024z M1536,1184v320  c0,44-15.667,81.667-47,113s-69,47-113,47H160c-44,0-81.667-15.667-113-47s-47-69-47-113v-320c0-16.667,5.333-41.667,16-75l197-606  c11.333-35.333,32.333-64,63-86s64.333-33,101-33h782c36.667,0,70.333,11,101,33s51.667,50.667,63,86l197,606  C1530.667,1142.333,1536,1167.333,1536,1184z"/></svg>