<?xml version="1.0" ?><svg contentScriptType="text/ecmascript" contentStyleType="text/css" enable-background="new 0 0 2048 2048" height="2048px" id="Layer_1" preserveAspectRatio="xMidYMid meet" version="1.1" viewBox="-6.333000183105469 0 1420.666015625 2048" width="1420.666015625px" xml:space="preserve" xmlns="http://www.w3.org/2000/svg" xmlns:xlink="http://www.w3.org/1999/xlink" zoomAndPan="magnify"><path d="M1403,423c11.333,27.333,6.667,50.667-14,70L896,986v742c0,28-13,47.667-39,59c-8.667,3.333-17,5-25,5c-18,0-33-6.333-45-19  l-256-256c-12.667-12.667-19-27.667-19-45V986L19,493c-20.667-19.333-25.333-42.667-14-70c11.333-26,31-39,59-39h1280  C1372,384,1391.667,397,1403,423z"/></svg>