<?xml version="1.0" ?><svg contentScriptType="text/ecmascript" contentStyleType="text/css" enable-background="new 0 0 2048 2048" height="2048px" id="Layer_1" preserveAspectRatio="xMidYMid meet" version="1.1" viewBox="0.0 0 1536.0 2048" width="1536.0px" xml:space="preserve" xmlns="http://www.w3.org/2000/svg" xmlns:xlink="http://www.w3.org/1999/xlink" zoomAndPan="magnify"><path d="M1280,1088V960c0-17.333-6.333-32.333-19-45s-27.667-19-45-19H714l189-189c12.667-12.667,19-27.667,19-45  s-6.333-32.333-19-45l-91-91c-12-12-27-18-45-18s-33,6-45,18L360,888l-91,91c-12,12-18,27-18,45s6,33,18,45l91,91l362,362  c12,12,27,18,45,18s33-6,45-18l91-91c12-12,18-27,18-45s-6-33-18-45l-189-189h502c17.333,0,32.333-6.333,45-19  S1280,1105.333,1280,1088z M1536,1024c0,139.333-34.333,267.833-103,385.5s-161.833,210.833-279.5,279.5S907.333,1792,768,1792  s-267.833-34.333-385.5-103S171.667,1527.167,103,1409.5S0,1163.333,0,1024s34.333-267.833,103-385.5S264.833,427.667,382.5,359  S628.667,256,768,256s267.833,34.333,385.5,103s210.833,161.833,279.5,279.5S1536,884.667,1536,1024z"/></svg>