<?xml version="1.0" ?><svg contentScriptType="text/ecmascript" contentStyleType="text/css" enable-background="new 0 0 2048 2048" height="2048px" id="Layer_1" preserveAspectRatio="xMidYMid meet" version="1.1" viewBox="0.0 0 1792.0 2048" width="1792.0px" xml:space="preserve" xmlns="http://www.w3.org/2000/svg" xmlns:xlink="http://www.w3.org/1999/xlink" zoomAndPan="magnify"><path d="M1792,1024c0,17.333-6.333,32.333-19,45l-256,256c-12.667,12.667-27.667,19-45,19s-32.333-6.333-45-19s-19-27.667-19-45  v-128H384v128c0,17.333-6.333,32.333-19,45s-27.667,19-45,19s-32.333-6.333-45-19L19,1069c-12.667-12.667-19-27.667-19-45  c0-17.333,6.333-32.333,19-45l256-256c12.667-12.667,27.667-19,45-19s32.333,6.333,45,19s19,27.667,19,45v128h1024V768  c0-17.333,6.333-32.333,19-45s27.667-19,45-19s32.333,6.333,45,19l256,256C1785.667,991.667,1792,1006.667,1792,1024z"/></svg>