<?xml version="1.0" ?><svg contentScriptType="text/ecmascript" contentStyleType="text/css" enable-background="new 0 0 2048 2048" height="2048px" id="Layer_1" preserveAspectRatio="xMidYMid meet" version="1.1" viewBox="0.0 0 1683.0 2048" width="1683.0px" xml:space="preserve" xmlns="http://www.w3.org/2000/svg" xmlns:xlink="http://www.w3.org/1999/xlink" zoomAndPan="magnify"><path d="M832,640c0-53.333-18.667-98.667-56-136s-82.667-56-136-56s-98.667,18.667-136,56s-56,82.667-56,136  c0,28,6.333,55.667,19,83c-27.333-12.667-55-19-83-19c-53.333,0-98.667,18.667-136,56s-56,82.667-56,136s18.667,98.667,56,136  c37.333,37.333,82.667,56,136,56s98.667-18.667,136-56c37.333-37.333,56-82.667,56-136c0-28-6.333-55.667-19-83  c27.333,12.667,55,19,83,19c53.333,0,98.667-18.667,136-56S832,693.333,832,640z M1683,1344c0,11.333-16.333,33.333-49,66  s-54.667,49-66,49c-6,0-15.5-5.333-28.5-16s-25.167-21.667-36.5-33s-24.167-24.667-38.5-40s-22.5-24-24.5-26l-96,96l220,220  c18.667,18.667,28,41.333,28,68c0,28-13,55-39,81s-53,39-81,39c-26.667,0-49.333-9.333-68-28l-671-671  c-117.333,87.333-239,131-365,131c-108.667,0-197.167-34.167-265.5-102.5C34.167,1109.167,0,1020.667,0,912  c0-106.667,31.667-211,95-313s146-184.667,248-248s206.333-95,313-95c108.667,0,197.167,34.167,265.5,102.5S1024,515.333,1024,624  c0,126-43.667,247.667-131,365l355,355l96-96c-2-2-10.667-10.167-26-24.5s-28.667-27.167-40-38.5s-22.333-23.5-33-36.5  s-16-22.5-16-28.5c0-11.333,16.333-33.333,49-66c32.667-32.667,54.667-49,66-49c8.667,0,16.333,3.333,23,10  c4,4,19.333,18.833,46,44.5s54,52.167,82,79.5c28,27.333,56.833,56,86.5,86s54,56,73,78S1683,1338.667,1683,1344z"/></svg>