<?xml version="1.0" ?><svg contentScriptType="text/ecmascript" contentStyleType="text/css" enable-background="new 0 0 2048 2048" height="2048px" id="Layer_1" preserveAspectRatio="xMidYMid meet" version="1.1" viewBox="-7.333000183105469 0 1806.666015625 2048" width="1806.666015625px" xml:space="preserve" xmlns="http://www.w3.org/2000/svg" xmlns:xlink="http://www.w3.org/1999/xlink" zoomAndPan="magnify"><path d="M1024,1503v-190c0-9.333-3.167-17.167-9.5-23.5s-13.833-9.5-22.5-9.5H800c-8.667,0-16.167,3.167-22.5,9.5  s-9.5,14.167-9.5,23.5v190c0,9.333,3.167,17.167,9.5,23.5s13.833,9.5,22.5,9.5h192c8.667,0,16.167-3.167,22.5-9.5  S1024,1512.333,1024,1503z M1022,1129l18-459c0-8-3.333-14.333-10-19c-8.667-7.333-16.667-11-24-11H786c-7.333,0-15.333,3.667-24,11  c-6.667,4.667-10,11.667-10,21l17,457c0,6.667,3.333,12.167,10,16.5s14.667,6.5,24,6.5h185c9.333,0,17.167-2.167,23.5-6.5  S1021.333,1135.667,1022,1129z M1008,195l768,1408c23.333,42,22.667,84-2,126c-11.333,19.333-26.833,34.667-46.5,46  s-40.833,17-63.5,17H128c-22.667,0-43.833-5.667-63.5-17s-35.167-26.667-46.5-46c-24.667-42-25.333-84-2-126L784,195  c11.333-20.667,27-37,47-49s41.667-18,65-18s45,6,65,18S996.667,174.333,1008,195z"/></svg>