<?xml version="1.0" ?><svg contentScriptType="text/ecmascript" contentStyleType="text/css" enable-background="new 0 0 2048 2048" height="2048px" id="Layer_1" preserveAspectRatio="xMidYMid meet" version="1.1" viewBox="0.0 0 1792.0 2048" width="1792.0px" xml:space="preserve" xmlns="http://www.w3.org/2000/svg" xmlns:xlink="http://www.w3.org/1999/xlink" zoomAndPan="magnify"><path d="M1664,768c35.333,0,65.5,12.5,90.5,37.5s37.5,55.167,37.5,90.5s-12.5,65.5-37.5,90.5s-55.167,37.5-90.5,37.5v384  c0,34.667-12.667,64.667-38,90s-55.333,38-90,38c-278-231.333-548.667-358-812-380c-38.667,12.667-69,34.667-91,66  s-32.333,64.833-31,100.5s14.667,66.5,40,92.5c-13.333,22-21,43.833-23,65.5s0,41,6,58s17.167,35.333,33.5,55s32.333,36.333,48,50  s36.167,30.5,61.5,50.5c-19.333,38.667-56.5,66.333-111.5,83s-111.167,20.5-168.5,11.5S386.667,1761,356,1733  c-4.667-15.333-14.5-44.5-29.5-87.5s-25.667-74.5-32-94.5s-14-49.667-23-89s-14-73-15-101s0.167-60.833,3.5-98.5  s10.667-74.5,22-110.5H160c-44,0-81.667-15.667-113-47S0,1036,0,992V800c0-44,15.667-81.667,47-113s69-47,113-47h480  c290,0,588.667-128,896-384c34.667,0,64.667,12.667,90,38s38,55.333,38,90V768z M1536,1372V418  c-262.667,201.333-518.667,315.667-768,343v270C1019.333,1059,1275.333,1172.667,1536,1372z"/></svg>