<?xml version="1.0" ?><svg contentScriptType="text/ecmascript" contentStyleType="text/css" enable-background="new 0 0 2048 2048" height="2048px" id="Layer_1" preserveAspectRatio="xMidYMid meet" version="1.1" viewBox="-6.333000183105469 0 1800.3330078125 2048" width="1800.3330078125px" xml:space="preserve" xmlns="http://www.w3.org/2000/svg" xmlns:xlink="http://www.w3.org/1999/xlink" zoomAndPan="magnify"><path d="M960,1024c17.333,0,32.333,6.333,45,19s19,27.667,19,45s-6.333,32.333-19,45s-27.667,19-45,19s-32.333-6.333-45-19  s-19-27.667-19-45s6.333-32.333,19-45S942.667,1024,960,1024z M1260,1088l507,398c18.667,13.333,27,32,25,56  c-3.333,23.333-15,40.333-35,51l-128,64c-8.667,4.667-18.333,7-29,7c-11.333,0-21.667-2.667-31-8l-690-387l-110,66  c-5.333,2.667-9.333,4.333-12,5c9.333,32.667,12.667,65,10,97c-4.667,51.333-23.333,100.5-56,147.5s-76.667,88.167-132,123.5  c-88,56-180.333,84-277,84c-90.667,0-164.667-26-222-78c-60-56-86.333-125-79-207c4.667-50.667,23.333-99.667,56-147  s76.333-88.667,131-124c88-56,180.667-84,278-84c55.333,0,105.667,10.333,151,31c6-8.667,13.333-16,22-22l122-73l-122-73  c-8.667-6-16-13.333-22-22c-45.333,20.667-95.667,31-151,31c-97.333,0-190-28-278-84c-54.667-35.333-98.333-76.667-131-124  S5.667,719.667,1,669c-3.333-39.333,1.833-77,15.5-113s34.833-67,63.5-93c56.667-52.667,130.667-79,222-79c96.667,0,189,28,277,84  c55.333,34.667,99.333,75.667,132,123s51.333,96.667,56,148c2.667,32-0.667,64.333-10,97c2.667,0.667,6.667,2.333,12,5l110,66  l690-387c9.333-5.333,19.667-8,31-8c10.667,0,20.333,2.333,29,7l128,64c20,10.667,31.667,27.667,35,51c2,24-6.333,42.667-25,56  L1260,1088z M579,828c30.667-28,37.667-64,21-108s-52-83-106-117c-61.333-39.333-125.333-59-192-59c-49.333,0-87,12-113,36  c-30.667,28-37.667,64-21,108s52,83,106,117c61.333,39.333,125.333,59,192,59C515.333,864,553,852,579,828z M494,1573  c54-34,89.333-73,106-117s9.667-80-21-108c-26-24-63.667-36-113-36c-66.667,0-130.667,19.667-192,59c-54,34-89.333,73-106,117  s-9.667,80,21,108c26,24,63.667,36,113,36C368.667,1632,432.667,1612.333,494,1573z M672,960l96,58v-11c0-24,11-42.667,33-56l14-8  l-79-47l-26,26c-2,2-5.333,5.667-10,11s-8.667,9.333-12,12c-1.333,1.333-2.667,2.5-4,3.5s-2.333,1.833-3,2.5L672,960z M896,1184  l96,32l736-576l-128-64l-768,431v113l-160,96l9,8c1.333,1.333,3.667,3.333,7,6c2.667,2.667,6.333,6.667,11,12s8.333,9.333,11,12  l26,26L896,1184z M1600,1600l128-64l-520-408l-177,138c-1.333,2-5.667,4.333-13,7L1600,1600z"/></svg>