<?xml version="1.0" ?><svg contentScriptType="text/ecmascript" contentStyleType="text/css" enable-background="new 0 0 2048 2048" height="2048px" id="Layer_1" preserveAspectRatio="xMidYMid meet" version="1.1" viewBox="0.0 0 1408.0 2048" width="1408.0px" xml:space="preserve" xmlns="http://www.w3.org/2000/svg" xmlns:xlink="http://www.w3.org/1999/xlink" zoomAndPan="magnify"><path d="M384,1472c0,17.333-6.333,32.333-19,45s-27.667,19-45,19s-32.333-6.333-45-19s-19-27.667-19-45s6.333-32.333,19-45  s27.667-19,45-19s32.333,6.333,45,19S384,1454.667,384,1472z M1408,1533c0,80.667-24.333,144-73,190s-113.333,69-194,69H267  c-80.667,0-145.333-23-194-69S0,1613.667,0,1533c0-45.333,1.833-89,5.5-131s11.667-88,24-138s28.167-94.167,47.5-132.5  c19.333-38.333,46.333-72.667,81-103c34.667-30.333,74.667-50.5,120-60.5c-14.667,34.667-22,74.667-22,120v203  c-38.667,13.333-69.667,36.667-93,70s-35,70.333-35,111c0,53.333,18.667,98.667,56,136s82.667,56,136,56s98.667-18.667,136-56  s56-82.667,56-136c0-40.667-11.833-77.667-35.5-111s-54.5-56.667-92.5-70v-203c0-41.333,8.333-72.333,25-93  c88,69.333,186.333,104,295,104s207-34.667,295-104c16.667,20.667,25,51.667,25,93v64c-70.667,0-131,25-181,75s-75,110.333-75,181  v89c-21.333,19.333-32,43-32,71c0,26.667,9.333,49.333,28,68s41.333,28,68,28s49.333-9.333,68-28s28-41.333,28-68  c0-28-10.667-51.667-32-71v-89c0-34.667,12.667-64.667,38-90s55.333-38,90-38c34.667,0,64.667,12.667,90,38s38,55.333,38,90v89  c-21.333,19.333-32,43-32,71c0,26.667,9.333,49.333,28,68s41.333,28,68,28s49.333-9.333,68-28s28-41.333,28-68  c0-28-10.667-51.667-32-71v-89c0-45.333-11.5-87.833-34.5-127.5s-54.167-70.833-93.5-93.5c0-6.667,0.167-20.833,0.5-42.5  c0.333-21.667,0.333-37.667,0-48s-1.167-24.167-2.5-41.5s-3.667-33-7-47s-7.667-27.333-13-40c45.333,10,85.333,30.167,120,60.5  c34.667,30.333,61.667,64.667,81,103c19.333,38.333,35.167,82.5,47.5,132.5s20.333,96,24,138S1408,1487.667,1408,1533z M1088,640  c0,106-37.5,196.5-112.5,271.5S810,1024,704,1024s-196.5-37.5-271.5-112.5S320,746,320,640s37.5-196.5,112.5-271.5S598,256,704,256  s196.5,37.5,271.5,112.5S1088,534,1088,640z"/></svg>