<?xml version="1.0" ?><svg contentScriptType="text/ecmascript" contentStyleType="text/css" enable-background="new 0 0 2048 2048" height="2048px" id="Layer_1" preserveAspectRatio="xMidYMid meet" version="1.1" viewBox="0.0 0 1536.0 2048" width="1536.0px" xml:space="preserve" xmlns="http://www.w3.org/2000/svg" xmlns:xlink="http://www.w3.org/1999/xlink" zoomAndPan="magnify"><path d="M678,1721c0,25.333-3.333,49-10,71H288c-63.333,0-120.5-18.833-171.5-56.5S31,1648.667,13,1588c16-30,39-55.833,69-77.5  s63.333-38.167,100-49.5s72.333-19.333,107-24s70.333-7,107-7c21.333,0,37.667,0.667,49,2c4,2.667,14.167,9.667,30.5,21  s27.333,19,33,23c5.667,4,16,11.667,31,23s25.667,19.833,32,25.5s15.5,14.167,27.5,25.5s20.833,21.167,26.5,29.5  s12.667,18.5,21,30.5s14.167,23.5,17.5,34.5s6.5,23,9.5,36S678,1707,678,1721z M385,1370c-156,4.667-284.333,33-385,85v-433  c68.667,78.667,159.667,118,273,118c21.333,0,44.667-1.667,70-5c-14,40.667-21,69.333-21,86C322,1265.667,343,1315.333,385,1370z   M558,859c0,66.667-14.5,120.167-43.5,160.5c-29,40.333-75.833,60.5-140.5,60.5c-34,0-66.333-8.667-97-26s-56.667-39.833-78-67.5  s-40-58.833-56-93.5s-27.833-69.333-35.5-104S96,721.333,96,690c0-64,17.167-119,51.5-165S230,456,292,456  c44,0,83.667,13.667,119,41s63.333,62,84,104c20.667,42,36.333,85.333,47,130S558,818.333,558,859z M1536,768v736  c0,79.333-28.167,147.167-84.5,203.5S1327.333,1792,1248,1792H780c26-48.667,39-101,39-157c0-44-7.333-84.833-22-122.5  s-33.167-68.667-55.5-93s-46.333-48-72-71s-49.667-42.833-72-59.5s-40.833-34.833-55.5-54.5s-22-39.5-22-59.5  c0-24,7.667-46.667,23-68s34-41.833,56-61.5s43.833-41.167,65.5-64.5s40.167-54.333,55.5-93s23-82.333,23-131  s-8.833-97.167-26.5-145.5c-17.667-48.333-42.833-87.833-75.5-118.5c-4-4-8.667-7.667-14-11s-9.5-5.833-12.5-7.5  s-6.333-4.833-10-9.5s-7.167-10.333-10.5-17h135l135-64H427c-92,0-173.5,12.833-244.5,38.5S50.667,492.667,0,556c0-84,27-155,81-213  s123-87,207-87h960c79.333,0,147.167,28.167,203.5,84.5S1536,464.667,1536,544v96h-256V384h-128v256H896v128h256v256h128V768H1536z"/></svg>