<?xml version="1.0" ?><svg contentScriptType="text/ecmascript" contentStyleType="text/css" enable-background="new 0 0 2048 2048" height="2048px" id="Layer_1" preserveAspectRatio="xMidYMid meet" version="1.1" viewBox="0.0 0 1792.0 2048" width="1792.0px" xml:space="preserve" xmlns="http://www.w3.org/2000/svg" xmlns:xlink="http://www.w3.org/1999/xlink" zoomAndPan="magnify"><path d="M1280,1248v-192c0-9.333-3-17-9-23s-13.667-9-23-9h-224V800c0-9.333-3-17-9-23s-13.667-9-23-9H800c-9.333,0-17,3-23,9  s-9,13.667-9,23v224H544c-9.333,0-17,3-23,9s-9,13.667-9,23v192c0,9.333,3,17,9,23s13.667,9,23,9h224v224c0,9.333,3,17,9,23  s13.667,9,23,9h192c9.333,0,17-3,23-9s9-13.667,9-23v-224h224c9.333,0,17-3,23-9S1280,1257.333,1280,1248z M640,512h512V384H640V512  z M256,512v1280h-32c-61.333,0-114-22-158-66s-66-96.667-66-158V736c0-61.333,22-114,66-158s96.667-66,158-66H256z M1440,512v1280  H352V512h160V352c0-26.667,9.333-49.333,28-68s41.333-28,68-28h576c26.667,0,49.333,9.333,68,28s28,41.333,28,68v160H1440z   M1792,736v832c0,61.333-22,114-66,158s-96.667,66-158,66h-32V512h32c61.333,0,114,22,158,66S1792,674.667,1792,736z"/></svg>