<?xml version="1.0" ?><svg contentScriptType="text/ecmascript" contentStyleType="text/css" enable-background="new 0 0 2048 2048" height="2048px" id="Layer_1" preserveAspectRatio="xMidYMid meet" version="1.1" viewBox="0.0 0 1664.0 2048" width="1664.0px" xml:space="preserve" xmlns="http://www.w3.org/2000/svg" xmlns:xlink="http://www.w3.org/1999/xlink" zoomAndPan="magnify"><path d="M557,1408h595V813L557,1408z M512,1363l595-595H512V1363z M1664,1440v192c0,9.333-3,17-9,23s-13.667,9-23,9h-224v224  c0,9.333-3,17-9,23s-13.667,9-23,9h-192c-9.333,0-17-3-23-9s-9-13.667-9-23v-224H288c-9.333,0-17-3-23-9s-9-13.667-9-23V768H32  c-9.333,0-17-3-23-9s-9-13.667-9-23V544c0-9.333,3-17,9-23s13.667-9,23-9h224V288c0-9.333,3-17,9-23s13.667-9,23-9h192  c9.333,0,17,3,23,9s9,13.667,9,23v224h851l246-247c6.667-6,14.333-9,23-9s16.333,3,23,9c6,6.667,9,14.333,9,23s-3,16.333-9,23  l-247,246v851h224c9.333,0,17,3,23,9S1664,1430.667,1664,1440z"/></svg>