<?xml version="1.0" ?><svg contentScriptType="text/ecmascript" contentStyleType="text/css" enable-background="new 0 0 2048 2048" height="2048px" id="Layer_1" preserveAspectRatio="xMidYMid meet" version="1.1" viewBox="64.0 0 1728.0 2048" width="1728.0px" xml:space="preserve" xmlns="http://www.w3.org/2000/svg" xmlns:xlink="http://www.w3.org/1999/xlink" zoomAndPan="magnify"><path d="M1664,1173V557c-112.667,60.667-214.667,91-306,91c-54.667,0-103-10.667-145-32c-66.667-32.667-128-58.167-184-76.5  S913.667,512,851,512c-115.333,0-249.667,42.333-403,127v599c163.333-75.333,307.667-113,433-113c36.667,0,71.167,2.5,103.5,7.5  s65,13.667,98,26c33,12.333,58.667,22.667,77,31s45.833,21.5,82.5,39.5l28,14c29.333,14.667,63,22,101,22  C1451,1265,1548.667,1234.333,1664,1173z M320,384c0,23.333-5.833,44.667-17.5,64s-27.167,34.667-46.5,46v1266c0,9.333-3,17-9,23  s-13.667,9-23,9h-64c-9.333,0-17-3-23-9s-9-13.667-9-23V494c-19.333-11.333-34.833-26.667-46.5-46S64,407.333,64,384  c0-35.333,12.5-65.5,37.5-90.5S156.667,256,192,256s65.5,12.5,90.5,37.5S320,348.667,320,384z M1792,448v763c0,26-11.667,45-35,57  c-6.667,3.333-12.333,6.333-17,9c-145.333,77.333-268.333,116-369,116c-58.667,0-111.333-11.667-158-35l-28-14  c-42.667-22-75.667-38-99-48s-53.667-19.667-91-29c-37.333-9.333-75.333-14-114-14c-68,0-146.5,14.667-235.5,44  s-165.167,63.333-228.5,102c-10,6-21,9-33,9c-10.667,0-21.333-2.667-32-8c-21.333-12.667-32-31.333-32-56V602  c0-23.333,10.333-41.667,31-55c23.333-14,49.5-28.167,78.5-42.5s67-31.667,114-52S641.333,415.667,696,403s106.333-19,155-19  c74.667,0,144.333,10.333,209,31s134.333,49.333,209,86c25.333,12.667,55,19,89,19c81.333,0,184.667-37.333,310-112  c14.667-8,25-13.667,31-17c20.667-10.667,41.333-10,62,2C1781.667,406.333,1792,424.667,1792,448z"/></svg>