<?xml version="1.0" ?><svg contentScriptType="text/ecmascript" contentStyleType="text/css" enable-background="new 0 0 2048 2048" height="2048px" id="Layer_1" preserveAspectRatio="xMidYMid meet" version="1.1" viewBox="0.0 0 1856.0 2048" width="1856.0px" xml:space="preserve" xmlns="http://www.w3.org/2000/svg" xmlns:xlink="http://www.w3.org/1999/xlink" zoomAndPan="magnify"><path d="M1664,768c0-53.333-18.667-98.667-56-136c-37.333-37.333-82.667-56-136-56h-64v384h64c53.333,0,98.667-18.667,136-56  S1664,821.333,1664,768z M0,1536h1792c0,70.667-25,131-75,181s-110.333,75-181,75H256c-70.667,0-131-25-181-75S0,1606.667,0,1536z   M1856,768c0,106-37.5,196.5-112.5,271.5S1578,1152,1472,1152h-64v32c0,61.333-22,114-66,158s-96.667,66-158,66H480  c-61.333,0-114-22-158-66s-66-96.667-66-158V448c0-17.333,6.333-32.333,19-45s27.667-19,45-19h1152c106,0,196.5,37.5,271.5,112.5  S1856,662,1856,768z"/></svg>