<?xml version="1.0" ?><svg contentScriptType="text/ecmascript" contentStyleType="text/css" enable-background="new 0 0 2048 2048" height="2048px" id="Layer_1" preserveAspectRatio="xMidYMid meet" version="1.1" viewBox="0.0 0 1792.0 2048" width="1792.0px" xml:space="preserve" xmlns="http://www.w3.org/2000/svg" xmlns:xlink="http://www.w3.org/1999/xlink" zoomAndPan="magnify"><path d="M640,384h512V256H640V384z M1792,1024v480c0,44-15.667,81.667-47,113s-69,47-113,47H160c-44,0-81.667-15.667-113-47  s-47-69-47-113v-480h672v160c0,17.333,6.333,32.333,19,45s27.667,19,45,19h320c17.333,0,32.333-6.333,45-19s19-27.667,19-45v-160  H1792z M1024,1024v128H768v-128H1024z M1792,544v384H0V544c0-44,15.667-81.667,47-113s69-47,113-47h352V224  c0-26.667,9.333-49.333,28-68s41.333-28,68-28h576c26.667,0,49.333,9.333,68,28s28,41.333,28,68v160h352c44,0,81.667,15.667,113,47  S1792,500,1792,544z"/></svg>