<?xml version="1.0" ?><svg contentScriptType="text/ecmascript" contentStyleType="text/css" enable-background="new 0 0 2048 2048" height="2048px" id="Layer_1" preserveAspectRatio="xMidYMid meet" version="1.1" viewBox="0.0 0 1920.0 2048" width="1920.0px" xml:space="preserve" xmlns="http://www.w3.org/2000/svg" xmlns:xlink="http://www.w3.org/1999/xlink" zoomAndPan="magnify"><path d="M416,1408c-44,0-81.667-15.667-113-47s-47-69-47-113V544c0-44,15.667-81.667,47-113s69-47,113-47h1088  c44,0,81.667,15.667,113,47s47,69,47,113v704c0,44-15.667,81.667-47,113s-69,47-113,47H416z M384,544v704  c0,8.667,3.167,16.167,9.5,22.5s13.833,9.5,22.5,9.5h1088c8.667,0,16.167-3.167,22.5-9.5s9.5-13.833,9.5-22.5V544  c0-8.667-3.167-16.167-9.5-22.5s-13.833-9.5-22.5-9.5H416c-8.667,0-16.167,3.167-22.5,9.5S384,535.333,384,544z M1760,1472h160v96  c0,26.667-15.667,49.333-47,68s-69,28-113,28H160c-44,0-81.667-9.333-113-28s-47-41.333-47-68v-96h160H1760z M1040,1568  c10.667,0,16-5.333,16-16s-5.333-16-16-16H880c-10.667,0-16,5.333-16,16s5.333,16,16,16H1040z"/></svg>