<?xml version="1.0" ?><svg contentScriptType="text/ecmascript" contentStyleType="text/css" enable-background="new 0 0 2048 2048" height="2048px" id="Layer_1" preserveAspectRatio="xMidYMid meet" version="1.1" viewBox="0.0 0 1920.0 2048" width="1920.0px" xml:space="preserve" xmlns="http://www.w3.org/2000/svg" xmlns:xlink="http://www.w3.org/1999/xlink" zoomAndPan="magnify"><path d="M1280,992c0-9.333-3-17-9-23L919,617c-6-6-13.667-9-23-9s-17,3-23,9L522,968c-6.667,8-10,16-10,24c0,9.333,3,17,9,23  s13.667,9,23,9h224v352c0,8.667,3.167,16.167,9.5,22.5s13.833,9.5,22.5,9.5h192c8.667,0,16.167-3.167,22.5-9.5s9.5-13.833,9.5-22.5  v-352h224c8.667,0,16.167-3.167,22.5-9.5S1280,1000.667,1280,992z M1920,1280c0,106-37.5,196.5-112.5,271.5S1642,1664,1536,1664H448  c-123.333,0-228.833-43.833-316.5-131.5S0,1339.333,0,1216c0-86.667,23.333-166.667,70-240s109.333-128.333,188-165  c-1.333-20-2-34.333-2-43c0-141.333,50-262,150-362s220.667-150,362-150c104,0,199.167,29,285.5,87s149.167,135,188.5,231  c47.333-41.333,102.667-62,166-62c70.667,0,131,25,181,75s75,110.333,75,181c0,50.667-13.667,96.667-41,138  c86.667,20.667,157.833,65.833,213.5,135.5S1920,1190.667,1920,1280z"/></svg>