<?xml version="1.0" ?><svg contentScriptType="text/ecmascript" contentStyleType="text/css" enable-background="new 0 0 2048 2048" height="2048px" id="Layer_1" preserveAspectRatio="xMidYMid meet" version="1.1" viewBox="-4.0 0 1672.0 2048" width="1672.0px" xml:space="preserve" xmlns="http://www.w3.org/2000/svg" xmlns:xlink="http://www.w3.org/1999/xlink" zoomAndPan="magnify"><path d="M1186,1085l257-250l-356-52l-66-10l-30-60L832,391v963l59,31l318,168l-60-355l-12-66L1186,1085z M1638,823l-363,354l86,500  c3.333,22,1.333,39.167-6,51.5s-18.667,18.5-34,18.5c-11.333,0-24.667-4-40-12l-449-236l-449,236c-15.333,8-28.667,12-40,12  c-15.333,0-26.667-6.167-34-18.5s-9.333-29.5-6-51.5l86-500L25,823C3.667,801.667-4,781.833,2,763.5s24-29.833,54-34.5l502-73  l225-455c13.333-27.333,29.667-41,49-41c18.667,0,35,13.667,49,41l225,455l502,73c30,4.667,48,16.167,54,34.5S1660,801.667,1638,823  z"/></svg>