<?xml version="1.0" ?><svg contentScriptType="text/ecmascript" contentStyleType="text/css" enable-background="new 0 0 2048 2048" height="2048px" id="Layer_1" preserveAspectRatio="xMidYMid meet" version="1.1" viewBox="0.0 0 1792.0 2048" width="1792.0px" xml:space="preserve" xmlns="http://www.w3.org/2000/svg" xmlns:xlink="http://www.w3.org/1999/xlink" zoomAndPan="magnify"><path d="M704,512c-102,0-197.333,17.333-286,52s-159.167,81.667-211.5,141S128,828,128,896c0,54.667,17.667,107.333,53,158  c35.333,50.667,85,94.667,149,132l97,56l-35,84c22.667-13.333,43.333-26.333,62-39l44-31l53,10c52,9.333,103,14,153,14  c102,0,197.333-17.333,286-52s159.167-81.667,211.5-141s78.5-123,78.5-191s-26.167-131.667-78.5-191S1078.667,598.667,990,564  S806,512,704,512z M704,384c127.333,0,245.167,22.833,353.5,68.5S1251.333,560.333,1314,639s94,164.333,94,257  s-31.333,178.333-94,257c-62.667,78.667-148.167,140.833-256.5,186.5S831.333,1408,704,1408c-57.333,0-116-5.333-176-16  c-82.667,58.667-175.333,101.333-278,128c-24,6-52.667,11.333-86,16h-3c-7.333,0-14.167-2.667-20.5-8s-10.167-12.333-11.5-21  c-0.667-2-1-4.167-1-6.5s0.167-4.5,0.5-6.5s1-4,2-6l2.5-5c0,0,1.167-1.833,3.5-5.5s3.667-5.333,4-5s1.833-1.333,4.5-5s4-5.167,4-4.5  c3.333-4,11-12.333,23-25s20.667-22.5,26-29.5s12.833-16.667,22.5-29s18-25.167,25-38.5s13.833-28,20.5-44  c-82.667-48-147.667-107-195-177S0,975.333,0,896c0-92.667,31.333-178.333,94-257s148.167-140.833,256.5-186.5S576.667,384,704,384z   M1526,1553c6.667,16,13.5,30.667,20.5,44s15.333,26.167,25,38.5s17.167,22,22.5,29s14,16.833,26,29.5s19.667,21,23,25  c0.667,0.667,2,2.167,4,4.5s3.5,4,4.5,5s2.333,2.667,4,5s2.833,4.167,3.5,5.5l2.5,5c0,0,0.667,2,2,6s1.5,6.167,0.5,6.5  s-1.333,2.5-1,6.5c-2,9.333-6.333,16.667-13,22s-14,7.667-22,7c-33.333-4.667-62-10-86-16c-102.667-26.667-195.333-69.333-278-128  c-60,10.667-118.667,16-176,16c-180.667,0-338-44-472-132c38.667,2.667,68,4,88,4c107.333,0,210.333-15,309-45s186.667-73,264-129  c83.333-61.333,147.333-132,192-212s67-164.667,67-254c0-51.333-7.667-102-23-152c86,47.333,154,106.667,204,178s75,148,75,230  c0,80-23.667,154.833-71,224.5S1608.667,1505,1526,1553z"/></svg>