<?xml version="1.0" ?><svg contentScriptType="text/ecmascript" contentStyleType="text/css" enable-background="new 0 0 2048 2048" height="2048px" id="Layer_1" preserveAspectRatio="xMidYMid meet" version="1.1" viewBox="0.0 0 768.0 2048" width="768.0px" xml:space="preserve" xmlns="http://www.w3.org/2000/svg" xmlns:xlink="http://www.w3.org/1999/xlink" zoomAndPan="magnify"><path d="M464,1536c0-22-7.833-40.833-23.5-56.5S406,1456,384,1456s-40.833,7.833-56.5,23.5S304,1514,304,1536  s7.833,40.833,23.5,56.5S362,1616,384,1616s40.833-7.833,56.5-23.5S464,1558,464,1536z M672,1376V672c0-8.667-3.167-16.167-9.5-22.5  S648.667,640,640,640H128c-8.667,0-16.167,3.167-22.5,9.5S96,663.333,96,672v704c0,8.667,3.167,16.167,9.5,22.5s13.833,9.5,22.5,9.5  h512c8.667,0,16.167-3.167,22.5-9.5S672,1384.667,672,1376z M480,528c0-10.667-5.333-16-16-16H304c-10.667,0-16,5.333-16,16  s5.333,16,16,16h160C474.667,544,480,538.667,480,528z M768,512v1024c0,34.667-12.667,64.667-38,90s-55.333,38-90,38H128  c-34.667,0-64.667-12.667-90-38s-38-55.333-38-90V512c0-34.667,12.667-64.667,38-90s55.333-38,90-38h512  c34.667,0,64.667,12.667,90,38S768,477.333,768,512z"/></svg>