<?xml version="1.0" ?><svg contentScriptType="text/ecmascript" contentStyleType="text/css" enable-background="new 0 0 2048 2048" height="2048px" id="Layer_1" preserveAspectRatio="xMidYMid meet" version="1.1" viewBox="0.0 0 1792.0 2048" width="1792.0px" xml:space="preserve" xmlns="http://www.w3.org/2000/svg" xmlns:xlink="http://www.w3.org/1999/xlink" zoomAndPan="magnify"><path d="M1792,1376v320c0,26.667-9.333,49.333-28,68s-41.333,28-68,28h-320c-26.667,0-49.333-9.333-68-28s-28-41.333-28-68v-320  c0-26.667,9.333-49.333,28-68s41.333-28,68-28h96v-192H960v192h96c26.667,0,49.333,9.333,68,28s28,41.333,28,68v320  c0,26.667-9.333,49.333-28,68s-41.333,28-68,28H736c-26.667,0-49.333-9.333-68-28s-28-41.333-28-68v-320  c0-26.667,9.333-49.333,28-68s41.333-28,68-28h96v-192H320v192h96c26.667,0,49.333,9.333,68,28s28,41.333,28,68v320  c0,26.667-9.333,49.333-28,68s-41.333,28-68,28H96c-26.667,0-49.333-9.333-68-28s-28-41.333-28-68v-320c0-26.667,9.333-49.333,28-68  s41.333-28,68-28h96v-192c0-34.667,12.667-64.667,38-90s55.333-38,90-38h512V768h-96c-26.667,0-49.333-9.333-68-28s-28-41.333-28-68  V352c0-26.667,9.333-49.333,28-68s41.333-28,68-28h320c26.667,0,49.333,9.333,68,28s28,41.333,28,68v320  c0,26.667-9.333,49.333-28,68s-41.333,28-68,28h-96v192h512c34.667,0,64.667,12.667,90,38s38,55.333,38,90v192h96  c26.667,0,49.333,9.333,68,28S1792,1349.333,1792,1376z"/></svg>