<?xml version="1.0" ?><svg contentScriptType="text/ecmascript" contentStyleType="text/css" enable-background="new 0 0 2048 2048" height="2048px" id="Layer_1" preserveAspectRatio="xMidYMid meet" version="1.1" viewBox="0.0 0 1536.0 2048" width="1536.0px" xml:space="preserve" xmlns="http://www.w3.org/2000/svg" xmlns:xlink="http://www.w3.org/1999/xlink" zoomAndPan="magnify"><path d="M1536,1024c0,139.333-34.333,267.833-103,385.5s-161.833,210.833-279.5,279.5S907.333,1792,768,1792  c-74,0-146.667-10.667-218-32c39.333-62,65.333-116.667,78-164c6-22.667,24-93,54-211c13.333,26,37.667,48.5,73,67.5  s73.333,28.5,114,28.5c80.667,0,152.667-22.833,216-68.5s112.333-108.5,147-188.5s52-170,52-270c0-76-19.833-147.333-59.5-214  s-97.167-121-172.5-163s-160.333-63-255-63c-70,0-135.333,9.667-196,29s-112.167,45-154.5,77s-78.667,68.833-109,110.5  s-52.667,84.833-67,129.5S249,949.333,249,994c0,69.333,13.333,130.333,40,183c26.667,52.667,65.667,89.667,117,111  c20,8,32.667,1.333,38-20c1.333-4.667,4-15,8-31s6.667-26,8-30c4-15.333,0.333-29.667-11-43c-34-40.667-51-91-51-151  c0-100.667,34.833-187.167,104.5-259.5S663.333,645,776,645c100.667,0,179.167,27.333,235.5,82c56.333,54.667,84.5,125.667,84.5,213  c0,113.333-22.833,209.667-68.5,289c-45.667,79.333-104.167,119-175.5,119c-40.667,0-73.333-14.5-98-43.5s-32.333-63.833-23-104.5  c5.333-23.333,14.167-54.5,26.5-93.5s22.333-73.333,30-103c7.667-29.667,11.5-54.833,11.5-75.5c0-33.333-9-61-27-83  s-43.667-33-77-33c-41.333,0-76.333,19-105,57s-43,85.333-43,142c0,48.667,8.333,89.333,25,122l-99,418  c-11.333,46.667-15.667,105.667-13,177c-137.333-60.667-248.333-154.333-333-281S0,1179.333,0,1024  c0-139.333,34.333-267.833,103-385.5S264.833,427.667,382.5,359S628.667,256,768,256s267.833,34.333,385.5,103  s210.833,161.833,279.5,279.5S1536,884.667,1536,1024z"/></svg>