<?xml version="1.0" ?><svg contentScriptType="text/ecmascript" contentStyleType="text/css" enable-background="new 0 0 2048 2048" height="2048px" id="Layer_1" preserveAspectRatio="xMidYMid meet" version="1.1" viewBox="0.0 0 1408.0 2048" width="1408.0px" xml:space="preserve" xmlns="http://www.w3.org/2000/svg" xmlns:xlink="http://www.w3.org/1999/xlink" zoomAndPan="magnify"><path d="M384,1440v64c0,8.667-3.167,16.167-9.5,22.5s-13.833,9.5-22.5,9.5h-64c-8.667,0-16.167-3.167-22.5-9.5s-9.5-13.833-9.5-22.5  v-64c0-8.667,3.167-16.167,9.5-22.5s13.833-9.5,22.5-9.5h64c8.667,0,16.167,3.167,22.5,9.5S384,1431.333,384,1440z M384,1184v64  c0,8.667-3.167,16.167-9.5,22.5s-13.833,9.5-22.5,9.5h-64c-8.667,0-16.167-3.167-22.5-9.5s-9.5-13.833-9.5-22.5v-64  c0-8.667,3.167-16.167,9.5-22.5s13.833-9.5,22.5-9.5h64c8.667,0,16.167,3.167,22.5,9.5S384,1175.333,384,1184z M640,1184v64  c0,8.667-3.167,16.167-9.5,22.5s-13.833,9.5-22.5,9.5h-64c-8.667,0-16.167-3.167-22.5-9.5s-9.5-13.833-9.5-22.5v-64  c0-8.667,3.167-16.167,9.5-22.5s13.833-9.5,22.5-9.5h64c8.667,0,16.167,3.167,22.5,9.5S640,1175.333,640,1184z M384,928v64  c0,8.667-3.167,16.167-9.5,22.5s-13.833,9.5-22.5,9.5h-64c-8.667,0-16.167-3.167-22.5-9.5s-9.5-13.833-9.5-22.5v-64  c0-8.667,3.167-16.167,9.5-22.5s13.833-9.5,22.5-9.5h64c8.667,0,16.167,3.167,22.5,9.5S384,919.333,384,928z M1152,1440v64  c0,8.667-3.167,16.167-9.5,22.5s-13.833,9.5-22.5,9.5h-64c-8.667,0-16.167-3.167-22.5-9.5s-9.5-13.833-9.5-22.5v-64  c0-8.667,3.167-16.167,9.5-22.5s13.833-9.5,22.5-9.5h64c8.667,0,16.167,3.167,22.5,9.5S1152,1431.333,1152,1440z M896,1184v64  c0,8.667-3.167,16.167-9.5,22.5s-13.833,9.5-22.5,9.5h-64c-8.667,0-16.167-3.167-22.5-9.5s-9.5-13.833-9.5-22.5v-64  c0-8.667,3.167-16.167,9.5-22.5s13.833-9.5,22.5-9.5h64c8.667,0,16.167,3.167,22.5,9.5S896,1175.333,896,1184z M640,928v64  c0,8.667-3.167,16.167-9.5,22.5s-13.833,9.5-22.5,9.5h-64c-8.667,0-16.167-3.167-22.5-9.5s-9.5-13.833-9.5-22.5v-64  c0-8.667,3.167-16.167,9.5-22.5s13.833-9.5,22.5-9.5h64c8.667,0,16.167,3.167,22.5,9.5S640,919.333,640,928z M1152,1184v64  c0,8.667-3.167,16.167-9.5,22.5s-13.833,9.5-22.5,9.5h-64c-8.667,0-16.167-3.167-22.5-9.5s-9.5-13.833-9.5-22.5v-64  c0-8.667,3.167-16.167,9.5-22.5s13.833-9.5,22.5-9.5h64c8.667,0,16.167,3.167,22.5,9.5S1152,1175.333,1152,1184z M896,928v64  c0,8.667-3.167,16.167-9.5,22.5s-13.833,9.5-22.5,9.5h-64c-8.667,0-16.167-3.167-22.5-9.5s-9.5-13.833-9.5-22.5v-64  c0-8.667,3.167-16.167,9.5-22.5s13.833-9.5,22.5-9.5h64c8.667,0,16.167,3.167,22.5,9.5S896,919.333,896,928z M1152,928v64  c0,8.667-3.167,16.167-9.5,22.5s-13.833,9.5-22.5,9.5h-64c-8.667,0-16.167-3.167-22.5-9.5s-9.5-13.833-9.5-22.5v-64  c0-8.667,3.167-16.167,9.5-22.5s13.833-9.5,22.5-9.5h64c8.667,0,16.167,3.167,22.5,9.5S1152,919.333,1152,928z M896,1792h384V640  h-256v32c0,26.667-9.333,49.333-28,68s-41.333,28-68,28H480c-26.667,0-49.333-9.333-68-28s-28-41.333-28-68v-32H128v1152h384v-224  c0-8.667,3.167-16.167,9.5-22.5s13.833-9.5,22.5-9.5h320c8.667,0,16.167,3.167,22.5,9.5s9.5,13.833,9.5,22.5V1792z M896,608V288  c0-8.667-3.167-16.167-9.5-22.5S872.667,256,864,256h-64c-8.667,0-16.167,3.167-22.5,9.5S768,279.333,768,288v96H640v-96  c0-8.667-3.167-16.167-9.5-22.5S616.667,256,608,256h-64c-8.667,0-16.167,3.167-22.5,9.5S512,279.333,512,288v320  c0,8.667,3.167,16.167,9.5,22.5s13.833,9.5,22.5,9.5h64c8.667,0,16.167-3.167,22.5-9.5s9.5-13.833,9.5-22.5v-96h128v96  c0,8.667,3.167,16.167,9.5,22.5s13.833,9.5,22.5,9.5h64c8.667,0,16.167-3.167,22.5-9.5S896,616.667,896,608z M1408,576v1280  c0,17.333-6.333,32.333-19,45s-27.667,19-45,19H64c-17.333,0-32.333-6.333-45-19s-19-27.667-19-45V576c0-17.333,6.333-32.333,19-45  s27.667-19,45-19h320V224c0-26.667,9.333-49.333,28-68s41.333-28,68-28h448c26.667,0,49.333,9.333,68,28s28,41.333,28,68v288h320  c17.333,0,32.333,6.333,45,19S1408,558.667,1408,576z"/></svg>