<?xml version="1.0" ?><svg contentScriptType="text/ecmascript" contentStyleType="text/css" enable-background="new 0 0 2048 2048" height="2048px" id="Layer_1" preserveAspectRatio="xMidYMid meet" version="1.1" viewBox="0.0 0 1792.0 2048" width="1792.0px" xml:space="preserve" xmlns="http://www.w3.org/2000/svg" xmlns:xlink="http://www.w3.org/1999/xlink" zoomAndPan="magnify"><path d="M640,1210v70c0,28-13,47.667-39,59c-8.667,3.333-17,5-25,5c-18,0-33-6.333-45-19L19,813C6.333,800.333,0,785.333,0,768  s6.333-32.333,19-45l512-512c19.333-20.667,42.667-25.333,70-14c26,11.333,39,31,39,59v69L243,723c-12.667,12.667-19,27.667-19,45  s6.333,32.333,19,45L640,1210z M1792,1248c0,38.667-5.667,83.167-17,133.5s-24.167,96.333-38.5,138s-30.333,83.333-48,125  s-31.167,71.833-40.5,90.5l-20,40c-5.333,11.333-14.667,17-28,17c-4,0-7-0.333-9-1c-16.667-5.333-24.333-16.667-23-34  c28.667-266.667-6.667-455-106-565c-42.667-47.333-99.5-84.167-170.5-110.5s-160.167-43.833-267.5-52.5v251c0,28-13,47.667-39,59  c-8.667,3.333-17,5-25,5c-18,0-33-6.333-45-19L403,813c-12.667-12.667-19-27.667-19-45s6.333-32.333,19-45l512-512  c19.333-20.667,42.667-25.333,70-14c26,11.333,39,31,39,59v262c274,18.667,473.667,92.333,599,221  C1735.667,854.333,1792,1024,1792,1248z"/></svg>