<?xml version="1.0" ?><svg contentScriptType="text/ecmascript" contentStyleType="text/css" enable-background="new 0 0 2048 2048" height="2048px" id="Layer_1" preserveAspectRatio="xMidYMid meet" version="1.1" viewBox="0.0 0 1536.0 2048" width="1536.0px" xml:space="preserve" xmlns="http://www.w3.org/2000/svg" xmlns:xlink="http://www.w3.org/1999/xlink" zoomAndPan="magnify"><path d="M1248,256c79.333,0,147.167,28.167,203.5,84.5S1536,464.667,1536,544v960c0,79.333-28.167,147.167-84.5,203.5  S1327.333,1792,1248,1792H523c56.667-81.333,92.667-151.333,108-210c6-22.667,23.667-92.333,53-209c14,26,38.5,48.333,73.5,67  s72.5,28,112.5,28c120.667,0,219.167-49.167,295.5-147.5S1280,1097.667,1280,947c0-56-11.667-110.167-35-162.5  s-55.5-98.667-96.5-139c-41-40.333-91.833-72.667-152.5-97C935.333,524.167,869.667,512,799,512c-69.333,0-134.167,9.5-194.5,28.5  S493.167,585,451.5,617S374,685.5,344,726.5s-52.167,83.667-66.5,128S256,943,256,987c0,68,13.167,128,39.5,180  s65.167,88.667,116.5,110c8.667,3.333,16.5,3.333,23.5,0s11.833-9.667,14.5-19c6.667-29.333,11.667-49.667,15-61  c4-15.333,0.333-29.333-11-42c-33.333-41.333-50-91.333-50-150c0-100,34.5-185.5,103.5-256.5S666.667,642,778,642  c99.333,0,176.833,27,232.5,81c55.667,54,83.5,124,83.5,210c0,112-22.5,207.333-67.5,286c-45,78.667-102.833,118-173.5,118  c-40,0-72.333-14.5-97-43.5s-32.333-63.5-23-103.5c5.333-22.667,14.167-53.5,26.5-92.5s22.167-73,29.5-102s11-53.833,11-74.5  c0-32.667-8.833-59.833-26.5-81.5S730.667,807,698,807c-40.667,0-75.167,18.833-103.5,56.5S552,947.667,552,1003  c0,48,8,88.333,24,121l-98,414c-16,66.667-18.333,151.333-7,254H288c-79.333,0-147.167-28.167-203.5-84.5S0,1583.333,0,1504V544  c0-79.333,28.167-147.167,84.5-203.5S208.667,256,288,256H1248z"/></svg>