<?xml version="1.0" ?><svg contentScriptType="text/ecmascript" contentStyleType="text/css" enable-background="new 0 0 2048 2048" height="2048px" id="Layer_1" preserveAspectRatio="xMidYMid meet" version="1.1" viewBox="0.0 0 1664.0 2048" width="1664.0px" xml:space="preserve" xmlns="http://www.w3.org/2000/svg" xmlns:xlink="http://www.w3.org/1999/xlink" zoomAndPan="magnify"><path d="M160,1664h608V512H128v1120c0,8.667,3.167,16.167,9.5,22.5S151.333,1664,160,1664z M1536,1632V512H896v1152h608  c8.667,0,16.167-3.167,22.5-9.5S1536,1640.667,1536,1632z M1664,416v1216c0,44-15.667,81.667-47,113s-69,47-113,47H160  c-44,0-81.667-15.667-113-47s-47-69-47-113V416c0-44,15.667-81.667,47-113s69-47,113-47h1344c44,0,81.667,15.667,113,47  S1664,372,1664,416z"/></svg>