<?xml version="1.0" ?><svg contentScriptType="text/ecmascript" contentStyleType="text/css" enable-background="new 0 0 2048 2048" height="2048px" id="Layer_1" preserveAspectRatio="xMidYMid meet" version="1.1" viewBox="0.0 0 1024.0 2048" width="1024.0px" xml:space="preserve" xmlns="http://www.w3.org/2000/svg" xmlns:xlink="http://www.w3.org/1999/xlink" zoomAndPan="magnify"><path d="M288,1600c0-26.667-9.333-49.333-28-68s-41.333-28-68-28s-49.333,9.333-68,28s-28,41.333-28,68s9.333,49.333,28,68  s41.333,28,68,28s49.333-9.333,68-28S288,1626.667,288,1600z M288,448c0-26.667-9.333-49.333-28-68s-41.333-28-68-28  s-49.333,9.333-68,28s-28,41.333-28,68s9.333,49.333,28,68s41.333,28,68,28s49.333-9.333,68-28S288,474.667,288,448z M928,576  c0-26.667-9.333-49.333-28-68s-41.333-28-68-28s-49.333,9.333-68,28s-28,41.333-28,68s9.333,49.333,28,68  c18.667,18.667,41.333,28,68,28s49.333-9.333,68-28C918.667,625.333,928,602.667,928,576z M1024,576c0,34.667-8.667,66.833-26,96.5  s-40.667,52.833-70,69.5c-1.333,191.333-76.667,329.333-226,414c-45.333,25.333-113,52.333-203,81  c-85.333,26.667-141.833,50.333-169.5,71s-41.5,54-41.5,100v26c29.333,16.667,52.667,39.833,70,69.5s26,61.833,26,96.5  c0,53.333-18.667,98.667-56,136s-82.667,56-136,56s-98.667-18.667-136-56s-56-82.667-56-136c0-34.667,8.667-66.833,26-96.5  s40.667-52.833,70-69.5V614c-29.333-16.667-52.667-39.833-70-69.5S0,482.667,0,448c0-53.333,18.667-98.667,56-136s82.667-56,136-56  s98.667,18.667,136,56s56,82.667,56,136c0,34.667-8.667,66.833-26,96.5s-40.667,52.833-70,69.5v497c36-17.333,87.333-36.333,154-57  c36.667-11.333,65.833-21.167,87.5-29.5c21.667-8.333,45.167-18.667,70.5-31s45-25.5,59-39.5s27.5-31,40.5-51s22.333-43.167,28-69.5  s8.5-56.833,8.5-91.5c-29.333-16.667-52.667-39.833-70-69.5s-26-61.833-26-96.5c0-53.333,18.667-98.667,56-136s82.667-56,136-56  s98.667,18.667,136,56S1024,522.667,1024,576z"/></svg>