<?xml version="1.0" ?><svg contentScriptType="text/ecmascript" contentStyleType="text/css" enable-background="new 0 0 2048 2048" height="2048px" id="Layer_1" preserveAspectRatio="xMidYMid meet" version="1.1" viewBox="64.0 0 1856.0 2048" width="1856.0px" xml:space="preserve" xmlns="http://www.w3.org/2000/svg" xmlns:xlink="http://www.w3.org/1999/xlink" zoomAndPan="magnify"><path d="M640,1536c0-35.333-12.5-65.5-37.5-90.5S547.333,1408,512,1408s-65.5,12.5-90.5,37.5S384,1500.667,384,1536  s12.5,65.5,37.5,90.5s55.167,37.5,90.5,37.5s65.5-12.5,90.5-37.5S640,1571.333,640,1536z M256,1024h384V768H482  c-9.333,1.333-16.667,4.333-22,9L265,972c-4.667,8-7.667,15.333-9,22V1024z M1536,1536c0-35.333-12.5-65.5-37.5-90.5  s-55.167-37.5-90.5-37.5s-65.5,12.5-90.5,37.5s-37.5,55.167-37.5,90.5s12.5,65.5,37.5,90.5s55.167,37.5,90.5,37.5  s65.5-12.5,90.5-37.5S1536,1571.333,1536,1536z M1664,864V672c0-9.333-3-17-9-23s-13.667-9-23-9h-224V416c0-9.333-3-17-9-23  s-13.667-9-23-9h-192c-9.333,0-17,3-23,9s-9,13.667-9,23v224H928c-9.333,0-17,3-23,9s-9,13.667-9,23v192c0,9.333,3,17,9,23  s13.667,9,23,9h224v224c0,9.333,3,17,9,23s13.667,9,23,9h192c9.333,0,17-3,23-9s9-13.667,9-23V896h224c9.333,0,17-3,23-9  S1664,873.333,1664,864z M1920,320v1152c0,17.333-6.333,32.333-19,45s-27.667,19-45,19h-192c0,70.667-25,131-75,181  s-110.333,75-181,75s-131-25-181-75s-75-110.333-75-181H768c0,70.667-25,131-75,181s-110.333,75-181,75s-131-25-181-75  s-75-110.333-75-181H128c-17.333,0-32.333-6.333-45-19s-19-27.667-19-45s6.333-32.333,19-45s27.667-19,45-19V992  c0-17.333,4.333-36.667,13-58s19.333-38.333,32-51l198-198c12.667-12.667,29.667-23.333,51-32s40.667-13,58-13h160V320  c0-17.333,6.333-32.333,19-45s27.667-19,45-19h1152c17.333,0,32.333,6.333,45,19S1920,302.667,1920,320z"/></svg>