<?xml version="1.0" ?><svg contentScriptType="text/ecmascript" contentStyleType="text/css" enable-background="new 0 0 2048 2048" height="2048px" id="Layer_1" preserveAspectRatio="xMidYMid meet" version="1.1" viewBox="-1.3330001831054688 0 1411.166015625 2048" width="1411.166015625px" xml:space="preserve" xmlns="http://www.w3.org/2000/svg" xmlns:xlink="http://www.w3.org/1999/xlink" zoomAndPan="magnify"><path d="M1401,477L761,1757c-11.333,23.333-30.333,35-57,35c-3.333,0-8.333-0.667-15-2c-14.667-3.333-26.5-10.833-35.5-22.5  S640,1742.667,640,1728v-576H64c-14.667,0-27.833-4.5-39.5-13.5S5.333,1117.667,2,1103s-2-28.667,4-42s15.667-23.333,29-30l1280-640  c8.667-4.667,18.333-7,29-7c18,0,33,6.333,45,19c10,9.333,16.167,20.833,18.5,34.5S1407.667,464.333,1401,477z"/></svg>