<?xml version="1.0" ?><svg contentScriptType="text/ecmascript" contentStyleType="text/css" enable-background="new 0 0 2048 2048" height="2048px" id="Layer_1" preserveAspectRatio="xMidYMid meet" version="1.1" viewBox="0.0 0 1536.0 2048" width="1536.0px" xml:space="preserve" xmlns="http://www.w3.org/2000/svg" xmlns:xlink="http://www.w3.org/1999/xlink" zoomAndPan="magnify"><path d="M1536,1024c0,104-20.333,203.333-61,298s-95.333,176.333-164,245s-150.333,123.333-245,164s-194,61-298,61  c-114.667,0-223.667-24.167-327-72.5S249.667,1603,177,1515c-4.667-6.667-6.833-14.167-6.5-22.5s3.167-15.167,8.5-20.5l137-138  c6.667-6,15-9,25-9c10.667,1.333,18.333,5.333,23,12c48.667,63.333,108.333,112.333,179,147s145.667,52,225,52  c69.333,0,135.5-13.5,198.5-40.5S1084,1432,1130,1386s82.5-100.5,109.5-163.5s40.5-129.167,40.5-198.5s-13.5-135.5-40.5-198.5  S1176,708,1130,662s-100.5-82.5-163.5-109.5S837.333,512,768,512c-65.333,0-128,11.833-188,35.5S466.667,605,420,649l137,138  c20.667,20,25.333,43,14,69c-11.333,26.667-31,40-59,40H64c-17.333,0-32.333-6.333-45-19S0,849.333,0,832V384  c0-28,13.333-47.667,40-59c26-11.333,49-6.667,69,14l130,129c71.333-67.333,152.833-119.5,244.5-156.5S670,256,768,256  c104,0,203.333,20.333,298,61s176.333,95.333,245,164s123.333,150.333,164,245S1536,920,1536,1024z"/></svg>