<?xml version="1.0" ?><svg contentScriptType="text/ecmascript" contentStyleType="text/css" enable-background="new 0 0 2048 2048" height="2048px" id="Layer_1" preserveAspectRatio="xMidYMid meet" version="1.1" viewBox="0.0 0 1920.0 2048" width="1920.0px" xml:space="preserve" xmlns="http://www.w3.org/2000/svg" xmlns:xlink="http://www.w3.org/1999/xlink" zoomAndPan="magnify"><path d="M1280,1056c0-9.333-3-17-9-23s-13.667-9-23-9h-224V672c0-8.667-3.167-16.167-9.5-22.5s-13.833-9.5-22.5-9.5H800  c-8.667,0-16.167,3.167-22.5,9.5S768,663.333,768,672v352H544c-8.667,0-16.167,3.167-22.5,9.5s-9.5,13.833-9.5,22.5  c0,9.333,3,17,9,23l352,352c6,6,13.667,9,23,9s17-3,23-9l351-351C1276.667,1072,1280,1064,1280,1056z M1920,1280  c0,106-37.5,196.5-112.5,271.5S1642,1664,1536,1664H448c-123.333,0-228.833-43.833-316.5-131.5S0,1339.333,0,1216  c0-86.667,23.333-166.667,70-240s109.333-128.333,188-165c-1.333-20-2-34.333-2-43c0-141.333,50-262,150-362s220.667-150,362-150  c104,0,199.167,29,285.5,87s149.167,135,188.5,231c47.333-41.333,102.667-62,166-62c70.667,0,131,25,181,75s75,110.333,75,181  c0,50.667-13.667,96.667-41,138c86.667,20.667,157.833,65.833,213.5,135.5S1920,1190.667,1920,1280z"/></svg>