<?xml version="1.0" ?><svg contentScriptType="text/ecmascript" contentStyleType="text/css" enable-background="new 0 0 2048 2048" height="2048px" id="Layer_1" preserveAspectRatio="xMidYMid meet" version="1.1" viewBox="0.0 0 1536.0 2048" width="1536.0px" xml:space="preserve" xmlns="http://www.w3.org/2000/svg" xmlns:xlink="http://www.w3.org/1999/xlink" zoomAndPan="magnify"><path d="M1134,1357c5.333,16.667,4,32.833-4,48.5s-20.333,26.167-37,31.5s-33,4-49-4s-26.667-20.667-32-38  c-16.667-53.333-47.5-96.5-92.5-129.5S824,1216,768,1216s-106.5,16.5-151.5,49.5s-75.833,76.167-92.5,129.5  c-5.333,17.333-15.833,30-31.5,38s-31.833,9.333-48.5,4c-17.333-5.333-30-15.833-38-31.5s-9.333-31.833-4-48.5  c24.667-80.667,70.667-145.667,138-195c67.333-49.333,143.333-74,228-74s160.667,24.667,228,74  C1063.333,1211.333,1109.333,1276.333,1134,1357z M640,768c0,35.333-12.5,65.5-37.5,90.5S547.333,896,512,896s-65.5-12.5-90.5-37.5  S384,803.333,384,768s12.5-65.5,37.5-90.5S476.667,640,512,640s65.5,12.5,90.5,37.5S640,732.667,640,768z M1152,768  c0,35.333-12.5,65.5-37.5,90.5S1059.333,896,1024,896c-35.333,0-65.5-12.5-90.5-37.5S896,803.333,896,768s12.5-65.5,37.5-90.5  S988.667,640,1024,640c35.333,0,65.5,12.5,90.5,37.5S1152,732.667,1152,768z M1408,1024c0-86.667-17-169.5-51-248.5  s-79.5-147-136.5-204s-125-102.5-204-136.5S854.667,384,768,384s-169.5,17-248.5,51s-147,79.5-204,136.5S213,696.5,179,775.5  s-51,161.833-51,248.5s17,169.5,51,248.5s79.5,147,136.5,204s125,102.5,204,136.5s161.833,51,248.5,51s169.5-17,248.5-51  s147-79.5,204-136.5s102.5-125,136.5-204S1408,1110.667,1408,1024z M1536,1024c0,139.333-34.333,267.833-103,385.5  s-161.833,210.833-279.5,279.5S907.333,1792,768,1792s-267.833-34.333-385.5-103S171.667,1527.167,103,1409.5S0,1163.333,0,1024  s34.333-267.833,103-385.5S264.833,427.667,382.5,359S628.667,256,768,256s267.833,34.333,385.5,103s210.833,161.833,279.5,279.5  S1536,884.667,1536,1024z"/></svg>