<?xml version="1.0" ?><svg contentScriptType="text/ecmascript" contentStyleType="text/css" enable-background="new 0 0 2048 2048" height="2048px" id="Layer_1" preserveAspectRatio="xMidYMid meet" version="1.1" viewBox="0.0 0 1792.0 2048" width="1792.0px" xml:space="preserve" xmlns="http://www.w3.org/2000/svg" xmlns:xlink="http://www.w3.org/1999/xlink" zoomAndPan="magnify"><path d="M768,1792h896v-640h-416c-26.667,0-49.333-9.333-68-28s-28-41.333-28-68V640H768V1792z M1024,352v-64  c0-8.667-3.167-16.167-9.5-22.5s-13.833-9.5-22.5-9.5H288c-8.667,0-16.167,3.167-22.5,9.5S256,279.333,256,288v64  c0,8.667,3.167,16.167,9.5,22.5s13.833,9.5,22.5,9.5h704c8.667,0,16.167-3.167,22.5-9.5S1024,360.667,1024,352z M1280,1024h299  l-299-299V1024z M1792,1152v672c0,26.667-9.333,49.333-28,68s-41.333,28-68,28H736c-26.667,0-49.333-9.333-68-28s-28-41.333-28-68  v-160H96c-26.667,0-49.333-9.333-68-28s-28-41.333-28-68V224c0-26.667,9.333-49.333,28-68s41.333-28,68-28h1088  c26.667,0,49.333,9.333,68,28s28,41.333,28,68v328c14,8.667,26,18,36,28l408,408c18.667,18.667,34.667,44,48,76  S1792,1125.333,1792,1152z"/></svg>