<?xml version="1.0" ?><svg contentScriptType="text/ecmascript" contentStyleType="text/css" enable-background="new 0 0 2048 2048" height="2048px" id="Layer_1" preserveAspectRatio="xMidYMid meet" version="1.1" viewBox="0.0 0 1792.0 2048" width="1792.0px" xml:space="preserve" xmlns="http://www.w3.org/2000/svg" xmlns:xlink="http://www.w3.org/1999/xlink" zoomAndPan="magnify"><path d="M1792,1312v192c0,8.667-3.167,16.167-9.5,22.5s-13.833,9.5-22.5,9.5H384v192c0,8.667-3.167,16.167-9.5,22.5  s-13.833,9.5-22.5,9.5c-8,0-16-3.333-24-10L9,1430c-6-6-9-13.333-9-22c0-9.333,3-17,9-23l320-320c6-6,13.667-9,23-9  c8.667,0,16.167,3.167,22.5,9.5s9.5,13.833,9.5,22.5v192h1376c8.667,0,16.167,3.167,22.5,9.5S1792,1303.333,1792,1312z M1792,768  c0,9.333-3,17-9,23l-320,320c-6,6-13.667,9-23,9c-8.667,0-16.167-3.167-22.5-9.5s-9.5-13.833-9.5-22.5V896H32  c-8.667,0-16.167-3.167-22.5-9.5S0,872.667,0,864V672c0-8.667,3.167-16.167,9.5-22.5S23.333,640,32,640h1376V448c0-9.333,3-17,9-23  s13.667-9,23-9c8,0,16,3.333,24,10l319,319C1789,751,1792,758.667,1792,768z"/></svg>