<?xml version="1.0" ?><svg contentScriptType="text/ecmascript" contentStyleType="text/css" enable-background="new 0 0 2048 2048" height="2048px" id="Layer_1" preserveAspectRatio="xMidYMid meet" version="1.1" viewBox="0.0 0 1408.0 2048" width="1408.0px" xml:space="preserve" xmlns="http://www.w3.org/2000/svg" xmlns:xlink="http://www.w3.org/1999/xlink" zoomAndPan="magnify"><path d="M640,192v640c0,40.667-11.833,77.667-35.5,111s-54.5,56.667-92.5,70v779c0,34.667-12.667,64.667-38,90s-55.333,38-90,38H256  c-34.667,0-64.667-12.667-90-38s-38-55.333-38-90v-779c-38-13.333-68.833-36.667-92.5-70S0,872.667,0,832V192  c0-17.333,6.333-32.333,19-45s27.667-19,45-19s32.333,6.333,45,19s19,27.667,19,45v416c0,17.333,6.333,32.333,19,45s27.667,19,45,19  s32.333-6.333,45-19s19-27.667,19-45V192c0-17.333,6.333-32.333,19-45s27.667-19,45-19s32.333,6.333,45,19s19,27.667,19,45v416  c0,17.333,6.333,32.333,19,45s27.667,19,45,19s32.333-6.333,45-19s19-27.667,19-45V192c0-17.333,6.333-32.333,19-45s27.667-19,45-19  s32.333,6.333,45,19S640,174.667,640,192z M1408,192v1600c0,34.667-12.667,64.667-38,90s-55.333,38-90,38h-128  c-34.667,0-64.667-12.667-90-38s-38-55.333-38-90v-512H800c-8.667,0-16.167-3.167-22.5-9.5s-9.5-13.833-9.5-22.5V448  c0-88,31.333-163.333,94-226s138-94,226-94h256c17.333,0,32.333,6.333,45,19S1408,174.667,1408,192z"/></svg>