<?xml version="1.0" ?><svg contentScriptType="text/ecmascript" contentStyleType="text/css" enable-background="new 0 0 2048 2048" height="2048px" id="Layer_1" preserveAspectRatio="xMidYMid meet" version="1.1" viewBox="0.0 0 1664.0 2048" width="1664.0px" xml:space="preserve" xmlns="http://www.w3.org/2000/svg" xmlns:xlink="http://www.w3.org/1999/xlink" zoomAndPan="magnify"><path d="M896,956v580c0,69.333-25.333,129.333-76,180s-110.667,76-180,76s-129.333-25.333-180-76s-76-110.667-76-180  c0-17.333,6.333-32.333,19-45s27.667-19,45-19s32.333,6.333,45,19s19,27.667,19,45c0,33.333,13,63,39,89s55.667,39,89,39  s63-13,89-39s39-55.667,39-89V956c22-7.333,43.333-11,64-11S874,948.667,896,956z M1664,983c0,8.667-3.167,16.167-9.5,22.5  s-13.833,9.5-22.5,9.5c-7.333,0-15-3.333-23-10c-32.667-30.667-63.667-53.667-93-69s-63.333-23-102-23c-45.333,0-88,12.333-128,37  s-74.333,57-103,97c-4.667,6.667-10.5,16-17.5,28s-11.833,20-14.5,24c-7.333,11.333-16.667,17-28,17c-12,0-21.667-5.667-29-17  c-2.667-4-7.5-12-14.5-24s-12.833-21.333-17.5-28c-28.667-40-62.833-72.333-102.5-97s-82.167-37-127.5-37s-87.833,12.333-127.5,37  s-73.833,57-102.5,97c-4.667,6.667-10.5,16-17.5,28s-11.833,20-14.5,24c-7.333,11.333-17,17-29,17c-11.333,0-20.667-5.667-28-17  c-2.667-4-7.5-12-14.5-24s-12.833-21.333-17.5-28c-28.667-40-63-72.333-103-97s-82.667-37-128-37c-38.667,0-72.667,7.667-102,23  s-60.333,38.333-93,69c-8,6.667-15.667,10-23,10c-8.667,0-16.167-3.167-22.5-9.5S0,991.667,0,983c0-3.333,0.333-5.667,1-7  c30-122,87.5-228.5,172.5-319.5s184.333-159.167,298-204.5s233.833-68,360.5-68c93.333,0,184.833,13.333,274.5,40  s171.833,64.5,246.5,113.5s139.5,111.333,194.5,187S1641,884,1663,976C1663.667,977.333,1664,979.667,1664,983z M896,256v98  c-28-1.333-49.333-2-64-2s-36,0.667-64,2v-98c0-17.333,6.333-32.333,19-45s27.667-19,45-19s32.333,6.333,45,19S896,238.667,896,256z  "/></svg>