<?xml version="1.0" ?><svg contentScriptType="text/ecmascript" contentStyleType="text/css" enable-background="new 0 0 2048 2048" height="2048px" id="Layer_1" preserveAspectRatio="xMidYMid meet" version="1.1" viewBox="0.0 0 1536.0 2048" width="1536.0px" xml:space="preserve" xmlns="http://www.w3.org/2000/svg" xmlns:xlink="http://www.w3.org/1999/xlink" zoomAndPan="magnify"><path d="M768,480c-98.667,0-189.667,24.333-273,73S345.667,667.667,297,751s-73,174.333-73,273s24.333,189.667,73,273  s114.667,149.333,198,198s174.333,73,273,73s189.667-24.333,273-73s149.333-114.667,198-198s73-174.333,73-273  s-24.333-189.667-73-273s-114.667-149.333-198-198S866.667,480,768,480z M1536,1024c0,139.333-34.333,267.833-103,385.5  s-161.833,210.833-279.5,279.5S907.333,1792,768,1792s-267.833-34.333-385.5-103S171.667,1527.167,103,1409.5S0,1163.333,0,1024  s34.333-267.833,103-385.5S264.833,427.667,382.5,359S628.667,256,768,256s267.833,34.333,385.5,103s210.833,161.833,279.5,279.5  S1536,884.667,1536,1024z"/></svg>