<?xml version="1.0" ?><svg contentScriptType="text/ecmascript" contentStyleType="text/css" enable-background="new 0 0 2048 2048" height="2048px" id="Layer_1" preserveAspectRatio="xMidYMid meet" version="1.1" viewBox="0.0 0 1920.0 2048" width="1920.0px" xml:space="preserve" xmlns="http://www.w3.org/2000/svg" xmlns:xlink="http://www.w3.org/1999/xlink" zoomAndPan="magnify"><path d="M1792,1120V288c0-8.667-3.167-16.167-9.5-22.5s-13.833-9.5-22.5-9.5H160c-8.667,0-16.167,3.167-22.5,9.5  S128,279.333,128,288v832c0,8.667,3.167,16.167,9.5,22.5s13.833,9.5,22.5,9.5h1600c8.667,0,16.167-3.167,22.5-9.5  S1792,1128.667,1792,1120z M1920,288v1088c0,44-15.667,81.667-47,113s-69,47-113,47h-544c0,24.667,5.333,50.5,16,77.5  s21.333,50.667,32,71s16,34.833,16,43.5c0,17.333-6.333,32.333-19,45s-27.667,19-45,19H704c-17.333,0-32.333-6.333-45-19  s-19-27.667-19-45c0-9.333,5.333-24,16-44s21.333-43.333,32-70s16-52.667,16-78H160c-44,0-81.667-15.667-113-47s-47-69-47-113V288  c0-44,15.667-81.667,47-113s69-47,113-47h1600c44,0,81.667,15.667,113,47S1920,244,1920,288z"/></svg>