<?xml version="1.0" ?><svg contentScriptType="text/ecmascript" contentStyleType="text/css" enable-background="new 0 0 2048 2048" height="2048px" id="Layer_1" preserveAspectRatio="xMidYMid meet" version="1.1" viewBox="0.0 0 1152.0 2048" width="1152.0px" xml:space="preserve" xmlns="http://www.w3.org/2000/svg" xmlns:xlink="http://www.w3.org/1999/xlink" zoomAndPan="magnify"><path d="M640,1536c0-17.333-6.333-32.333-19-45s-27.667-19-45-19s-32.333,6.333-45,19s-19,27.667-19,45s6.333,32.333,19,45  s27.667,19,45,19s32.333-6.333,45-19S640,1553.333,640,1536z M1024,1376V416c0-8.667-3.167-16.167-9.5-22.5s-13.833-9.5-22.5-9.5  H160c-8.667,0-16.167,3.167-22.5,9.5S128,407.333,128,416v960c0,8.667,3.167,16.167,9.5,22.5s13.833,9.5,22.5,9.5h832  c8.667,0,16.167-3.167,22.5-9.5S1024,1384.667,1024,1376z M1152,416v1088c0,44-15.667,81.667-47,113s-69,47-113,47H160  c-44,0-81.667-15.667-113-47s-47-69-47-113V416c0-44,15.667-81.667,47-113s69-47,113-47h832c44,0,81.667,15.667,113,47  S1152,372,1152,416z"/></svg>