<?xml version="1.0" ?><svg contentScriptType="text/ecmascript" contentStyleType="text/css" enable-background="new 0 0 2048 2048" height="2048px" id="Layer_1" preserveAspectRatio="xMidYMid meet" version="1.1" viewBox="0.0 0 1536.0 2048" width="1536.0px" xml:space="preserve" xmlns="http://www.w3.org/2000/svg" xmlns:xlink="http://www.w3.org/1999/xlink" zoomAndPan="magnify"><path d="M1134,1203c-24.667,80.667-70.667,145.667-138,195s-143.333,74-228,74s-160.667-24.667-228-74s-113.333-114.333-138-195  c-5.333-16.667-4-32.833,4-48.5c8-15.667,20.667-26.167,38-31.5c16.667-5.333,32.833-4,48.5,4s26.167,20.667,31.5,38  c16.667,53.333,47.5,96.5,92.5,129.5S712,1344,768,1344s106.5-16.5,151.5-49.5s75.833-76.167,92.5-129.5c5.333-17.333,16-30,32-38  s32.333-9.333,49-4s29,15.833,37,31.5C1138,1170.167,1139.333,1186.333,1134,1203z M640,768c0,35.333-12.5,65.5-37.5,90.5  S547.333,896,512,896s-65.5-12.5-90.5-37.5S384,803.333,384,768s12.5-65.5,37.5-90.5S476.667,640,512,640s65.5,12.5,90.5,37.5  S640,732.667,640,768z M1152,768c0,35.333-12.5,65.5-37.5,90.5S1059.333,896,1024,896c-35.333,0-65.5-12.5-90.5-37.5  S896,803.333,896,768s12.5-65.5,37.5-90.5S988.667,640,1024,640c35.333,0,65.5,12.5,90.5,37.5S1152,732.667,1152,768z M1408,1024  c0-86.667-17-169.5-51-248.5s-79.5-147-136.5-204s-125-102.5-204-136.5S854.667,384,768,384s-169.5,17-248.5,51s-147,79.5-204,136.5  S213,696.5,179,775.5s-51,161.833-51,248.5s17,169.5,51,248.5s79.5,147,136.5,204s125,102.5,204,136.5s161.833,51,248.5,51  s169.5-17,248.5-51s147-79.5,204-136.5s102.5-125,136.5-204S1408,1110.667,1408,1024z M1536,1024  c0,139.333-34.333,267.833-103,385.5s-161.833,210.833-279.5,279.5S907.333,1792,768,1792s-267.833-34.333-385.5-103  S171.667,1527.167,103,1409.5S0,1163.333,0,1024s34.333-267.833,103-385.5S264.833,427.667,382.5,359S628.667,256,768,256  s267.833,34.333,385.5,103s210.833,161.833,279.5,279.5S1536,884.667,1536,1024z"/></svg>