<?xml version="1.0" ?><svg contentScriptType="text/ecmascript" contentStyleType="text/css" enable-background="new 0 0 2048 2048" height="2048px" id="Layer_1" preserveAspectRatio="xMidYMid meet" version="1.1" viewBox="0.0 0 1408.0 2048" width="1408.0px" xml:space="preserve" xmlns="http://www.w3.org/2000/svg" xmlns:xlink="http://www.w3.org/1999/xlink" zoomAndPan="magnify"><path d="M1280,832c0-17.333-6.333-32.333-19-45s-27.667-19-45-19s-32.333,6.333-45,19s-19,27.667-19,45s6.333,32.333,19,45  s27.667,19,45,19s32.333-6.333,45-19S1280,849.333,1280,832z M1408,832c0,41.333-11.833,78.333-35.5,111s-54.5,56-92.5,70v395  c0,106-43.833,196.5-131.5,271.5S955.333,1792,832,1792s-228.833-37.5-316.5-112.5S384,1514,384,1408v-132  c-109.333-13.333-200.667-56-274-128S0,992,0,896V384c0-17.333,6.333-32.333,19-45s27.667-19,45-19c4,0,9.333,0.667,16,2  c11.333-20,27-36,47-48s41.667-18,65-18c35.333,0,65.5,12.5,90.5,37.5S320,348.667,320,384s-12.5,65.5-37.5,90.5  S227.333,512,192,512c-22,0-43.333-6-64-18v402c0,70.667,31.333,131,94,181s138,75,226,75s163.333-25,226-75s94-110.333,94-181V494  c-20.667,12-42,18-64,18c-35.333,0-65.5-12.5-90.5-37.5S576,419.333,576,384s12.5-65.5,37.5-90.5S668.667,256,704,256  c23.333,0,45,6,65,18s35.667,28,47,48c6.667-1.333,12-2,16-2c17.333,0,32.333,6.333,45,19s19,27.667,19,45v512  c0,96-36.667,180-110,252s-164.667,114.667-274,128v132c0,70.667,31.333,131,94,181s138,75,226,75s163.333-25,226-75  s94-110.333,94-181v-395c-38-14-68.833-37.333-92.5-70s-35.5-69.667-35.5-111c0-53.333,18.667-98.667,56-136s82.667-56,136-56  s98.667,18.667,136,56S1408,778.667,1408,832z"/></svg>