<?xml version="1.0" ?><svg contentScriptType="text/ecmascript" contentStyleType="text/css" enable-background="new 0 0 2048 2048" height="2048px" id="Layer_1" preserveAspectRatio="xMidYMid meet" version="1.1" viewBox="0.0 0 1792.0 2048" width="1792.0px" xml:space="preserve" xmlns="http://www.w3.org/2000/svg" xmlns:xlink="http://www.w3.org/1999/xlink" zoomAndPan="magnify"><path d="M640,512h512V384H640V512z M288,512v1280h-64c-61.333,0-114-22-158-66s-66-96.667-66-158V736c0-61.333,22-114,66-158  s96.667-66,158-66H288z M1408,512v1280H384V512h128V352c0-26.667,9.333-49.333,28-68s41.333-28,68-28h576  c26.667,0,49.333,9.333,68,28s28,41.333,28,68v160H1408z M1792,736v832c0,61.333-22,114-66,158s-96.667,66-158,66h-64V512h64  c61.333,0,114,22,158,66S1792,674.667,1792,736z"/></svg>