<?xml version="1.0" ?><svg contentScriptType="text/ecmascript" contentStyleType="text/css" enable-background="new 0 0 2048 2048" height="2048px" id="Layer_1" preserveAspectRatio="xMidYMid meet" version="1.1" viewBox="0.0 0 1792.0 2048" width="1792.0px" xml:space="preserve" xmlns="http://www.w3.org/2000/svg" xmlns:xlink="http://www.w3.org/1999/xlink" zoomAndPan="magnify"><path d="M384,1280c0-35.333-12.5-65.5-37.5-90.5S291.333,1152,256,1152s-65.5,12.5-90.5,37.5S128,1244.667,128,1280  s12.5,65.5,37.5,90.5s55.167,37.5,90.5,37.5s65.5-12.5,90.5-37.5S384,1315.333,384,1280z M576,832c0-35.333-12.5-65.5-37.5-90.5  S483.333,704,448,704s-65.5,12.5-90.5,37.5S320,796.667,320,832s12.5,65.5,37.5,90.5S412.667,960,448,960s65.5-12.5,90.5-37.5  S576,867.333,576,832z M1004,1313l101-382c4-17.333,1.5-33.5-7.5-48.5s-21.833-24.833-38.5-29.5s-32.667-2.5-48,6.5  c-15.333,9-25.333,22.167-30,39.5l-101,382c-40,3.333-75.667,17.833-107,43.5s-52.333,58.5-63,98.5c-13.333,51.333-6.667,100,20,146  s65.667,75.667,117,89s100,6.667,146-20s75.667-65.667,89-117c10.667-40,8.667-79-6-117S1037.333,1335.667,1004,1313z M1664,1280  c0-35.333-12.5-65.5-37.5-90.5s-55.167-37.5-90.5-37.5s-65.5,12.5-90.5,37.5s-37.5,55.167-37.5,90.5s12.5,65.5,37.5,90.5  s55.167,37.5,90.5,37.5s65.5-12.5,90.5-37.5S1664,1315.333,1664,1280z M1024,640c0-35.333-12.5-65.5-37.5-90.5S931.333,512,896,512  s-65.5,12.5-90.5,37.5S768,604.667,768,640c0,35.333,12.5,65.5,37.5,90.5S860.667,768,896,768s65.5-12.5,90.5-37.5  S1024,675.333,1024,640z M1472,832c0-35.333-12.5-65.5-37.5-90.5S1379.333,704,1344,704s-65.5,12.5-90.5,37.5S1216,796.667,1216,832  s12.5,65.5,37.5,90.5s55.167,37.5,90.5,37.5s65.5-12.5,90.5-37.5S1472,867.333,1472,832z M1792,1280c0,174-47,335-141,483  c-12.667,19.333-30.667,29-54,29H195c-23.333,0-41.333-9.667-54-29C47,1615.667,0,1454.667,0,1280c0-121.333,23.667-237.333,71-348  s111-206,191-286s175.333-143.667,286-191s226.667-71,348-71s237.333,23.667,348,71s206,111,286,191s143.667,175.333,191,286  S1792,1158.667,1792,1280z"/></svg>