<?xml version="1.0" ?><svg contentScriptType="text/ecmascript" contentStyleType="text/css" enable-background="new 0 0 2048 2048" height="2048px" id="Layer_1" preserveAspectRatio="xMidYMid meet" version="1.1" viewBox="0.0 0 1536.0 2048" width="1536.0px" xml:space="preserve" xmlns="http://www.w3.org/2000/svg" xmlns:xlink="http://www.w3.org/1999/xlink" zoomAndPan="magnify"><path d="M1283,669l-355,355l355,355l144-144c19.333-20.667,42.667-25.333,70-14c26,11.333,39,31,39,59v448  c0,17.333-6.333,32.333-19,45s-27.667,19-45,19h-448c-28,0-47.667-13.333-59-40c-11.333-26-6.667-49,14-69l144-144l-355-355  l-355,355l144,144c20.667,20,25.333,43,14,69c-11.333,26.667-31,40-59,40H64c-17.333,0-32.333-6.333-45-19s-19-27.667-19-45v-448  c0-28,13.333-47.667,40-59c26-11.333,49-6.667,69,14l144,144l355-355L253,669L109,813c-12.667,12.667-27.667,19-45,19  c-8,0-16-1.667-24-5c-26.667-11.333-40-31-40-59V320c0-17.333,6.333-32.333,19-45s27.667-19,45-19h448c28,0,47.667,13.333,59,40  c11.333,26,6.667,49-14,69L413,509l355,355l355-355L979,365c-20.667-20-25.333-43-14-69c11.333-26.667,31-40,59-40h448  c17.333,0,32.333,6.333,45,19s19,27.667,19,45v448c0,28-13,47.667-39,59c-8.667,3.333-17,5-25,5c-17.333,0-32.333-6.333-45-19  L1283,669z"/></svg>