<?xml version="1.0" ?><svg contentScriptType="text/ecmascript" contentStyleType="text/css" enable-background="new 0 0 2048 2048" height="2048px" id="Layer_1" preserveAspectRatio="xMidYMid meet" version="1.1" viewBox="0.0 0 1792.0 2048" width="1792.0px" xml:space="preserve" xmlns="http://www.w3.org/2000/svg" xmlns:xlink="http://www.w3.org/1999/xlink" zoomAndPan="magnify"><path d="M960,384c0-17.333-6.333-32.333-19-45s-27.667-19-45-19s-32.333,6.333-45,19s-19,27.667-19,45s6.333,32.333,19,45  s27.667,19,45,19s32.333-6.333,45-19S960,401.333,960,384z M1792,1312v352c0,14.667-6.667,24.667-20,30c-5.333,1.333-9.333,2-12,2  c-8.667,0-16.333-3-23-9l-93-93c-79.333,95.333-185.5,170.833-318.5,226.5S1049.333,1904,896,1904s-296.5-27.833-429.5-83.5  S227.333,1689.333,148,1594l-93,93c-6,6-13.667,9-23,9c-2.667,0-6.667-0.667-12-2c-13.333-5.333-20-15.333-20-30v-352  c0-9.333,3-17,9-23s13.667-9,23-9h352c14.667,0,24.667,6.667,30,20c5.333,12.667,3,24.333-7,35l-100,100  c44.667,60.667,107.833,111.833,189.5,153.5s172.167,69.167,271.5,82.5v-647H576c-17.333,0-32.333-6.333-45-19s-19-27.667-19-45V832  c0-17.333,6.333-32.333,19-45s27.667-19,45-19h192V605c-38.667-22.667-69.667-53.5-93-92.5s-35-81.833-35-128.5  c0-70.667,25-131,75-181s110.333-75,181-75s131,25,181,75s75,110.333,75,181c0,46.667-11.667,89.5-35,128.5s-54.333,69.833-93,92.5  v163h192c17.333,0,32.333,6.333,45,19s19,27.667,19,45v128c0,17.333-6.333,32.333-19,45s-27.667,19-45,19h-192v647  c99.333-13.333,189.833-40.833,271.5-82.5s144.833-92.833,189.5-153.5l-100-100c-10-10.667-12.333-22.333-7-35  c5.333-13.333,15.333-20,30-20h352c9.333,0,17,3,23,9S1792,1302.667,1792,1312z"/></svg>