<?xml version="1.0" ?><svg contentScriptType="text/ecmascript" contentStyleType="text/css" enable-background="new 0 0 2048 2048" height="2048px" id="Layer_1" preserveAspectRatio="xMidYMid meet" version="1.1" viewBox="0.0 0 1536.0 2048" width="1536.0px" xml:space="preserve" xmlns="http://www.w3.org/2000/svg" xmlns:xlink="http://www.w3.org/1999/xlink" zoomAndPan="magnify"><path d="M1254,765c10.667-56.667,3.667-100.667-21-132c-34.667-43.333-97-58.333-187-45c-11.333,2-25,6.167-41,12.5  S969.833,617,947.5,631s-43.833,30.167-64.5,48.5s-40.5,41.667-59.5,70S789.667,808.333,779,841c53.333-4.667,91.167,0.667,113.5,16  s31.167,48.333,26.5,99c-3.333,34.667-20.667,82.333-52,143c-28.667,52-52.333,85-71,99c-29.333,21.333-58.333,16.667-87-14  c-15.333-16-27.833-37.5-37.5-64.5s-16-51.333-19-73s-6.333-49.667-10-84S636,904.333,634,891c-15.333-86-26.667-140.667-34-164  c-8-24.667-19.833-47.667-35.5-69c-15.667-21.333-32.5-34.667-50.5-40c-38-10.667-80.333-2.333-127,25  c-36,21.333-81.5,56.667-136.5,106S154.667,832.333,128,851v7c10.667,5.333,19.167,14,25.5,26s13.5,18.667,21.5,20  c14,2,32.167-0.833,54.5-8.5s41.667-11.167,58-10.5s30.167,10.667,41.5,30c7.333,12,13.5,24.833,18.5,38.5s10,29.667,15,48  s9.167,31.833,12.5,40.5c11.333,30.667,29,93,53,187c24,97.333,43,163,57,197c28,66,62.333,107.667,103,125c28.667,8,57,8.5,85,1.5  s53.333-17.5,76-31.5c87.333-51.333,170.667-130.333,250-237c69.333-92.667,126.833-190.167,172.5-292.5S1244.667,813.667,1254,765z   M1536,544v960c0,79.333-28.167,147.167-84.5,203.5S1327.333,1792,1248,1792H288c-79.333,0-147.167-28.167-203.5-84.5  S0,1583.333,0,1504V544c0-79.333,28.167-147.167,84.5-203.5S208.667,256,288,256h960c79.333,0,147.167,28.167,203.5,84.5  S1536,464.667,1536,544z"/></svg>