<?xml version="1.0" ?><svg contentScriptType="text/ecmascript" contentStyleType="text/css" enable-background="new 0 0 2048 2048" height="2048px" id="Layer_1" preserveAspectRatio="xMidYMid meet" version="1.1" viewBox="-1.3330001831054688 0 1029.666015625 2048" width="1029.666015625px" xml:space="preserve" xmlns="http://www.w3.org/2000/svg" xmlns:xlink="http://www.w3.org/1999/xlink" zoomAndPan="magnify"><path d="M603,1664H431c-8.667,0-16.167-3-22.5-9s-9.5-13.667-9.5-23v-330H111c-8.667,0-16.167-3-22.5-9s-9.5-13.667-9.5-23v-103  c0-8.667,3.167-16.167,9.5-22.5s13.833-9.5,22.5-9.5h288v-85H111c-8.667,0-16.167-3-22.5-9s-9.5-13.667-9.5-23V914  c0-8.667,3.167-16.167,9.5-22.5s13.833-9.5,22.5-9.5h214L4,304c-5.333-10.667-5.333-21.333,0-32c6.667-10.667,16-16,28-16h194  c12.667,0,22.333,6,29,18l215,425c12.667,25.333,31.333,67,56,125c6.667-16,16.833-38.667,30.5-68s22.833-49.667,27.5-61l191-420  c5.333-12.667,15-19,29-19h191c11.333,0,20.333,5.333,27,16c6,9.333,6.333,19.667,1,31L710,882h215c8.667,0,16.167,3.167,22.5,9.5  s9.5,13.833,9.5,22.5v104c0,9.333-3.167,17-9.5,23s-13.833,9-22.5,9H635v85h290c8.667,0,16.167,3.167,22.5,9.5s9.5,13.833,9.5,22.5  v103c0,9.333-3.167,17-9.5,23s-13.833,9-22.5,9H635v330c0,8.667-3.167,16.167-9.5,22.5S611.667,1664,603,1664z"/></svg>