<?xml version="1.0" ?><svg contentScriptType="text/ecmascript" contentStyleType="text/css" enable-background="new 0 0 2048 2048" height="2048px" id="Layer_1" preserveAspectRatio="xMidYMid meet" version="1.1" viewBox="0.0 0 1540.0 2048" width="1540.0px" xml:space="preserve" xmlns="http://www.w3.org/2000/svg" xmlns:xlink="http://www.w3.org/1999/xlink" zoomAndPan="magnify"><path d="M1483,1152l-587,587c-34.667,35.333-77.167,53-127.5,53s-93.167-17.667-128.5-53L53,1152c-35.333-35.333-53-78-53-128  s17.667-92.667,53-128l587-587c35.333-35.333,78-53,128-53s92.667,17.667,128,53l265,265L763,973L575,785c-28-28-61-42-99-42  c-39.333,0-72.667,13.667-100,41L256,905c-28,26.667-42,59.667-42,99c0,38.667,14,72,42,100l406,408c20,18.667,42.333,31,67,37l6,4  h28c40,0,73-13.667,99-41l619-619l2,3c35.333,35.333,53,78,53,128S1518.333,1116.667,1483,1152z M1406,526l120,120  c9.333,10,14,22,14,36s-4.667,26-14,36l-730,730c-11.333,10-23.667,15-37,15l0,0c-2.667,0-4.667-0.333-6-1c-12-1.333-22-6-30-14  l-407-408c-9.333-10-14-22-14-36s4.667-25.667,14-35l121-120c8.667-10,20.333-15,35-15s26.667,5,36,15l252,252l574-575  c10-10,22-15,36-15S1396,516,1406,526z"/></svg>