<?xml version="1.0" ?><svg contentScriptType="text/ecmascript" contentStyleType="text/css" enable-background="new 0 0 2048 2048" height="2048px" id="Layer_1" preserveAspectRatio="xMidYMid meet" version="1.1" viewBox="-2.1669998168945312 0 1410.1669921875 2048" width="1410.1669921875px" xml:space="preserve" xmlns="http://www.w3.org/2000/svg" xmlns:xlink="http://www.w3.org/1999/xlink" zoomAndPan="magnify"><path d="M512,320c0-17.333-6.333-32.333-19-45s-27.667-19-45-19s-32.333,6.333-45,19s-19,27.667-19,45s6.333,32.333,19,45  s27.667,19,45,19s32.333-6.333,45-19S512,337.333,512,320z M1408,288v320c0,10.667-4,19-12,25c-5.333,4.667-12,7-20,7  c-2.667,0-5-0.333-7-1l-448-96c-7.333-1.333-13.333-5-18-11s-7-12.667-7-20H640v102c74,15.333,135.167,52.333,183.5,111  S896,851.333,896,928v800c0,17.333-6.333,32.333-19,45s-27.667,19-45,19H320c-17.333,0-32.333-6.333-45-19s-19-27.667-19-45V928  c0-70.667,20.833-134.167,62.5-190.5S414,643,480,623V512h-32c-39.333,0-77.667,7.833-115,23.5s-67.833,33.333-91.5,53  s-45.667,41.833-66,66.5c-20.333,24.667-33.833,42.5-40.5,53.5s-11.333,19.167-14,24.5c-11.333,23.333-30.333,35-57,35  c-10.667,0-20.333-2.333-29-7c-15.333-8-25.833-20.333-31.5-37S-1,691,7,675c3.333-6.667,8.167-15.333,14.5-26  c6.333-10.667,18.833-28.5,37.5-53.5s38.833-48.333,60.5-70s50-44,85-67S275.667,418,313,406c-16.667-28-25-56.667-25-86  c0-44,15.667-81.667,47-113s69-47,113-47s81.667,15.667,113,47s47,69,47,113c0,22-4.667,43.333-14,64h302c0-7.333,2.333-14,7-20  s10.667-9.667,18-11l448-96c2-0.667,4.333-1,7-1c8,0,14.667,2.333,20,7C1404,269,1408,277.333,1408,288z"/></svg>