<?xml version="1.0" ?><svg contentScriptType="text/ecmascript" contentStyleType="text/css" enable-background="new 0 0 2048 2048" height="2048px" id="Layer_1" preserveAspectRatio="xMidYMid meet" version="1.1" viewBox="0.0 0 1536.0 2048" width="1536.0px" xml:space="preserve" xmlns="http://www.w3.org/2000/svg" xmlns:xlink="http://www.w3.org/1999/xlink" zoomAndPan="magnify"><path d="M1248,256c79.333,0,147.167,28.167,203.5,84.5S1536,464.667,1536,544v960c0,79.333-28.167,147.167-84.5,203.5  S1327.333,1792,1248,1792H288c-79.333,0-147.167-28.167-203.5-84.5S0,1583.333,0,1504V544c0-79.333,28.167-147.167,84.5-203.5  S208.667,256,288,256H1248z M698,1024c0-58.667-20.667-108.667-62-150s-91.333-62-150-62s-108.667,20.667-150,62s-62,91.333-62,150  c0,58.667,20.667,108.667,62,150c41.333,41.333,91.333,62,150,62s108.667-20.667,150-62C677.333,1132.667,698,1082.667,698,1024z   M1262,1024c0-58.667-20.667-108.667-62-150s-91.333-62-150-62c-58.667,0-108.667,20.667-150,62s-62,91.333-62,150  c0,58.667,20.667,108.667,62,150c41.333,41.333,91.333,62,150,62c58.667,0,108.667-20.667,150-62  C1241.333,1132.667,1262,1082.667,1262,1024z"/></svg>