<?xml version="1.0" ?><svg contentScriptType="text/ecmascript" contentStyleType="text/css" enable-background="new 0 0 2048 2048" height="2048px" id="Layer_1" preserveAspectRatio="xMidYMid meet" version="1.1" viewBox="0.0 0 1024.0 2048" width="1024.0px" xml:space="preserve" xmlns="http://www.w3.org/2000/svg" xmlns:xlink="http://www.w3.org/1999/xlink" zoomAndPan="magnify"><path d="M1024,832v416c0,26.667-9.333,49.333-28,68s-41.333,28-68,28s-49.333-9.333-68-28s-28-41.333-28-68V896h-64v912  c0,30.667-11,57-33,79s-48.333,33-79,33s-57-11-79-33s-33-48.333-33-79v-464h-64v464c0,30.667-11,57-33,79s-48.333,33-79,33  s-57-11-79-33s-33-48.333-33-79V896h-64v352c0,26.667-9.333,49.333-28,68s-41.333,28-68,28s-49.333-9.333-68-28s-28-41.333-28-68  V832c0-53.333,18.667-98.667,56-136s82.667-56,136-56h640c53.333,0,98.667,18.667,136,56S1024,778.667,1024,832z M736,384  c0,62-21.833,114.833-65.5,158.5S574,608,512,608s-114.833-21.833-158.5-65.5S288,446,288,384s21.833-114.833,65.5-158.5  S450,160,512,160s114.833,21.833,158.5,65.5S736,322,736,384z"/></svg>