<?xml version="1.0" ?><svg contentScriptType="text/ecmascript" contentStyleType="text/css" enable-background="new 0 0 2048 2048" height="2048px" id="Layer_1" preserveAspectRatio="xMidYMid meet" version="1.1" viewBox="0.0 0 1536.0 2048" width="1536.0px" xml:space="preserve" xmlns="http://www.w3.org/2000/svg" xmlns:xlink="http://www.w3.org/1999/xlink" zoomAndPan="magnify"><path d="M1133,1698c-114,62.667-236.667,94-368,94c-130.667,0-253-31.333-367-94c92-58,170.5-128.333,235.5-211  s108.833-172,131.5-268c23.333,96,67.5,185.333,132.5,268S1041,1640,1133,1698z M638,270v485c0,168-42.167,321.167-126.5,459.5  S317,1455,181,1521C60.333,1377.667,0,1212.667,0,1026c0-124.667,27.833-241.167,83.5-349.5S215.667,478.333,313,407  S518.667,290,638,270z M1536,1026c0,186.667-60.333,351.667-181,495c-136-66-246.167-168.167-330.5-306.5S898,923,898,755V270  c119.333,20,227.667,65.667,325,137s173.833,161.167,229.5,269.5S1536,901.333,1536,1026z"/></svg>