<?xml version="1.0" ?><svg contentScriptType="text/ecmascript" contentStyleType="text/css" enable-background="new 0 0 2048 2048" height="2048px" id="Layer_1" preserveAspectRatio="xMidYMid meet" version="1.1" viewBox="0.0 0 1536.0 2048" width="1536.0px" xml:space="preserve" xmlns="http://www.w3.org/2000/svg" xmlns:xlink="http://www.w3.org/1999/xlink" zoomAndPan="magnify"><path d="M685,893c0-0.667-42-74.667-126-222c-14-22.667-31.333-34-52-34H323c-12,0-20.667,3.667-26,11c-4.667,8-4.333,17.667,1,29  l125,216v1l-196,346c-6,9.333-6,18.667,0,28c5.333,8.667,13.333,13,24,13h185c20.667,0,37.333-12,50-36L685,893z M1309,396  c-4.667-8-12.667-12-24-12h-187c-20,0-36.333,11.667-49,35l-411,729c0.667,1.333,88,161.667,262,481c13.333,23.333,30.667,35,52,35  h184c12,0,20.333-4,25-12c5.333-8.667,5-18-1-28l-260-476v-1l409-723C1314.333,413.333,1314.333,404,1309,396z M1536,544v960  c0,79.333-28.167,147.167-84.5,203.5S1327.333,1792,1248,1792H288c-79.333,0-147.167-28.167-203.5-84.5S0,1583.333,0,1504V544  c0-79.333,28.167-147.167,84.5-203.5S208.667,256,288,256h960c79.333,0,147.167,28.167,203.5,84.5S1536,464.667,1536,544z"/></svg>