<?xml version="1.0" ?><svg contentScriptType="text/ecmascript" contentStyleType="text/css" enable-background="new 0 0 2048 2048" height="2048px" id="Layer_1" preserveAspectRatio="xMidYMid meet" version="1.1" viewBox="0.0 0 1280.0 2048" width="1280.0px" xml:space="preserve" xmlns="http://www.w3.org/2000/svg" xmlns:xlink="http://www.w3.org/1999/xlink" zoomAndPan="magnify"><path d="M1043,693c0-66.667-21.667-120.667-65-162s-100.333-62-171-62H487v448h320c70.667,0,127.667-20.667,171-62  S1043,759.667,1043,693z M1280,693c0,128.667-42.167,233.667-126.5,315S960.333,1130,827,1130H487v118h505c9.333,0,17,3,23,9  s9,13.667,9,23v128c0,9.333-3,17-9,23s-13.667,9-23,9H487v192c0,9.333-3.167,17-9.5,23s-13.833,9-22.5,9H288c-9.333,0-17-3-23-9  s-9-13.667-9-23v-192H32c-9.333,0-17-3-23-9s-9-13.667-9-23v-128c0-9.333,3-17,9-23s13.667-9,23-9h224v-118H32c-9.333,0-17-3-23-9  s-9-13.667-9-23V949c0-8.667,3-16.167,9-22.5s13.667-9.5,23-9.5h224V288c0-9.333,3-17,9-23s13.667-9,23-9h539  c133.333,0,242.167,40.667,326.5,122S1280,564.333,1280,693z"/></svg>