<?xml version="1.0" ?><svg contentScriptType="text/ecmascript" contentStyleType="text/css" enable-background="new 0 0 2048 2048" height="2048px" id="Layer_1" preserveAspectRatio="xMidYMid meet" version="1.1" viewBox="0.0 0 1152.0 2048" width="1152.0px" xml:space="preserve" xmlns="http://www.w3.org/2000/svg" xmlns:xlink="http://www.w3.org/1999/xlink" zoomAndPan="magnify"><path d="M1152,832v128c0,147.333-49.167,275.5-147.5,384.5S784.667,1516,640,1532v132h256c17.333,0,32.333,6.333,45,19  s19,27.667,19,45s-6.333,32.333-19,45s-27.667,19-45,19H256c-17.333,0-32.333-6.333-45-19s-19-27.667-19-45s6.333-32.333,19-45  s27.667-19,45-19h256v-132c-144.667-16-266.167-78.5-364.5-187.5S0,1107.333,0,960V832c0-17.333,6.333-32.333,19-45s27.667-19,45-19  s32.333,6.333,45,19s19,27.667,19,45v128c0,123.333,43.833,228.833,131.5,316.5S452.667,1408,576,1408s228.833-43.833,316.5-131.5  S1024,1083.333,1024,960V832c0-17.333,6.333-32.333,19-45s27.667-19,45-19s32.333,6.333,45,19S1152,814.667,1152,832z M896,448v512  c0,88-31.333,163.333-94,226c-62.667,62.667-138,94-226,94s-163.333-31.333-226-94c-62.667-62.667-94-138-94-226V448  c0-88,31.333-163.333,94-226s138-94,226-94s163.333,31.333,226,94S896,360,896,448z"/></svg>