<?xml version="1.0" ?><svg contentScriptType="text/ecmascript" contentStyleType="text/css" enable-background="new 0 0 2048 2048" height="2048px" id="Layer_1" preserveAspectRatio="xMidYMid meet" version="1.1" viewBox="4.333000183105469 0 1525.333984375 2048" width="1525.333984375px" xml:space="preserve" xmlns="http://www.w3.org/2000/svg" xmlns:xlink="http://www.w3.org/1999/xlink" zoomAndPan="magnify"><path d="M663,539c-7.333,0.667-12.5,4.167-15.5,10.5s-5.833,9.5-8.5,9.5c-3.333,0.667-5-1-5-5c0-8,6.333-13,19-15H663z M750,553  c-2.667,0.667-6.5-1.5-11.5-6.5S727.667,540,721,542c16-7.333,26.667-6.667,32,2C755,548,754,551,750,553z M399,980  c-2.667-0.667-4.667,0.333-6,3s-2.833,6.833-4.5,12.5s-3.5,10.167-5.5,13.5s-5.333,7.667-10,13c-4.667,6.667-5,10.667-1,12  c2.667,0.667,6.833-1.667,12.5-7c5.667-5.333,9.833-11.333,12.5-18c0.667-2,1.333-4.333,2-7s1.333-4.667,2-6s1.167-2.833,1.5-4.5  s0.5-3,0.5-4v-3c0,0-0.333-0.833-1-2.5S400.333,979.667,399,980z M1254,1339c0-12-18.333-26-55-42c2.667-10,5.167-19.167,7.5-27.5  s4-17,5-26s2-16.167,3-21.5s1.167-12.833,0.5-22.5s-1-16.167-1-19.5s-1.167-10.667-3.5-22c-2.333-11.333-3.667-18.167-4-20.5  s-2-10.667-5-25s-4.833-23.167-5.5-26.5c-6.667-32-22.333-66.333-47-103s-48.667-61.667-72-75c16,13.333,35,41,57,83  c58,108,76,200.667,54,278c-7.333,26.667-24,40.667-50,42c-20.667,2.667-33.5-3.5-38.5-18.5s-7.667-42.833-8-83.5  s-4.167-76.333-11.5-107c-6-26-12.5-49-19.5-69s-13.5-35.167-19.5-45.5s-11.167-18.5-15.5-24.5c-4.333-6-8.667-11-13-15  s-6.833-6.333-7.5-7c-9.333-41.333-19.667-75.667-31-103s-21.167-46-29.5-56s-16.167-21-23.5-33s-12.333-25.333-15-40  c-2.667-14-0.667-31.833,6-53.5c6.667-21.667,8.167-38.167,4.5-49.5S898,586.333,872,581c-10-2-24.833-8-44.5-18  S796,547.667,792,547c-5.333-0.667-9-9.333-11-26s0.667-33.667,8-51s19.333-26.333,36-27c24.667-2,41.667,8,51,30  s10.667,41.333,4,58c-7.333,12.667-8,21.5-2,26.5s16,5.167,30,0.5c8.667-2.667,13-14.667,13-36v-37c-3.333-20-7.833-36.667-13.5-50  s-12.667-23.5-21-30.5s-16.167-12-23.5-15s-16.333-5.5-27-7.5c-71.333,5.333-101,50-89,134c0,10-0.333,15-1,15  c-6-6-15.833-9.5-29.5-10.5s-24.667-0.833-33,0.5s-13.5-0.333-15.5-5c0.667-38-4.667-68-16-90s-26.333-33.333-45-34  c-18-0.667-31.833,8.5-41.5,27.5S550.333,458.333,549,479c-0.667,10,0.5,22.333,3.5,37s7.333,27.167,13,37.5  s10.833,14.833,15.5,13.5c6.667-2,12-6.667,16-14c2.667-6,0.333-8.667-7-8c-4.667,0-9.833-4.833-15.5-14.5s-8.833-20.833-9.5-33.5  c-0.667-14.667,2.333-27,9-37s18-14.667,34-14c11.333,0,20.333,7,27,21s9.833,27,9.5,39s-0.833,19.333-1.5,22  c-14.667,10-25,19.667-31,29c-5.333,8-14.5,15.833-27.5,23.5S564.667,592.333,564,593c-8.667,9.333-13.833,18.333-15.5,27  s0.833,14.667,7.5,18c9.333,5.333,17.667,11.833,25,19.5s12.667,14,16,19s9.5,9.333,18.5,13s20.833,5.833,35.5,6.5  c31.333,1.333,65.333-3.667,102-15c1.333-0.667,9-3,23-7s25.5-7.5,34.5-10.5s18.833-7.333,29.5-13s17.667-11.5,21-17.5  c6-9.333,12.667-12,20-8c3.333,2,5.5,4.833,6.5,8.5s0,7.667-3,12S876,653,868,655c-13.333,4-32.167,11.167-56.5,21.5  S772,693.333,766,696c-29.333,12.667-52.667,20.333-70,23c-16.667,3.333-43,2.667-79-2c-6.667-1.333-9.667-0.667-9,2s6.333,9,17,19  c16.667,15.333,39,22.667,67,22c11.333-0.667,23.333-3,36-7s24.667-8.667,36-14s22.5-11.167,33.5-17.5s21-12,30-17s17.167-9,24.5-12  s13.167-3.833,17.5-2.5s7.167,5,8.5,11c0,1.333-0.333,2.833-1,4.5s-2,3.333-4,5s-4,3.167-6,4.5s-4.833,3-8.5,5s-6.667,3.5-9,4.5  s-5.667,2.667-10,5s-7.5,3.833-9.5,4.5c-18.667,9.333-41.167,24-67.5,44S714,812.333,696,821s-34.333,9-49,1  c-14-7.333-35-31.667-63-73c-14.667-20.667-23-28-25-22c-0.667,2-1,5.333-1,10c0,16.667-5,35.5-15,56.5S523.167,833,513.5,849  c-9.667,16-16.667,35.333-21,58s-0.5,43.667,11.5,63c-15.333,4-36.167,34-62.5,90s-42.167,103-47.5,141c-1.333,12-1.833,35-1.5,69  s-1.5,53.667-5.5,59c-5.333,16-15,17-29,3c-21.333-20.667-33.333-52-36-94c-1.333-18.667,0-37.333,4-56  c2.667-12.667,2.333-18.667-1-18l-4,5c-24,43.333-20.667,98.667,10,166c3.333,8,11.667,17.333,25,28s21.333,17.333,24,20  c13.333,15.333,48,45.5,104,90.5s87,70.5,93,76.5c10.667,10,16.5,22.667,17.5,38s-3.667,29.667-14,43s-25.5,21-45.5,23  c5.333,10,15,24.833,29,44.5s23.333,37.667,28,54s7,39.833,7,70.5c30.667-16,33-46.667,7-92c-2.667-5.333-6.167-10.667-10.5-16  s-7.5-9.333-9.5-12s-2.667-4.667-2-6c2-3.333,6.333-6.5,13-9.5s13.333-2.167,20,2.5c30.667,34.667,86,46.667,166,36  c88.667-10,147.667-39,177-87c15.333-25.333,26.667-35.333,34-30c8,4,11.333,21.333,10,52c-0.667,16.667-8.333,47.333-23,92  c-6,15.333-8,27.833-6,37.5s10,14.833,24,15.5c2-12.667,6.833-38.333,14.5-77s12.167-68.667,13.5-90c1.333-14-0.833-38.5-6.5-73.5  c-5.667-35-8.167-67.333-7.5-97s8.333-53.167,23-70.5c10-12,27-18,51-18c0.667-24.667,12.167-42.333,34.5-53s46.5-14.167,72.5-10.5  S1240,1327.667,1254,1339z M626,512c2-11.333,1.167-21.333-2.5-30s-7.5-13.667-11.5-15c-6-1.333-9,1-9,7c1.333,3.333,3,5.333,5,6  c6.667,0,9,5,7,15c-2,13.333,0.667,20,8,20C625,515,626,514,626,512z M1045,709c-1.333-5.333-3.5-9.167-6.5-11.5s-7.333-4-13-5  c-5.667-1-10.5-2.833-14.5-5.5c-3.333-2-6.5-4.667-9.5-8s-5.333-6-7-8s-3.5-4.167-5.5-6.5s-3.333-3.667-4-4s-2,0.167-4,1.5  c-9.333,10.667-7,25.167,7,43.5s27,28.833,39,31.5c6,0.667,10.833-2,14.5-8S1046.333,716.333,1045,709z M867,496  c0-7.333-1.667-13.833-5-19.5s-7-9.833-11-12.5s-7-3.667-9-3c-9.333,0.667-11.667,3-7,7l4,2c9.333,2.667,15.333,13,18,31  c0,2,2.667,1.333,8-2L867,496z M921,263c0-1.333-0.833-3-2.5-5s-4.667-4.333-9-7s-7.5-4.667-9.5-6c-10-10-18-15-24-15  c-6,0.667-9.833,3.167-11.5,7.5s-2,8.667-1,13s0.833,8.5-0.5,12.5c-0.667,2.667-2.667,6.167-6,10.5s-5.333,7.333-6,9  s0.333,4.5,3,8.5c2.667,2,5.333,2,8,0s6.333-5,11-9s9.667-7,15-9c0.667-0.667,3.667-1,9-1s10.333-0.667,15-2  S919.667,266.333,921,263z M1486,1604c13.333,8,23.667,16.167,31,24.5s11.333,16.333,12,24s-0.167,15.167-2.5,22.5  s-7.5,14.667-15.5,22s-15.833,13.833-23.5,19.5s-17.667,11.833-30,18.5s-22.833,12.167-31.5,16.5s-19.333,9.5-32,15.5  s-21.667,10.333-27,13c-25.333,12.667-53.833,31.333-85.5,56s-56.833,46-75.5,64c-11.333,10.667-34,17.167-68,19.5  s-63.667-2.5-89-14.5c-12-6-21.833-13.833-29.5-23.5c-7.667-9.667-13.167-18.167-16.5-25.5s-10.667-13.833-22-19.5s-27-8.833-47-9.5  c-29.333-0.667-72.667-1-130-1c-12.667,0-31.667,0.5-57,1.5s-44.667,1.833-58,2.5c-29.333,0.667-55.833,5.667-79.5,15  s-41.5,19.333-53.5,30s-26.5,20.167-43.5,28.5s-34.833,12.167-53.5,11.5c-19.333-0.667-56.333-11-111-31s-103.333-34.333-146-43  c-12.667-2.667-29.667-5.833-51-9.5s-38-6.667-50-9s-25.167-5.5-39.5-9.5s-25.5-8.833-33.5-14.5s-13.667-12.167-17-19.5  c-6.667-15.333-4.333-37.5,7-66.5s17.333-47.167,18-54.5c0.667-10.667-0.667-24-4-40s-6.667-30.167-10-42.5s-4.833-24.5-4.5-36.5  s3.833-21,10.5-27c9.333-8,28.333-12.667,57-14s48.667-5.333,60-12c20-12,34-23.667,42-35s12-28.333,12-51  c14,48.667,3.333,84-32,106c-21.333,13.333-49,18.333-83,15c-22.667-2-37,1.333-43,10c-8.667,10-7,29,5,57c1.333,4,4,10,8,18  s6.833,14,8.5,18c1.667,4,3.167,9.667,4.5,17s1.667,14.667,1,22c0,10-5.667,26.333-17,49s-16,38.667-14,48c2,11.333,14.333,20,37,26  c13.333,4,41.5,10.167,84.5,18.5s76.167,15.167,99.5,20.5c16,4,40.667,11.333,74,22s60.833,18.333,82.5,23s40.167,6,55.5,4  c28.667-4,50.167-13.333,64.5-28s22-30.667,23-48s-1.5-36.833-7.5-58.5s-12.333-39-19-52s-13.333-25.167-20-36.5  c-80.667-126.667-137-207.333-169-242c-45.333-49.333-83-62.667-113-40c-7.333,6-12.333,1-15-15c-2-10.667-2.667-23.333-2-38  c0.667-19.333,4-36.667,10-52s14-31,24-47s17.333-30,22-42c5.333-14,14.167-38,26.5-72s22.167-60,29.5-78s17.333-38.333,30-61  s25.667-40.667,39-54c73.333-95.333,114.667-160.333,124-195c-8-74.667-13.333-178-16-310c-1.333-60,6.667-110.5,24-151.5  c17.333-41,52.667-75.833,106-104.5c26-14,60.667-21,104-21c35.333-0.667,70.667,3.833,106,13.5s65,23.5,89,41.5  c38,28,68.5,68.5,91.5,121.5s32.833,102.167,29.5,147.5c-3.333,63.333,6.667,134.667,30,214c22.667,75.333,67,148,133,218  c36.667,39.333,69.833,93.667,99.5,163s49.5,133,59.5,191c5.333,32.667,7,60.833,5,84.5s-6,42.167-12,55.5s-12.667,20.667-20,22  c-6.667,1.333-14.5,7.667-23.5,19s-18,23.167-27,35.5S1273,1478,1255,1488s-38.333,14.667-61,14c-12-0.667-22.5-2.333-31.5-5  s-16.5-7.167-22.5-13.5s-10.5-11.5-13.5-15.5s-6.833-10.833-11.5-20.5s-7.667-16.167-9-19.5c-14.667-24.667-28.333-34.667-41-30  s-22,21-28,49s-3.667,60.333,7,97c13.333,46.667,13.667,111.667,1,195c-6.667,43.333-0.667,76.833,18,100.5s43,34.667,73,33  s58.333-13.5,85-35.5c39.333-32.667,69.167-54.833,89.5-66.5s54.833-25.833,103.5-42.5c35.333-12,61-24.167,77-36.5  s22.167-23.833,18.5-34.5s-12-20.167-25-28.5s-30.167-16.167-51.5-23.5c-22-7.333-38.5-23.333-49.5-48s-16-48.833-15-72.5  s6.167-39.5,15.5-47.5c0.667,20.667,3.333,39.5,8,56.5s9.5,30.5,14.5,40.5s11.833,19.5,20.5,28.5s15.667,15.333,21,19  s12.5,8,21.5,13S1484,1602.667,1486,1604z"/></svg>