<?xml version="1.0" ?><svg contentScriptType="text/ecmascript" contentStyleType="text/css" enable-background="new 0 0 2048 2048" height="2048px" id="Layer_1" preserveAspectRatio="xMidYMid meet" version="1.1" viewBox="0.0 0 1536.0 2048" width="1536.0px" xml:space="preserve" xmlns="http://www.w3.org/2000/svg" xmlns:xlink="http://www.w3.org/1999/xlink" zoomAndPan="magnify"><path d="M704,1472V448c0-9.333-3-17-9-23s-13.667-9-23-9H192c-9.333,0-17,3-23,9s-9,13.667-9,23v1024c0,9.333,3,17,9,23  s13.667,9,23,9h480c9.333,0,17-3,23-9S704,1481.333,704,1472z M1376,1088V448c0-9.333-3-17-9-23s-13.667-9-23-9H864  c-9.333,0-17,3-23,9s-9,13.667-9,23v640c0,9.333,3,17,9,23s13.667,9,23,9h480c9.333,0,17-3,23-9S1376,1097.333,1376,1088z M1536,320  v1408c0,17.333-6.333,32.333-19,45s-27.667,19-45,19H64c-17.333,0-32.333-6.333-45-19s-19-27.667-19-45V320  c0-17.333,6.333-32.333,19-45s27.667-19,45-19h1408c17.333,0,32.333,6.333,45,19S1536,302.667,1536,320z"/></svg>