<?xml version="1.0" ?><svg contentScriptType="text/ecmascript" contentStyleType="text/css" enable-background="new 0 0 2048 2048" height="2048px" id="Layer_1" preserveAspectRatio="xMidYMid meet" version="1.1" viewBox="0.0 0 1728.0 2048" width="1728.0px" xml:space="preserve" xmlns="http://www.w3.org/2000/svg" xmlns:xlink="http://www.w3.org/1999/xlink" zoomAndPan="magnify"><path d="M1728,1021c0,9.333-3.333,17.333-10,24l-384,354c-10.667,9.333-22.333,11.333-35,6c-12.667-6-19-15.667-19-29v-224H32  c-9.333,0-17-3-23-9s-9-13.667-9-23V928c0-9.333,3-17,9-23s13.667-9,23-9h1248V672c0-14,6.333-23.667,19-29  c12.667-5.333,24.333-3.667,35,5l384,350C1724.667,1004.667,1728,1012.333,1728,1021z"/></svg>