<?xml version="1.0" ?><svg contentScriptType="text/ecmascript" contentStyleType="text/css" enable-background="new 0 0 2048 2048" height="2048px" id="Layer_1" preserveAspectRatio="xMidYMid meet" version="1.1" viewBox="0.0 0 1792.0 2048" width="1792.0px" xml:space="preserve" xmlns="http://www.w3.org/2000/svg" xmlns:xlink="http://www.w3.org/1999/xlink" zoomAndPan="magnify"><path d="M1280,1024c0-24.667-10-42.667-30-54L738,650c-20.667-13.333-42.333-14-65-2c-22,12-33,30.667-33,56v640  c0,25.333,11,44,33,56c10.667,5.333,21,8,31,8c13.333,0,24.667-3.333,34-10l512-320C1270,1066.667,1280,1048.667,1280,1024z   M1792,1024c0,64-0.333,114-1,150s-3.5,81.5-8.5,136.5S1770,1414.667,1760,1458c-10.667,48.667-33.667,89.667-69,123  s-76.667,52.667-124,58c-148,16.667-371.667,25-671,25s-523-8.333-671-25c-47.333-5.333-88.833-24.667-124.5-58  s-58.833-74.333-69.5-123c-9.333-43.333-16.5-92.5-21.5-147.5S1.667,1210,1,1174s-1-86-1-150s0.333-114,1-150s3.5-81.5,8.5-136.5  S22,633.333,32,590c10.667-48.667,33.667-89.667,69-123s76.667-52.667,124-58c148-16.667,371.667-25,671-25s523,8.333,671,25  c47.333,5.333,88.833,24.667,124.5,58s58.833,74.333,69.5,123c9.333,43.333,16.5,92.5,21.5,147.5s7.833,100.5,8.5,136.5  S1792,960,1792,1024z"/></svg>