<?xml version="1.0" ?><svg contentScriptType="text/ecmascript" contentStyleType="text/css" enable-background="new 0 0 2048 2048" height="2048px" id="Layer_1" preserveAspectRatio="xMidYMid meet" version="1.1" viewBox="0.0 0 1536.0 2048" width="1536.0px" xml:space="preserve" xmlns="http://www.w3.org/2000/svg" xmlns:xlink="http://www.w3.org/1999/xlink" zoomAndPan="magnify"><path d="M1123,1537v-181c-58.667,37.333-116.667,56-174,56c-34,0-63.333-7.667-88-23c-19.333-11.333-32.333-26.333-39-45  c-7.333-20-11-63-11-129V920h274V739H811V448H647c-7.333,60-20.667,109-40,147s-45.333,71-78,99c-32,26.667-70.667,47.667-116,63  v163h127v404c0,52,5.667,92.333,17,121c11.333,28,31,54,59,78c28.667,24.667,63.333,43.667,104,57c41.333,13.333,88,20,140,20  c44.667,0,87.667-4.667,129-14C1027,1577.333,1071.667,1561,1123,1537z M1536,544v960c0,79.333-28.167,147.167-84.5,203.5  S1327.333,1792,1248,1792H288c-79.333,0-147.167-28.167-203.5-84.5S0,1583.333,0,1504V544c0-79.333,28.167-147.167,84.5-203.5  S208.667,256,288,256h960c79.333,0,147.167,28.167,203.5,84.5S1536,464.667,1536,544z"/></svg>