<?xml version="1.0" ?><svg contentScriptType="text/ecmascript" contentStyleType="text/css" enable-background="new 0 0 2048 2048" height="2048px" id="Layer_1" preserveAspectRatio="xMidYMid meet" version="1.1" viewBox="28.66699981689453 0 1632.3330078125 2048" width="1632.3330078125px" xml:space="preserve" xmlns="http://www.w3.org/2000/svg" xmlns:xlink="http://www.w3.org/1999/xlink" zoomAndPan="magnify"><path d="M1191,1560h177l-72-218l-12-47c-1.333-10.667-2-17.333-2-20h-4l-3,20c0,0.667-1.167,6.667-3.5,18s-4.833,21-7.5,29  L1191,1560z M736,1568c0,8-3.333,16-10,24l-319,319c-6.667,6-14.333,9-23,9c-8,0-15.667-3-23-9L41,1591  c-10-10.667-12.333-22.333-7-35c5.333-13.333,15.333-20,30-20h192V160c0-9.333,3-17,9-23s13.667-9,23-9h192c9.333,0,17,3,23,9  s9,13.667,9,23v1376h192c9.333,0,17,3,23,9S736,1558.667,736,1568z M1661,1814v106h-288v-106h75l-47-144h-243l-47,144h75v106H899  v-106h70l230-662h162l230,662H1661z M1572,663v233H988v-90l369-529c8-12,15-21,21-27l11-9v-3c-1.333,0-3.5,0.167-6.5,0.5  s-5.5,0.5-7.5,0.5c-8,2-18,3-30,3h-232v115H993V128h567v89l-369,530c-4,5.333-11,14-21,26l-11,10v3l14-3c6-0.667,16-1,30-1h248V663  H1572z"/></svg>