<?xml version="1.0" ?><svg contentScriptType="text/ecmascript" contentStyleType="text/css" enable-background="new 0 0 2048 2048" height="2048px" id="Layer_1" preserveAspectRatio="xMidYMid meet" version="1.1" viewBox="0.0 0 1536.0 2048" width="1536.0px" xml:space="preserve" xmlns="http://www.w3.org/2000/svg" xmlns:xlink="http://www.w3.org/1999/xlink" zoomAndPan="magnify"><path d="M1024,1628c-28-160.667-74.667-326.667-140-498h-2l-2,1c-10.667,4-25,9.5-43,16.5s-51.667,23.333-101,49s-95,53-137,82  s-85.667,67.167-131,114.5s-79.667,96.667-103,148l-15-11c122.667,100,262,150,418,150C856,1680,941.333,1662.667,1024,1628z   M839,1021c-14-32.667-31.667-69.667-53-111c-207.333,62-431.667,93-673,93c-0.667,4.667-1,11.667-1,21  c0,82.667,14.667,161.5,44,236.5s70.667,142.167,124,201.5c33.333-59.333,74.5-114.833,123.5-166.5S500,1202.333,546,1171  c46-31.333,89.5-58.333,130.5-81s74.167-38.667,99.5-48l37-13c2.667-0.667,7-1.833,13-3.5C832,1023.833,836.333,1022.333,839,1021z   M732,809c-80-142-161.333-268-244-378c-92,43.333-170,105.333-234,186S147.333,788.333,126,889  C327.333,889,529.333,862.333,732,809z M1416,1128c-140-40-276.333-49.667-409-29c58,159.333,100.667,315.667,128,469  c74-50,135.667-113.167,185-189.5S1401.333,1218.667,1416,1128z M611,387c-0.667,0-1.333,0.333-2,1  C609.667,387.333,610.333,387,611,387z M1201,532c-123.333-109.333-267.667-164-433-164c-50.667,0-102.333,6.333-155,19  c87.333,113.333,169.333,240.667,246,382c46-17.333,89.333-37.5,130-60.5c40.667-23,72.833-43.5,96.5-61.5s45.5-37,65.5-57  s32.5-33.5,37.5-40.5L1201,532z M1424,1017c-2-154.667-51.667-291.333-149-410l-1,1c-6,8-12.333,16.167-19,24.5  c-6.667,8.333-21.167,23.167-43.5,44.5s-46,41.5-71,60.5s-58.333,40.667-100,65C998.833,826.833,955,848.333,909,867  c16.667,35.333,31.333,67,44,95c1.333,4,3.5,9.833,6.5,17.5s5.5,13.167,7.5,16.5c24-3.333,48.833-5.667,74.5-7  c25.667-1.333,50.167-2,73.5-2s46.333,0.5,69,1.5s44,2.333,64,4s38.833,3.5,56.5,5.5s33.667,4.167,48,6.5s26.5,4.333,36.5,6  s18.333,3.167,25,4.5L1424,1017z M1536,1024c0,139.333-34.333,267.833-103,385.5s-161.833,210.833-279.5,279.5  S907.333,1792,768,1792s-267.833-34.333-385.5-103S171.667,1527.167,103,1409.5S0,1163.333,0,1024s34.333-267.833,103-385.5  S264.833,427.667,382.5,359S628.667,256,768,256s267.833,34.333,385.5,103s210.833,161.833,279.5,279.5S1536,884.667,1536,1024z"/></svg>