<?xml version="1.0" ?><svg contentScriptType="text/ecmascript" contentStyleType="text/css" enable-background="new 0 0 2048 2048" height="2048px" id="Layer_1" preserveAspectRatio="xMidYMid meet" version="1.1" viewBox="0.0 0 1536.0 2048" width="1536.0px" xml:space="preserve" xmlns="http://www.w3.org/2000/svg" xmlns:xlink="http://www.w3.org/1999/xlink" zoomAndPan="magnify"><path d="M848,998c0-28.667-13.667-50.667-41-66s-53-15.667-77-1c-28.667,13.333-42.833,37.5-42.5,72.5s14.833,58.5,43.5,70.5  c26,15.333,53,14,81-4S852,1028,848,998z M928,982c5.333,44-6.667,84.333-36,121s-66,57-110,61s-83.667-9.333-119-40  c-35.333-30.667-54-68.333-56-113c-1.333-32.667,7.167-63.667,25.5-93s42.5-50.667,72.5-64c46.667-20.667,93.833-17.333,141.5,10  S921.333,930.667,928,982z M1100,591c-13.333,14-31.167,25.333-53.5,34s-40,14-53,16s-34.167,4.667-63.5,8  c-103.333,13.333-211.333,13.333-324,0c-29.333-4-50.333-7.167-63-9.5c-12.667-2.333-30.167-7.667-52.5-16  c-22.333-8.333-40.5-19.167-54.5-32.5c8.667-12.667,20.667-23,36-31s28.667-13.167,40-15.5c11.333-2.333,27-5.167,47-8.5  c132-23.333,268-23.667,408-1c22,3.333,39,6.167,51,8.5s26.333,7.667,43,16S1090.667,578.333,1100,591z M1142,1337  c0-4.667,1.833-13.5,5.5-26.5s4.667-23.667,3-32s-7.5-13.833-17.5-16.5c-107.333,70.667-229,106-365,106s-258-35.333-366-106l-12,6  l-5,12c17.333,102.667,31,172.667,41,210c31.333,54,99.333,90,204,108c166,30.667,308.667,13,428-53  c22.667-12.667,39-29.833,49-51.5s17.5-50.167,22.5-85.5S1138.667,1349,1142,1337z M1272,644c6-35.333,3.333-60.333-8-75  c-28.667-36.667-80.333-66-155-88c-144-42-306.333-54-487-36c-88,8-163.333,23.333-226,46c-25.333,10-45.167,18.333-59.5,25  s-30,18-47,34s-26.833,34-29.5,54c5.333,45.333,11.667,91.333,19,138s17,103.667,29,171s20,113,24,137  c0.667,3.333,2.333,13.667,5,31s5,29.333,7,36s6,15.667,12,27c6,11.333,13.333,20.667,22,28c70,53.333,164.667,86.667,284,100  c172.667,18.667,319.333-2.333,440-63c16-8.667,29.167-16.333,39.5-23s20.667-16.333,31-29c10.333-12.667,16.833-26,19.5-40  C1224,939,1250.667,781.333,1272,644z M1536,544v960c0,79.333-28.167,147.167-84.5,203.5S1327.333,1792,1248,1792H288  c-79.333,0-147.167-28.167-203.5-84.5S0,1583.333,0,1504V544c0-79.333,28.167-147.167,84.5-203.5S208.667,256,288,256h960  c79.333,0,147.167,28.167,203.5,84.5S1536,464.667,1536,544z"/></svg>