<?xml version="1.0" ?><svg contentScriptType="text/ecmascript" contentStyleType="text/css" enable-background="new 0 0 2048 2048" height="2048px" id="Layer_1" preserveAspectRatio="xMidYMid meet" version="1.1" viewBox="0.0 0 1536.0 2048" width="1536.0px" xml:space="preserve" xmlns="http://www.w3.org/2000/svg" xmlns:xlink="http://www.w3.org/1999/xlink" zoomAndPan="magnify"><path d="M512,1408c0-35.333-12.5-65.5-37.5-90.5S419.333,1280,384,1280s-65.5,12.5-90.5,37.5S256,1372.667,256,1408  s12.5,65.5,37.5,90.5s55.167,37.5,90.5,37.5s65.5-12.5,90.5-37.5S512,1443.333,512,1408z M863,1502  c-8.667-154.667-67.667-286.667-177-396S444.667,937.667,290,929c-9.333-0.667-17.333,2.333-24,9s-10,14.333-10,23v128  c0,8.667,2.833,16,8.5,22s12.833,9.333,21.5,10c102.667,7.333,190.667,47.667,264,121s113.667,161.333,121,264  c0.667,8.667,4,15.833,10,21.5s13.333,8.5,22,8.5h128c8.667,0,16.333-3.333,23-10S863.667,1511.333,863,1502z M1247,1503  c-3.333-102.667-22-201.833-56-297.5c-34-95.667-80.5-182.333-139.5-260s-127.333-146-205-205S682.167,635,586.5,601  S391.667,548.333,289,545c-9.333-0.667-17,2.333-23,9c-6.667,6.667-10,14.333-10,23v128c0,8.667,3,16,9,22s13.333,9.333,22,10  c136,4.667,262,41.833,378,111.5S873.833,1011,943.5,1127s106.833,242,111.5,378c0.667,8.667,4,16,10,22s13.333,9,22,9h128  c8.667,0,16.333-3.333,23-10C1245.333,1520,1248.333,1512.333,1247,1503z M1536,544v960c0,79.333-28.167,147.167-84.5,203.5  S1327.333,1792,1248,1792H288c-79.333,0-147.167-28.167-203.5-84.5S0,1583.333,0,1504V544c0-79.333,28.167-147.167,84.5-203.5  S208.667,256,288,256h960c79.333,0,147.167,28.167,203.5,84.5S1536,464.667,1536,544z"/></svg>