<?xml version="1.0" ?><svg contentScriptType="text/ecmascript" contentStyleType="text/css" enable-background="new 0 0 2048 2048" height="2048px" id="Layer_1" preserveAspectRatio="xMidYMid meet" version="1.1" viewBox="64.0 0 1728.0 2048" width="1728.0px" xml:space="preserve" xmlns="http://www.w3.org/2000/svg" xmlns:xlink="http://www.w3.org/1999/xlink" zoomAndPan="magnify"><path d="M1792,928v192c0,9.333-3,17-9,23s-13.667,9-23,9H512v224c0,14-6.333,23.667-19,29s-24.333,3.667-35-5L74,1050  c-6.667-6.667-10-14.333-10-23c0-9.333,3.333-17.333,10-24l384-354c10.667-9.333,22.333-11.333,35-6c12.667,6,19,15.667,19,29v224  h1248c9.333,0,17,3,23,9S1792,918.667,1792,928z"/></svg>