<?xml version="1.0" ?><svg contentScriptType="text/ecmascript" contentStyleType="text/css" enable-background="new 0 0 2048 2048" height="2048px" id="Layer_1" preserveAspectRatio="xMidYMid meet" version="1.1" viewBox="64.0 0 1664.0 2048" width="1664.0px" xml:space="preserve" xmlns="http://www.w3.org/2000/svg" xmlns:xlink="http://www.w3.org/1999/xlink" zoomAndPan="magnify"><path d="M1088,960c0-17.333-6.333-32.333-19-45s-27.667-19-45-19H768c-17.333,0-32.333,6.333-45,19s-19,27.667-19,45  s6.333,32.333,19,45s27.667,19,45,19h256c17.333,0,32.333-6.333,45-19S1088,977.333,1088,960z M1664,768v960  c0,17.333-6.333,32.333-19,45s-27.667,19-45,19H192c-17.333,0-32.333-6.333-45-19s-19-27.667-19-45V768c0-17.333,6.333-32.333,19-45  s27.667-19,45-19h1408c17.333,0,32.333,6.333,45,19S1664,750.667,1664,768z M1728,320v256c0,17.333-6.333,32.333-19,45  s-27.667,19-45,19H128c-17.333,0-32.333-6.333-45-19s-19-27.667-19-45V320c0-17.333,6.333-32.333,19-45s27.667-19,45-19h1536  c17.333,0,32.333,6.333,45,19S1728,302.667,1728,320z"/></svg>