<?xml version="1.0" ?><svg contentScriptType="text/ecmascript" contentStyleType="text/css" enable-background="new 0 0 2048 2048" height="2048px" id="Layer_1" preserveAspectRatio="xMidYMid meet" version="1.1" viewBox="0.0 0 1408.8330078125 2048" width="1408.8330078125px" xml:space="preserve" xmlns="http://www.w3.org/2000/svg" xmlns:xlink="http://www.w3.org/1999/xlink" zoomAndPan="magnify"><path d="M815,987c5.333,42-11.5,75.667-50.5,101s-76.167,27.333-111.5,6c-26-11.333-43.833-30.667-53.5-58  c-9.667-27.333-9.833-54.667-0.5-82s26.667-46.667,52-58c24-12,48.167-16,72.5-12s45.667,15.833,64,35.5S815,961.667,815,987z   M926,966c-9.333-71.333-47-126-113-164s-131.667-42.333-197-13c-42,18.667-75.5,48.167-100.5,88.5S479,961,481,1007  c2.667,60.667,28.5,112.333,77.5,155c49,42.667,104.167,61.333,165.5,56c60.667-5.333,111.333-33.333,152-84  C916.667,1083.333,933.333,1027.333,926,966z M1165,424c-13.333-18-32-32.833-56-44.5s-43.333-19-58-22s-38.333-7.167-71-12.5  c-194-31.333-382.667-30.667-566,2c-28.667,4.667-50.667,8.667-66,12s-33.667,10.667-55,22s-38,25.667-50,43  c20,18.667,45.333,33.833,76,45.5s55.167,19,73.5,22S440,498.333,480,503c152,19.333,301.333,19.667,448,1  c42-5.333,71.833-9.333,89.5-12c17.667-2.667,41.833-9.833,72.5-21.5S1145.667,443.333,1165,424z M1222,1459  c-5.333,17.333-10.5,42.833-15.5,76.5s-9.667,61.667-14,84s-13.833,45.667-28.5,70s-34,43.167-58,56.5  c-57.333,32-120.5,55.833-189.5,71.5s-136.333,23-202,22s-132.833-7.167-201.5-18.5c-30.667-5.333-57.833-11.333-81.5-18  s-49.167-15.667-76.5-27s-51.667-25.833-73-43.5s-38.667-38.167-52-61.5c-16.667-64-35.667-161.333-57-292l6-16l18-9  c148.667,98.667,317.5,148,506.5,148s358.167-49.333,507.5-148c14,4,22,11.667,24,23s0.333,26.333-5,45S1222,1453,1222,1459z   M1403,498c-17.333,111.333-54.333,329.667-111,655c-3.333,20-12.333,38.667-27,56s-29.167,30.667-43.5,40s-32.5,19.667-54.5,31  c-168,84-371.333,113.333-610,88c-165.333-18-296.667-64.333-394-139c-10-8-18.5-16.833-25.5-26.5s-12.667-21.333-17-35  s-7.333-25-9-34s-3.667-22.167-6-39.5s-4.167-29-5.5-35c-6-33.333-14.833-83.333-26.5-150s-21-120.5-28-161.5S30.667,657.333,22,600  C13.333,542.667,6,490,0,442c2-17.333,7.833-33.5,17.5-48.5S37.667,366,49,356s26.333-20,45-30s34-17.5,46-22.5s28-11.167,48-18.5  c83.333-30.667,187.667-52,313-64c252.667-24.667,478-8,676,50c103.333,30.667,175,71.333,215,122  c10.667,13.333,16.167,30.333,16.5,51S1407,482.667,1403,498z"/></svg>