<?xml version="1.0" ?><svg contentScriptType="text/ecmascript" contentStyleType="text/css" enable-background="new 0 0 2048 2048" height="2048px" id="Layer_1" preserveAspectRatio="xMidYMid meet" version="1.1" viewBox="32.0 0 1600.0 2048" width="1600.0px" xml:space="preserve" xmlns="http://www.w3.org/2000/svg" xmlns:xlink="http://www.w3.org/1999/xlink" zoomAndPan="magnify"><path d="M1632,1088c0,17.333-6.333,32.333-19,45s-27.667,19-45,19h-224c0,114-22.333,210.667-67,290l208,209  c12.667,12.667,19,27.667,19,45s-6.333,32.333-19,45c-12,12.667-27,19-45,19s-33-6.333-45-19l-198-197  c-3.333,3.333-8.333,7.667-15,13s-20.667,14.833-42,28.5s-43,25.833-65,36.5s-49.333,20.333-82,29c-32.667,8.667-65,13-97,13V768  H768v896c-34,0-67.833-4.5-101.5-13.5s-62.667-20-87-33s-46.333-26-66-39c-19.667-13-34.167-23.833-43.5-32.5l-15-14l-183,207  c-13.333,14-29.333,21-48,21c-16,0-30.333-5.333-43-16c-12.667-12-19.5-26.833-20.5-44.5s4.167-33.167,15.5-46.5l202-227  c-38.667-76-58-167.333-58-274H96c-17.333,0-32.333-6.333-45-19s-19-27.667-19-45s6.333-32.333,19-45s27.667-19,45-19h224V730  L147,557c-12.667-12.667-19-27.667-19-45s6.333-32.333,19-45s27.667-19,45-19s32.333,6.333,45,19l173,173h844l173-173  c12.667-12.667,27.667-19,45-19s32.333,6.333,45,19s19,27.667,19,45s-6.333,32.333-19,45l-173,173v294h224  c17.333,0,32.333,6.333,45,19S1632,1070.667,1632,1088z M1152,512H512c0-88.667,31.167-164.167,93.5-226.5S743.333,192,832,192  s164.167,31.167,226.5,93.5S1152,423.333,1152,512z"/></svg>