<?xml version="1.0" ?><svg contentScriptType="text/ecmascript" contentStyleType="text/css" enable-background="new 0 0 2048 2048" height="2048px" id="Layer_1" preserveAspectRatio="xMidYMid meet" version="1.1" viewBox="28.66699981689453 0 1457.3330078125 2048" width="1457.3330078125px" xml:space="preserve" xmlns="http://www.w3.org/2000/svg" xmlns:xlink="http://www.w3.org/1999/xlink" zoomAndPan="magnify"><path d="M1346,1441c0-42-14.667-80.667-44-116s-63.667-53-103-53c-34.667,0-62.333,12.333-83,37s-31,56-31,94s12.167,69.667,36.5,95  s59.167,38,104.5,38c33.333,0,61.667-9,85-27S1346,1468.333,1346,1441z M736,1568c0,8-3.333,16-10,24l-319,319  c-6.667,6-14.333,9-23,9c-8,0-15.667-3-23-9L41,1591c-10-10.667-12.333-22.333-7-35c5.333-13.333,15.333-20,30-20h192V160  c0-9.333,3-17,9-23s13.667-9,23-9h192c9.333,0,17,3,23,9s9,13.667,9,23v1376h192c9.333,0,17,3,23,9S736,1558.667,736,1568z   M1486,1499c0,41.333-4.333,81.833-13,121.5s-22.333,77.667-41,114s-41.333,68.167-68,95.5s-59.5,49.167-98.5,65.5  S1184,1920,1138,1920c-41.333,0-77.333-5.333-108-16c-16-5.333-30-10.333-42-15l39-113c10,4.667,20.333,8.333,31,11  c24.667,8.667,49.667,13,75,13c56,0,100.833-19.5,134.5-58.5s55.833-87.5,66.5-145.5h-2c-14,15.333-34.5,27.667-61.5,37  s-55.167,14-84.5,14c-70.667,0-128.333-23.833-173-71.5c-44.667-47.667-67-105.167-67-172.5c0-70,24-129.333,72-178  s108.333-73,181-73c82,0,150.333,31.5,205,94.5S1486,1393.667,1486,1499z M1456,782v114H987V782h167V350c0-4.667,0.167-11,0.5-19  s0.5-13.667,0.5-17v-16h-2l-7,12c-5.333,8.667-14,19-26,31l-62,58l-82-86l192-185h123v654H1456z"/></svg>