<?xml version="1.0" ?><svg contentScriptType="text/ecmascript" contentStyleType="text/css" enable-background="new 0 0 2048 2048" height="2048px" id="Layer_1" preserveAspectRatio="xMidYMid meet" version="1.1" viewBox="13.0 0 1382.0 2048" width="1382.0px" xml:space="preserve" xmlns="http://www.w3.org/2000/svg" xmlns:xlink="http://www.w3.org/1999/xlink" zoomAndPan="magnify"><path d="M271,1073l-101,101c-28-68.667-42-140-42-214V832c0-17.333,6.333-32.333,19-45s27.667-19,45-19s32.333,6.333,45,19  s19,27.667,19,45v128C256,995.333,261,1033,271,1073z M1385,471l-361,361v128c0,88-31.333,163.333-94,226  c-62.667,62.667-138,94-226,94c-36.667,0-73-6.333-109-19l-96,96c64.667,34,133,51,205,51c123.333,0,228.833-43.833,316.5-131.5  S1152,1083.333,1152,960V832c0-17.333,6.333-32.333,19-45s27.667-19,45-19s32.333,6.333,45,19s19,27.667,19,45v128  c0,147.333-49.167,275.5-147.5,384.5S912.667,1516,768,1532v132h256c17.333,0,32.333,6.333,45,19s19,27.667,19,45  s-6.333,32.333-19,45s-27.667,19-45,19H384c-17.333,0-32.333-6.333-45-19s-19-27.667-19-45s6.333-32.333,19-45s27.667-19,45-19h256  v-132c-83.333-8.667-161.667-35.667-235-81l-254,254c-6.667,6.667-14.333,10-23,10s-16.333-3.333-23-10l-82-82  c-6.667-6.667-10-14.333-10-23s3.333-16.333,10-23L1257,343c6.667-6.667,14.333-10,23-10s16.333,3.333,23,10l82,82  c6.667,6.667,10,14.333,10,23S1391.667,464.333,1385,471z M1005,339L384,960V448c0-88,31.333-163.333,94-226s138-94,226-94  c68,0,129.5,19.667,184.5,59S982.333,277,1005,339z"/></svg>