<?xml version="1.0" ?><svg contentScriptType="text/ecmascript" contentStyleType="text/css" enable-background="new 0 0 2048 2048" height="2048px" id="Layer_1" preserveAspectRatio="xMidYMid meet" version="1.1" viewBox="0.0 0 1536.0 2048" width="1536.0px" xml:space="preserve" xmlns="http://www.w3.org/2000/svg" xmlns:xlink="http://www.w3.org/1999/xlink" zoomAndPan="magnify"><path d="M1280,1056V576c0-17.333-6.333-32.333-19-45s-27.667-19-45-19H736c-28,0-47.667,13-59,39c-11.333,27.333-6.667,50.667,14,70  l144,144l-534,534c-12.667,12.667-19,27.667-19,45s6.333,32.333,19,45l102,102c12.667,12.667,27.667,19,45,19s32.333-6.333,45-19  l534-534l144,144c12,12.667,27,19,45,19c8,0,16.333-1.667,25-5C1267,1103.667,1280,1084,1280,1056z M1536,544v960  c0,79.333-28.167,147.167-84.5,203.5S1327.333,1792,1248,1792H288c-79.333,0-147.167-28.167-203.5-84.5S0,1583.333,0,1504V544  c0-79.333,28.167-147.167,84.5-203.5S208.667,256,288,256h960c79.333,0,147.167,28.167,203.5,84.5S1536,464.667,1536,544z"/></svg>