<?xml version="1.0" ?><svg contentScriptType="text/ecmascript" contentStyleType="text/css" enable-background="new 0 0 2048 2048" height="2048px" id="Layer_1" preserveAspectRatio="xMidYMid meet" version="1.1" viewBox="0.0 0 384.0 2048" width="384.0px" xml:space="preserve" xmlns="http://www.w3.org/2000/svg" xmlns:xlink="http://www.w3.org/1999/xlink" zoomAndPan="magnify"><path d="M384,1376v192c0,26.667-9.333,49.333-28,68s-41.333,28-68,28H96c-26.667,0-49.333-9.333-68-28s-28-41.333-28-68v-192  c0-26.667,9.333-49.333,28-68s41.333-28,68-28h192c26.667,0,49.333,9.333,68,28S384,1349.333,384,1376z M384,864v192  c0,26.667-9.333,49.333-28,68s-41.333,28-68,28H96c-26.667,0-49.333-9.333-68-28s-28-41.333-28-68V864c0-26.667,9.333-49.333,28-68  s41.333-28,68-28h192c26.667,0,49.333,9.333,68,28S384,837.333,384,864z M384,352v192c0,26.667-9.333,49.333-28,68s-41.333,28-68,28  H96c-26.667,0-49.333-9.333-68-28S0,570.667,0,544V352c0-26.667,9.333-49.333,28-68s41.333-28,68-28h192  c26.667,0,49.333,9.333,68,28S384,325.333,384,352z"/></svg>