<?xml version="1.0" ?><svg contentScriptType="text/ecmascript" contentStyleType="text/css" enable-background="new 0 0 2048 2048" height="2048px" id="Layer_1" preserveAspectRatio="xMidYMid meet" version="1.1" viewBox="0.0 0 1536.0 2048" width="1536.0px" xml:space="preserve" xmlns="http://www.w3.org/2000/svg" xmlns:xlink="http://www.w3.org/1999/xlink" zoomAndPan="magnify"><path d="M1145,1245c-11.333,23.333-30.333,35-57,35H448c-26.667,0-45.667-11.667-57-35c-12-23.333-10.333-45.333,5-66l320-448  c12.667-18,30-27,52-27s39.333,9,52,27l320,448C1155.333,1199.667,1157,1221.667,1145,1245z M1280,1504V544  c0-8.667-3.167-16.167-9.5-22.5s-13.833-9.5-22.5-9.5H288c-8.667,0-16.167,3.167-22.5,9.5S256,535.333,256,544v960  c0,8.667,3.167,16.167,9.5,22.5s13.833,9.5,22.5,9.5h960c8.667,0,16.167-3.167,22.5-9.5S1280,1512.667,1280,1504z M1536,544v960  c0,79.333-28.167,147.167-84.5,203.5S1327.333,1792,1248,1792H288c-79.333,0-147.167-28.167-203.5-84.5S0,1583.333,0,1504V544  c0-79.333,28.167-147.167,84.5-203.5S208.667,256,288,256h960c79.333,0,147.167,28.167,203.5,84.5S1536,464.667,1536,544z"/></svg>