<?xml version="1.0" ?><svg contentScriptType="text/ecmascript" contentStyleType="text/css" enable-background="new 0 0 2048 2048" height="2048px" id="Layer_1" preserveAspectRatio="xMidYMid meet" version="1.1" viewBox="0.0 0 1536.0 2048" width="1536.0px" xml:space="preserve" xmlns="http://www.w3.org/2000/svg" xmlns:xlink="http://www.w3.org/1999/xlink" zoomAndPan="magnify"><path d="M1088,1024c0,22-9,39.333-27,52l-448,320c-20.667,15.333-42.667,17-66,5c-23.333-11.333-35-30.333-35-57V704  c0-26.667,11.667-45.667,35-57c23.333-12,45.333-10.333,66,5l448,320C1079,984.667,1088,1002,1088,1024z M1280,1504V544  c0-9.333-3-17-9-23s-13.667-9-23-9H288c-9.333,0-17,3-23,9s-9,13.667-9,23v960c0,9.333,3,17,9,23s13.667,9,23,9h960  c9.333,0,17-3,23-9S1280,1513.333,1280,1504z M1536,544v960c0,79.333-28.167,147.167-84.5,203.5S1327.333,1792,1248,1792H288  c-79.333,0-147.167-28.167-203.5-84.5S0,1583.333,0,1504V544c0-79.333,28.167-147.167,84.5-203.5S208.667,256,288,256h960  c79.333,0,147.167,28.167,203.5,84.5S1536,464.667,1536,544z"/></svg>