<?xml version="1.0" ?><svg contentScriptType="text/ecmascript" contentStyleType="text/css" enable-background="new 0 0 2048 2048" height="2048px" id="Layer_1" preserveAspectRatio="xMidYMid meet" version="1.1" viewBox="21.0 0 1238.0 2048" width="1238.0px" xml:space="preserve" xmlns="http://www.w3.org/2000/svg" xmlns:xlink="http://www.w3.org/1999/xlink" zoomAndPan="magnify"><path d="M1259,1381v66c0,56.667-19.167,104.833-57.5,144.5S1117,1651,1063,1651h-57l-260,269v-269H217  c-54,0-100.167-19.833-138.5-59.5S21,1503.667,21,1447v-66H1259z M1259,1055v255H21v-255H1259z M1259,727v255H21V727H1259z   M1259,587v67H21v-67c0-56,19.167-103.833,57.5-143.5S163,384,217,384h846c54,0,100.167,19.833,138.5,59.5S1259,531,1259,587z"/></svg>