<?xml version="1.0" ?><svg contentScriptType="text/ecmascript" contentStyleType="text/css" enable-background="new 0 0 2048 2048" height="2048px" id="Layer_1" preserveAspectRatio="xMidYMid meet" version="1.1" viewBox="-3.0 0 1033.0 2048" width="1033.0px" xml:space="preserve" xmlns="http://www.w3.org/2000/svg" xmlns:xlink="http://www.w3.org/1999/xlink" zoomAndPan="magnify"><path d="M32,384h704c8.667,0,16.167,3.167,22.5,9.5s9.5,14.167,9.5,23.5v863h192c26.667,0,46,12.333,58,37s9,47.667-9,69l-320,384  c-12,14.667-28.333,22-49,22s-37-7.333-49-22l-320-384c-17.333-20.667-20.333-43.667-9-69c12-24.667,31.333-37,58-37h192V640H192  c-9.333,0-17.667-3.667-25-11L7,437c-8.667-9.333-10-20.667-4-34C9,390.333,18.667,384,32,384z"/></svg>