<?xml version="1.0" ?><svg contentScriptType="text/ecmascript" contentStyleType="text/css" enable-background="new 0 0 2048 2048" height="2048px" id="Layer_1" preserveAspectRatio="xMidYMid meet" version="1.1" viewBox="0.0 0 1536.0 2048" width="1536.0px" xml:space="preserve" xmlns="http://www.w3.org/2000/svg" xmlns:xlink="http://www.w3.org/1999/xlink" zoomAndPan="magnify"><path d="M919,1431v-157c0-33.333-9.667-50-29-50c-11.333,0-22.333,5.333-33,16v224c10.667,10.667,21.667,16,33,16  C909.333,1480,919,1463.667,919,1431z M1103,1309h66v-34c0-34-11-51-33-51s-33,17-33,51V1309z M532,1043v70h-80v423h-74v-423h-78  v-70H532z M733,1169v367h-67v-40c-26,30-51.333,45-76,45c-22,0-36-9.333-42-28c-4-10.667-6-28.667-6-54v-290h66v270  c0,16,0.333,24.667,1,26c0.667,10,5.667,15,15,15c13.333,0,27.333-10.333,42-31v-280H733z M985,1280v146c0,34.667-2.333,59-7,73  c-8,28-25.667,42-53,42c-23.333,0-46-13.667-68-41v36h-67v-493h67v161c21.333-26.667,44-40,68-40c27.333,0,45,14,53,42  C982.667,1220,985,1244.667,985,1280z M1236,1409v9c0,19.333-0.667,33.667-2,43c-2,14.667-7,28-15,40c-18,26.667-44.667,40-80,40  c-34.667,0-61.667-12.667-81-38c-14-18-21-46.667-21-86v-129c0-39.333,6.667-68,20-86c19.333-25.333,46-38,80-38s60,12.667,78,38  c14,18.667,21,47.333,21,86v76h-133v65c0,34,11.333,51,34,51c16,0,26-8.667,30-26c0-0.667,0.167-3,0.5-7s0.5-9.5,0.5-16.5V1409H1236  z M785,585v156c0,34-10.667,51-32,51s-32-17-32-51V585c0-34.667,10.667-52,32-52S785,550.333,785,585z M1318,1298  c0-118-6.333-204.667-19-260c-6.667-29.333-21-53.833-43-73.5s-47.333-31.167-76-34.5c-90.667-10-228-15-412-15  c-183.333,0-320.333,5-411,15c-29.333,3.333-54.833,14.833-76.5,34.5s-35.833,44.167-42.5,73.5c-13.333,58-20,144.667-20,260  c0,117.333,6.667,204,20,260c6.667,28.667,20.833,53,42.5,73s46.833,31.667,75.5,35c91.333,10,228.667,15,412,15s320.667-5,412-15  c28.667-3.333,53.833-15,75.5-35s35.833-44.333,42.5-73C1311.333,1502,1318,1415.333,1318,1298z M563,647l90-296h-75l-51,195  l-53-195h-78l24,69c0,0,7.667,23,23,69c23.333,68.667,38.667,121.333,46,158v201h74V647z M852,728V598c0-38.667-7-67.667-21-87  c-19.333-25.333-45.333-38-78-38c-34,0-60,12.667-78,38c-14,19.333-21,48.333-21,87v130c0,38.667,7,67.667,21,87  c18,25.333,44,38,78,38c32.667,0,58.667-12.667,78-38C845,797,852,768,852,728z M1033,848h67V478h-67v283  c-14.667,20.667-28.667,31-42,31c-10,0-15.333-5.333-16-16c-0.667-1.333-1-10-1-26V478h-67v293c0,24.667,2,43,6,55  c7.333,18,21.667,27,43,27c24,0,49.667-15,77-45V848z M1536,544v960c0,79.333-28.167,147.167-84.5,203.5S1327.333,1792,1248,1792  H288c-79.333,0-147.167-28.167-203.5-84.5S0,1583.333,0,1504V544c0-79.333,28.167-147.167,84.5-203.5S208.667,256,288,256h960  c79.333,0,147.167,28.167,203.5,84.5S1536,464.667,1536,544z"/></svg>