<?xml version="1.0" ?><svg contentScriptType="text/ecmascript" contentStyleType="text/css" enable-background="new 0 0 2048 2048" height="2048px" id="Layer_1" preserveAspectRatio="xMidYMid meet" version="1.1" viewBox="0.0 0 1664.0 2048" width="1664.0px" xml:space="preserve" xmlns="http://www.w3.org/2000/svg" xmlns:xlink="http://www.w3.org/1999/xlink" zoomAndPan="magnify"><path d="M128,1792h1408V768H128V1792z M512,576V288c0-9.333-3-17-9-23s-13.667-9-23-9h-64c-9.333,0-17,3-23,9s-9,13.667-9,23v288  c0,9.333,3,17,9,23s13.667,9,23,9h64c9.333,0,17-3,23-9S512,585.333,512,576z M1280,576V288c0-9.333-3-17-9-23s-13.667-9-23-9h-64  c-9.333,0-17,3-23,9s-9,13.667-9,23v288c0,9.333,3,17,9,23s13.667,9,23,9h64c9.333,0,17-3,23-9S1280,585.333,1280,576z M1664,512  v1280c0,34.667-12.667,64.667-38,90s-55.333,38-90,38H128c-34.667,0-64.667-12.667-90-38s-38-55.333-38-90V512  c0-34.667,12.667-64.667,38-90s55.333-38,90-38h128v-96c0-44,15.667-81.667,47-113s69-47,113-47h64c44,0,81.667,15.667,113,47  s47,69,47,113v96h384v-96c0-44,15.667-81.667,47-113s69-47,113-47h64c44,0,81.667,15.667,113,47s47,69,47,113v96h128  c34.667,0,64.667,12.667,90,38S1664,477.333,1664,512z"/></svg>