<?xml version="1.0" ?><svg contentScriptType="text/ecmascript" contentStyleType="text/css" enable-background="new 0 0 2048 2048" height="2048px" id="Layer_1" preserveAspectRatio="xMidYMid meet" version="1.1" viewBox="-2.3330001831054688 0 1032.3330078125 2048" width="1032.3330078125px" xml:space="preserve" xmlns="http://www.w3.org/2000/svg" xmlns:xlink="http://www.w3.org/1999/xlink" zoomAndPan="magnify"><path d="M1018,731c-12,24.667-31.333,37-58,37H768v864c0,9.333-3,17-9,23s-13.667,9-23,9H32c-14,0-23.667-6-29-18  c-5.333-13.333-4-25,4-35l160-192c6-7.333,14.333-11,25-11h320V768H320c-26.667,0-46-12.333-58-37c-11.333-24.667-8.333-47.333,9-68  l320-384c12-14.667,28.333-22,49-22s37,7.333,49,22l320,384C1027,684.333,1030,707,1018,731z"/></svg>