<?xml version="1.0" ?><svg contentScriptType="text/ecmascript" contentStyleType="text/css" enable-background="new 0 0 2048 2048" height="2048px" id="Layer_1" preserveAspectRatio="xMidYMid meet" version="1.1" viewBox="0.0 0 1280.0 2048" width="1280.0px" xml:space="preserve" xmlns="http://www.w3.org/2000/svg" xmlns:xlink="http://www.w3.org/1999/xlink" zoomAndPan="magnify"><path d="M1280,1184c0,26.667-9.333,49.333-28,68s-41.333,28-68,28c-34,0-60.667-14.333-80-43L877,896h-45v132l247,411  c6,10,9,21,9,33c0,17.333-6.333,32.333-19,45s-27.667,19-45,19H832v272c0,30.667-11,57-33,79s-48.333,33-79,33H560  c-30.667,0-57-11-79-33s-33-48.333-33-79v-272H256c-17.333,0-32.333-6.333-45-19s-19-27.667-19-45c0-12,3-23,9-33l247-411V896h-45  l-227,341c-19.333,28.667-46,43-80,43c-26.667,0-49.333-9.333-68-28s-28-41.333-28-68c0-19.333,5.333-37,16-53l256-384  c48.667-71.333,107.333-107,176-107h384c68.667,0,127.333,35.667,176,107l256,384C1274.667,1147,1280,1164.667,1280,1184z M864,384  c0,62-21.833,114.833-65.5,158.5S702,608,640,608s-114.833-21.833-158.5-65.5S416,446,416,384s21.833-114.833,65.5-158.5  S578,160,640,160s114.833,21.833,158.5,65.5S864,322,864,384z"/></svg>