<?xml version="1.0" ?><svg contentScriptType="text/ecmascript" contentStyleType="text/css" enable-background="new 0 0 2048 2048" height="2048px" id="Layer_1" preserveAspectRatio="xMidYMid meet" version="1.1" viewBox="-1.0 0 1933.3330078125 2048" width="1933.3330078125px" xml:space="preserve" xmlns="http://www.w3.org/2000/svg" xmlns:xlink="http://www.w3.org/1999/xlink" zoomAndPan="magnify"><path d="M1917,648c15.333,42.667-34.667,140.667-150,294c-16,21.333-37.667,49.667-65,85c-52,66.667-82,110.333-90,131  c-11.333,27.333-6.667,54.333,14,81c11.333,14,38.333,41.333,81,82h1l1,1l1,1l2,2c94,87.333,157.667,161,191,221  c2,3.333,4.167,7.5,6.5,12.5s4.667,13.833,7,26.5s2.167,24-0.5,34s-11,19.167-25,27.5s-33.667,12.5-59,12.5l-256,4  c-16,3.333-34.667,1.667-56-5s-38.667-14-52-22l-20-12c-20-14-43.333-35.333-70-64s-49.5-54.5-68.5-77.5s-39.333-42.333-61-58  s-40.5-20.833-56.5-15.5c-2,0.667-4.667,1.833-8,3.5s-9,6.5-17,14.5s-15.167,17.833-21.5,29.5s-12,29-17,52s-7.167,48.833-6.5,77.5  c0,10-1.167,19.167-3.5,27.5s-4.833,14.5-7.5,18.5l-4,5c-12,12.667-29.667,20-53,22H939c-47.333,2.667-96-2.833-146-16.5  s-93.833-31.333-131.5-53s-72-43.667-103-66S504,1482,488,1466l-25-24c-6.667-6.667-15.833-16.667-27.5-30s-35.5-43.667-71.5-91  s-71.333-97.667-106-151c-34.667-53.333-75.5-123.667-122.5-211S45,781,5,687c-4-10.667-6-19.667-6-27s1-12.667,3-16l4-6  c10-12.667,29-19,57-19l274-2c8,1.333,15.667,3.5,23,6.5s12.667,5.833,16,8.5l5,3c10.667,7.333,18.667,18,24,32  c13.333,33.333,28.667,67.833,46,103.5s31,62.833,41,81.5l16,29c19.333,40,38,74.667,56,104s34.167,52.167,48.5,68.5  s28.167,29.167,41.5,38.5s24.667,14,34,14s18.333-1.667,27-5c1.333-0.667,3-2.333,5-5s6-10,12-22s10.5-27.667,13.5-47  c3-19.333,6.167-46.333,9.5-81s3.333-76.333,0-125c-1.333-26.667-4.333-51-9-73s-9.333-37.333-14-46l-6-12  c-16.667-22.667-45-37-85-43c-8.667-1.333-7-9.333,5-24c11.333-12.667,24-22.667,38-30c35.333-17.333,115-25.333,239-24  c54.667,0.667,99.667,5,135,13c13.333,3.333,24.5,7.833,33.5,13.5s15.833,13.667,20.5,24s8.167,21,10.5,32s3.5,26.167,3.5,45.5  s-0.333,37.667-1,55s-1.5,40.833-2.5,70.5s-1.5,57.167-1.5,82.5c0,7.333-0.333,21.333-1,42s-0.833,36.667-0.5,48  s1.5,24.833,3.5,40.5c2,15.667,5.833,28.667,11.5,39s13.167,18.5,22.5,24.5c5.333,1.333,11,2.667,17,4s14.667-2.333,26-11  s24-20.167,38-34.5s31.333-36.667,52-67s43.333-66.167,68-107.5c40-69.333,75.667-144.333,107-225c2.667-6.667,6-12.5,10-17.5  s7.667-8.5,11-10.5l4-3l5-2.5c0,0,4.333-1,13-3s15.333-2.167,20-0.5l288-2c26-3.333,47.333-2.5,64,2.5s27,10.5,31,16.5L1917,648z"/></svg>