<?xml version="1.0" ?><svg contentScriptType="text/ecmascript" contentStyleType="text/css" enable-background="new 0 0 2048 2048" height="2048px" id="Layer_1" preserveAspectRatio="xMidYMid meet" version="1.1" viewBox="0.0 0 1406.0 2048" width="1406.0px" xml:space="preserve" xmlns="http://www.w3.org/2000/svg" xmlns:xlink="http://www.w3.org/1999/xlink" zoomAndPan="magnify"><path d="M928,1529v151l-707,1v-151L928,1529z M1169,1183v701l-1,35v1H36l-35-1H0v-736h121v618h928v-618H1169z M241,1271l704,65  l-13,150l-705-65L241,1271z M309,955l683,183l-39,146l-683-183L309,955z M472,606l609,360l-77,130L395,736L472,606z M832,275  l398,585l-124,85L707,361L832,275z M1285,128l121,697l-149,26l-121-697L1285,128z"/></svg>