<?xml version="1.0" ?><svg contentScriptType="text/ecmascript" contentStyleType="text/css" enable-background="new 0 0 2048 2048" height="2048px" id="Layer_1" preserveAspectRatio="xMidYMid meet" version="1.1" viewBox="28.66699981689453 0 1763.3330078125 2048" width="1763.3330078125px" xml:space="preserve" xmlns="http://www.w3.org/2000/svg" xmlns:xlink="http://www.w3.org/1999/xlink" zoomAndPan="magnify"><path d="M736,1568c0,8-3.333,16-10,24l-319,319c-6.667,6-14.333,9-23,9c-8,0-15.667-3-23-9L41,1591c-10-10.667-12.333-22.333-7-35  c5.333-13.333,15.333-20,30-20h192V160c0-9.333,3-17,9-23s13.667-9,23-9h192c9.333,0,17,3,23,9s9,13.667,9,23v1376h192  c9.333,0,17,3,23,9S736,1558.667,736,1568z M1792,1696v192c0,9.333-3,17-9,23s-13.667,9-23,9H928c-9.333,0-17-3-23-9s-9-13.667-9-23  v-192c0-9.333,3-17,9-23s13.667-9,23-9h832c9.333,0,17,3,23,9S1792,1686.667,1792,1696z M1600,1184v192c0,9.333-3,17-9,23  s-13.667,9-23,9H928c-9.333,0-17-3-23-9s-9-13.667-9-23v-192c0-9.333,3-17,9-23s13.667-9,23-9h640c9.333,0,17,3,23,9  S1600,1174.667,1600,1184z M1408,672v192c0,9.333-3,17-9,23s-13.667,9-23,9H928c-9.333,0-17-3-23-9s-9-13.667-9-23V672  c0-9.333,3-17,9-23s13.667-9,23-9h448c9.333,0,17,3,23,9S1408,662.667,1408,672z M1216,160v192c0,9.333-3,17-9,23s-13.667,9-23,9  H928c-9.333,0-17-3-23-9s-9-13.667-9-23V160c0-9.333,3-17,9-23s13.667-9,23-9h256c9.333,0,17,3,23,9S1216,150.667,1216,160z"/></svg>