<?xml version="1.0" ?><svg contentScriptType="text/ecmascript" contentStyleType="text/css" enable-background="new 0 0 2048 2048" height="2048px" id="Layer_1" preserveAspectRatio="xMidYMid meet" version="1.1" viewBox="0.0 0 1020.0 2048" width="1020.0px" xml:space="preserve" xmlns="http://www.w3.org/2000/svg" xmlns:xlink="http://www.w3.org/1999/xlink" zoomAndPan="magnify"><path d="M1020,1265v367c0,9.333-3,17-9,23s-13.667,9-23,9H32c-9.333,0-17-3-23-9s-9-13.667-9-23v-150c0-8.667,3.167-16.167,9.5-22.5  s13.833-9.5,22.5-9.5h97v-383H34c-9.333,0-17-3.167-23-9.5s-9-13.833-9-22.5V904c0-9.333,3-17,9-23s13.667-9,23-9h95V649  c0-114,41.167-208,123.5-282S439.667,256,567,256c123.333,0,235,41.667,335,125c6,5.333,9.333,12.167,10,20.5s-1.667,15.833-7,22.5  L802,551c-6,7.333-13.333,11.333-22,12c-8.667,1.333-16.333-1-23-7c-3.333-3.333-12-9.667-26-19s-37-20-69-32s-63-18-93-18  c-56.667,0-102.333,15.667-137,47s-52,72.333-52,123v215h305c8.667,0,16.167,3,22.5,9s9.5,13.667,9.5,23v131  c0,8.667-3.167,16.167-9.5,22.5s-13.833,9.5-22.5,9.5H380v379h414v-181c0-8.667,3-16.167,9-22.5s13.667-9.5,23-9.5h162  c9.333,0,17,3.167,23,9.5S1020,1256.333,1020,1265z"/></svg>