<?xml version="1.0" ?><svg contentScriptType="text/ecmascript" contentStyleType="text/css" enable-background="new 0 0 2048 2048" height="2048px" id="Layer_1" preserveAspectRatio="xMidYMid meet" version="1.1" viewBox="0.0 0 1664.0 2048" width="1664.0px" xml:space="preserve" xmlns="http://www.w3.org/2000/svg" xmlns:xlink="http://www.w3.org/1999/xlink" zoomAndPan="magnify"><path d="M1664,1226c0,54-14.833,99-44.5,135s-70.833,54-123.5,54c-27.333,0-53.167-5.833-77.5-17.5s-44-24.333-59-38  s-33.833-26.333-56.5-38s-46.333-17.5-71-17.5c-73.333,0-110,41.333-110,124c0,26,5.333,64.333,16,115s15.667,89,15,115v5  c-14.667,0-25.667,0.333-33,1c-22.667,2-55.167,5.833-97.5,11.5c-42.333,5.667-80.833,10.167-115.5,13.5s-67.333,5-98,5  c-40.667,0-75-8.833-103-26.5s-42-45.5-42-83.5c0-24.667,5.833-48.333,17.5-71s24.333-41.5,38-56.5s26.333-34.667,38-59  s17.5-50.167,17.5-77.5c0-52.667-18-93.833-54-123.5s-81-44.5-135-44.5c-56,0-103.667,15.167-143,45.5s-59,72.833-59,127.5  c0,28.667,5,56.333,15,83s21.167,48.167,33.5,64.5s23.5,34,33.5,53s15,35.833,15,50.5c0,30-15.333,59.667-46,89  c-24.667,23.333-63.667,35-117,35c-63.333,0-145-8-245-24c-6-1.333-15.167-2.667-27.5-4s-21.5-2.667-27.5-4l-13-2  c-0.667,0-1.667-0.333-3-1c-1.333,0-2-0.333-2-1V640c1.333,0.667,7.167,1.833,17.5,3.5s21.667,3.333,34,5S71,651.333,73,652  c100,16,181.667,24,245,24c53.333,0,92.333-11.667,117-35c30.667-29.333,46-59,46-89c0-14.667-5-31.5-15-50.5  s-21.167-36.667-33.5-53S409,410.667,399,384s-15-54.333-15-83c0-54.667,19.667-97.167,59-127.5S530.333,128,587,128  c53.333,0,98,14.833,134,44.5s54,70.833,54,123.5c0,27.333-5.833,53.167-17.5,77.5s-24.333,44-38,59s-26.333,33.833-38,56.5  S664,535.333,664,560c0,38,14,65.833,42,83.5c28,17.667,62.333,26.5,103,26.5c42.667,0,102.667-5,180-15s131.667-15.667,163-17v2  c-0.667,1.333-1.833,7.167-3.5,17.5s-3.333,21.667-5,34s-2.833,19.5-3.5,21.5c-16,100-24,181.667-24,245  c0,53.333,11.667,92.333,35,117c29.333,30.667,59,46,89,46c14.667,0,31.5-5,50.5-15s36.667-21.167,53-33.5s37.833-23.5,64.5-33.5  s54.333-15,83-15c54.667,0,97.167,19.667,127.5,59S1664,1170,1664,1226z"/></svg>