<?xml version="1.0" ?><svg contentScriptType="text/ecmascript" contentStyleType="text/css" enable-background="new 0 0 2048 2048" height="2048px" id="Layer_1" preserveAspectRatio="xMidYMid meet" version="1.1" viewBox="0.0 0 1471.8330078125 2048" width="1471.8330078125px" xml:space="preserve" xmlns="http://www.w3.org/2000/svg" xmlns:xlink="http://www.w3.org/1999/xlink" zoomAndPan="magnify"><path d="M1262,1431c-36,6-72.667,9-110,9c-121.333,0-233.667-30-337-90s-185-141.667-245-245s-90-215.667-90-337  c0-128,34.667-247,104-357c-134,40-243.5,116.333-328.5,229S128,880.667,128,1024c0,86.667,17,169.5,51,248.5s79.5,147,136.5,204  s125,102.5,204,136.5s161.833,51,248.5,51c96,0,187.167-20.5,273.5-61.5S1201.333,1504.333,1262,1431z M1465,1346  c-62.667,135.333-157.167,243.5-283.5,324.5S917.333,1792,768,1792c-104,0-203.333-20.333-298-61s-176.333-95.333-245-164  s-123.333-150.333-164-245S0,1128,0,1024c0-102,19.167-199.5,57.5-292.5S147.833,558,213.5,490S357.667,367.167,449,325.5  S637,261,739,257c29.333-1.333,49.667,11.667,61,39c12,27.333,7,51.333-15,72c-57.333,52-101.167,112.5-131.5,181.5  S608,691.333,608,768c0,98.667,24.333,189.667,73,273s114.667,149.333,198,198s174.333,73,273,73c78.667,0,154.667-17,228-51  c27.333-12,51.333-7.667,72,13c9.333,9.333,15.167,20.667,17.5,34S1470.333,1334,1465,1346z"/></svg>