<?xml version="1.0" ?><svg contentScriptType="text/ecmascript" contentStyleType="text/css" enable-background="new 0 0 2048 2048" height="2048px" id="Layer_1" preserveAspectRatio="xMidYMid meet" version="1.1" viewBox="0.0 0 1393.0 2048" width="1393.0px" xml:space="preserve" xmlns="http://www.w3.org/2000/svg" xmlns:xlink="http://www.w3.org/1999/xlink" zoomAndPan="magnify"><path d="M1393,1343c-26,83.333-67,166.667-123,250c-86,130.667-171.667,196-257,196c-32.667,0-79.333-10.667-140-32  c-57.333-21.333-107.667-32-151-32c-40.667,0-88,11-142,33c-54,22.667-98,34-132,34c-101.333,0-201.667-86.333-301-259  C49,1359,0,1191.333,0,1030c0-152,37.667-276.667,113-374c74.667-96,169.333-144,284-144c48,0,107,10,177,30  c69.333,20,115.333,30,138,30c30,0,77.667-11.333,143-34c68-22.667,125.667-34,173-34c79.333,0,150.333,21.667,213,65  c34.667,24,69.333,57.333,104,100c-52.667,44.667-90.667,84-114,118c-43.333,62.667-65,131.667-65,207c0,82.667,23,157,69,223  S1333.667,1325,1393,1343z M1017,170c0,40.667-9.667,86-29,136c-20,50-51,96-93,138c-36,36-72,60-108,72  c-24.667,7.333-59.333,13-104,17c2-99.333,28-185,78-257c49.333-71.333,132.667-120.667,250-148c0.667,2,1.5,5.667,2.5,11  s1.833,9,2.5,11c0,2.667,0.167,6,0.5,10S1017,167.333,1017,170z"/></svg>