<?xml version="1.0" ?><svg contentScriptType="text/ecmascript" contentStyleType="text/css" enable-background="new 0 0 2048 2048" height="2048px" id="Layer_1" preserveAspectRatio="xMidYMid meet" version="1.1" viewBox="0.0 0 1536.0 2048" width="1536.0px" xml:space="preserve" xmlns="http://www.w3.org/2000/svg" xmlns:xlink="http://www.w3.org/1999/xlink" zoomAndPan="magnify"><path d="M1005,1229l352-352c12.667-12.667,19-27.667,19-45s-6.333-32.333-19-45l-352-352c-20-20.667-43-25.333-69-14  c-26.667,11.333-40,31-40,59v160c-79.333,0-151.333,6.5-216,19.5s-118.833,30-162.5,51s-81.667,47.333-114,79S345.667,853,327,885  s-33.5,68.333-44.5,109c-11,40.667-18.167,77.833-21.5,111.5s-5,70.5-5,110.5c0,120.667,55.667,255.333,167,404c6.667,8,15,12,25,12  c4.667,0,9-1,13-3c14.667-6,21-17,19-33c-29.333-236-8.667-393.667,62-473c30.667-34.667,74-59.833,130-75.5s130.667-23.5,224-23.5  v160c0,28,13.333,47.667,40,59c8,3.333,16,5,24,5C977.333,1248,992.333,1241.667,1005,1229z M1536,544v960  c0,79.333-28.167,147.167-84.5,203.5S1327.333,1792,1248,1792H288c-79.333,0-147.167-28.167-203.5-84.5S0,1583.333,0,1504V544  c0-79.333,28.167-147.167,84.5-203.5S208.667,256,288,256h960c79.333,0,147.167,28.167,203.5,84.5S1536,464.667,1536,544z"/></svg>