<?xml version="1.0" ?><svg contentScriptType="text/ecmascript" contentStyleType="text/css" enable-background="new 0 0 2048 2048" height="2048px" id="Layer_1" preserveAspectRatio="xMidYMid meet" version="1.1" viewBox="27.0 0 1482.0 2048" width="1482.0px" xml:space="preserve" xmlns="http://www.w3.org/2000/svg" xmlns:xlink="http://www.w3.org/1999/xlink" zoomAndPan="magnify"><path d="M971,1372v211c0,44.667-13,67-39,67c-15.333,0-30.333-7.333-45-22v-301c14.667-14.667,29.667-22,45-22  C958,1305,971,1327.333,971,1372z M1309,1373v46h-90v-46c0-45.333,15-68,45-68S1309,1327.667,1309,1373z M343,1155h107v-94H138v94  h105v569h100V1155z M631,1724h89v-494h-89v378c-20,28-39,42-57,42c-12,0-19-7-21-21c-0.667-2-1-13.667-1-35v-364h-89v391  c0,32.667,2.667,57,8,73c8,24.667,27.333,37,58,37c32,0,66-20.333,102-61V1724z M1060,1576v-197c0-48.667-3-81.667-9-99  c-11.333-37.333-35-56-71-56c-33.333,0-64.333,18-93,54v-217h-89v663h89v-48c30,36.667,61,55,93,55c36,0,59.667-18.333,71-55  C1057,1658,1060,1624.667,1060,1576z M1398,1566v-13h-91c0,34-0.667,54.333-2,61c-4.667,24-18,36-40,36c-30.667,0-46-23-46-69v-87  h179v-103c0-52.667-9-91.333-27-116c-26-34-61.333-51-106-51c-45.333,0-81,17-107,51c-18.667,24.667-28,63.333-28,116v173  c0,52.667,9.667,91.333,29,116c26,34,62,51,108,51c48,0,84-17.667,108-53c12-18,19-36,21-54C1397.333,1618,1398,1598.667,1398,1566z   M790,653V443c0-46-14.333-69-43-69s-43,23-43,69v210c0,46.667,14.333,70,43,70S790,699.667,790,653z M1509,1404  c0,156-8.667,272.667-26,350c-9.333,39.333-28.667,72.333-58,99s-63.333,42-102,46c-122.667,14-307.667,21-555,21s-432.333-7-555-21  c-38.667-4-72.833-19.333-102.5-46s-48.833-59.667-57.5-99c-17.333-74.667-26-191.333-26-350c0-156,8.667-272.667,26-350  c9.333-39.333,28.667-72.333,58-99s63.667-42.333,103-47c122-13.333,306.667-20,554-20s432.333,6.667,555,20  c38.667,4.667,72.833,20.333,102.5,47s48.833,59.667,57.5,99C1500.333,1128.667,1509,1245.333,1509,1404z M511,128h102L492,527v271  H392V527c-9.333-49.333-29.667-120-61-212c-24.667-68.667-46.333-131-65-187h106l71,263L511,128z M881,461v175  c0,54-9.333,93.333-28,118c-24.667,34-60,51-106,51c-44.667,0-79.667-17-105-51c-18.667-25.333-28-64.667-28-118V461  c0-53.333,9.333-92.333,28-117c25.333-34,60.333-51,105-51c46,0,81.333,17,106,51C871.667,368.667,881,407.667,881,461z M1216,299  v499h-91v-55c-35.333,41.333-69.667,62-103,62c-30.667,0-50.333-12.333-59-37c-5.333-16-8-41-8-75V299h91v367  c0,22,0.333,33.667,1,35c2,14.667,9,22,21,22c18,0,37-14.333,57-43V299H1216z"/></svg>