<?xml version="1.0" ?><svg contentScriptType="text/ecmascript" contentStyleType="text/css" enable-background="new 0 0 2048 2048" height="2048px" id="Layer_1" preserveAspectRatio="xMidYMid meet" version="1.1" viewBox="-2.1669998168945312 0 1924.333984375 2048" width="1924.333984375px" xml:space="preserve" xmlns="http://www.w3.org/2000/svg" xmlns:xlink="http://www.w3.org/1999/xlink" zoomAndPan="magnify"><path d="M896,1536l336-384H464l-336,384H896z M1909,459c10,22.667,13.167,46.5,9.5,71.5s-13.833,46.833-30.5,65.5L992,1620  c-25.333,29.333-57.333,44-96,44H128c-25.333,0-48.5-6.833-69.5-20.5S21.667,1611.667,11,1589c-10-22.667-13.167-46.5-9.5-71.5  s13.833-46.833,30.5-65.5L928,428c25.333-29.333,57.333-44,96-44h768c25.333,0,48.5,6.833,69.5,20.5S1898.333,436.333,1909,459z"/></svg>