<?xml version="1.0" ?><svg contentScriptType="text/ecmascript" contentStyleType="text/css" enable-background="new 0 0 2048 2048" height="2048px" id="Layer_1" preserveAspectRatio="xMidYMid meet" version="1.1" viewBox="0.0 0 1600.0 2048" width="1600.0px" xml:space="preserve" xmlns="http://www.w3.org/2000/svg" xmlns:xlink="http://www.w3.org/1999/xlink" zoomAndPan="magnify"><path d="M256,704c0,17.333-6.333,32.333-19,45s-27.667,19-45,19c-18,0-33.167-6.333-45.5-19S128,721.333,128,704  c0-18,6.167-33.167,18.5-45.5S174,640,192,640c17.333,0,32.333,6.167,45,18.5S256,686,256,704z M416,1216V576  c0-17.333-6.333-32.333-19-45s-27.667-19-45-19H64c-17.333,0-32.333,6.333-45,19S0,558.667,0,576v640c0,17.333,6.333,32.333,19,45  s27.667,19,45,19h288c17.333,0,32.333-6.333,45-19S416,1233.333,416,1216z M1545,1067c36.667,40.667,55,90.333,55,149  c-0.667,52-19.833,97-57.5,135s-82.5,57-134.5,57h-277c2.667,9.333,5.333,17.333,8,24s6.333,14,11,22s8,14,10,18  c12,24.667,21,43.667,27,57s12.333,32.833,19,58.5s10,51.167,10,76.5c0,16-0.167,29-0.5,39s-2,25-5,45s-7,36.667-12,50  s-13,28.333-24,45s-24.333,30.167-40,40.5s-35.667,19-60,26s-51.833,10.5-82.5,10.5c-17.333,0-32.333-6.333-45-19  c-13.333-13.333-24.667-30-34-50s-15.833-37.333-19.5-52s-7.833-35-12.5-61c-6-28-10.5-48.167-13.5-60.5s-8.833-28.5-17.5-48.5  s-19-36-31-48c-22-22-55.667-62-101-120c-32.667-42.667-66.333-83-101-121s-60-57.667-76-59c-16.667-1.333-31-8.167-43-20.5  s-18-26.833-18-43.5V576c0-17.333,6.333-32.167,19-44.5s27.667-18.833,45-19.5c23.333-0.667,76-15.333,158-44  c51.333-17.333,91.5-30.5,120.5-39.5s69.5-18.667,121.5-29s100-15.5,144-15.5h17h76h36c88.667,1.333,154.333,27.333,197,78  c38.667,46,55,106.333,49,181c26,24.667,44,56,54,94c11.333,40.667,11.333,79.667,0,117c30.667,40.667,45,86.333,43,137  C1560,1012.333,1555,1037.667,1545,1067z"/></svg>