<?xml version="1.0" ?><svg contentScriptType="text/ecmascript" contentStyleType="text/css" enable-background="new 0 0 2048 2048" height="2048px" id="Layer_1" preserveAspectRatio="xMidYMid meet" version="1.1" viewBox="-1.6669998168945312 0 1412.0 2048" width="1412.0px" xml:space="preserve" xmlns="http://www.w3.org/2000/svg" xmlns:xlink="http://www.w3.org/1999/xlink" zoomAndPan="magnify"><path d="M597,795c-6.667,12-92.333,164-257,456c-18,30.667-39.667,46-65,46H36c-14,0-24.333-5.667-31-17s-6.667-23.333,0-36l253-448  c0.667,0,0.667-0.333,0-1L97,516c-8-14.667-8.333-27-1-37c6-10,16.667-15,32-15h239c26.667,0,48.667,15,66,45L597,795z M1403,153  c7.333,10.667,7.333,23,0,37l-528,934v1l336,615c7.333,13.333,7.667,25.667,1,37c-6.667,10-17.333,15-32,15H941c-28,0-50-15-66-45  l-339-622c12-21.333,189-335.333,531-942c16.667-30,38-45,64-45h241C1386.667,138,1397,143,1403,153z"/></svg>