<?xml version="1.0" ?><svg contentScriptType="text/ecmascript" contentStyleType="text/css" enable-background="new 0 0 2048 2048" height="2048px" id="Layer_1" preserveAspectRatio="xMidYMid meet" version="1.1" viewBox="0.0 0 1536.0 2048" width="1536.0px" xml:space="preserve" xmlns="http://www.w3.org/2000/svg" xmlns:xlink="http://www.w3.org/1999/xlink" zoomAndPan="magnify"><path d="M1024,704v640c0,17.333-6.333,32.333-19,45s-27.667,19-45,19c-13.333,0-25.667-4-37-12l-448-320c-18-12.667-27-30-27-52  s9-39.333,27-52l448-320c11.333-8,23.667-12,37-12c17.333,0,32.333,6.333,45,19S1024,686.667,1024,704z M1280,1504V544  c0-8.667-3.167-16.167-9.5-22.5s-13.833-9.5-22.5-9.5H288c-8.667,0-16.167,3.167-22.5,9.5S256,535.333,256,544v960  c0,8.667,3.167,16.167,9.5,22.5s13.833,9.5,22.5,9.5h960c8.667,0,16.167-3.167,22.5-9.5S1280,1512.667,1280,1504z M1536,544v960  c0,79.333-28.167,147.167-84.5,203.5S1327.333,1792,1248,1792H288c-79.333,0-147.167-28.167-203.5-84.5S0,1583.333,0,1504V544  c0-79.333,28.167-147.167,84.5-203.5S208.667,256,288,256h960c79.333,0,147.167,28.167,203.5,84.5S1536,464.667,1536,544z"/></svg>