<?xml version="1.0" ?><svg contentScriptType="text/ecmascript" contentStyleType="text/css" enable-background="new 0 0 2048 2048" height="2048px" id="Layer_1" preserveAspectRatio="xMidYMid meet" version="1.1" viewBox="0.0 0 1799.5 2048" width="1799.5px" xml:space="preserve" xmlns="http://www.w3.org/2000/svg" xmlns:xlink="http://www.w3.org/1999/xlink" zoomAndPan="magnify"><path d="M675,1412c14-22.667,17.667-45.667,11-69s-21.667-40-45-50c-22.667-9.333-47-9.667-73-1s-46,24-60,46  c-14.667,22.667-19,45.5-13,68.5s20.333,39.833,43,50.5s47.5,11.5,74.5,2.5S660.333,1434.667,675,1412z M769,1291  c5.333-8.667,6.5-17.5,3.5-26.5s-8.833-15.167-17.5-18.5c-9.333-3.333-18.833-3.167-28.5,0.5s-16.833,9.833-21.5,18.5  c-11.333,20.667-7,35.667,13,45c9.333,3.333,19,3.167,29-0.5S764.333,1299.667,769,1291z M943,1398c-30,68-82.667,118-158,150  s-150,36-224,12c-71.333-22.667-120.5-64.833-147.5-126.5s-24.833-124.167,6.5-187.5c31.333-62,81.833-108.333,151.5-139  s139.833-37,210.5-19c74,19.333,126.833,59.167,158.5,119.5C972.167,1267.833,973,1331.333,943,1398z M1255,1238  c-6-64-35.667-120.667-89-170c-53.333-49.333-122.833-85.667-208.5-109S780.333,928.667,683,938  c-148.667,15.333-271.833,62.5-369.5,141.5S171.667,1246.667,181,1344c6,64,35.667,120.667,89,170s122.833,85.667,208.5,109  s177.167,30.333,274.5,21c148.667-15.333,271.833-62.5,369.5-141.5S1264.333,1335.333,1255,1238z M1563,1242  c0,45.333-12.333,91.833-37,139.5s-61,93.333-109,137s-104.167,82.833-168.5,117.5s-139.667,62.333-226,83S846,1750,752,1750  s-185.667-11.167-275-33.5s-169.5-53.333-240.5-93s-128.167-90-171.5-151S0,1345,0,1273c0-76.667,23.167-158.333,69.5-245  S181.667,855.333,267,770c112.667-112.667,226.5-191.333,341.5-236s197.167-42.333,246.5,7c43.333,42.667,50,112.333,20,209  c-2.667,9.333-3,16-1,20s5.333,6.333,10,7s9.5,0.5,14.5-0.5s9.5-2.167,13.5-3.5l6-2c92.667-39.333,174.667-59,246-59  s122.333,20.333,153,61c30,42,30,101.333,0,178c-1.333,8.667-2.833,15.333-4.5,20s-0.167,8.833,4.5,12.5s8.667,6.167,12,7.5  s9,3.333,17,6c38,12,72.333,27.667,103,47s57.333,46.5,80,81.5S1563,1199.333,1563,1242z M1489,618  c28,31.333,46.167,67.5,54.5,108.5s6.167,80.167-6.5,117.5c-5.333,15.333-15.167,26.667-29.5,34s-29.167,8.667-44.5,4  c-15.333-5.333-26.667-15.167-34-29.5s-8.667-29.167-4-44.5c13.333-42,5.333-79-24-111s-65-43.667-107-35c-16,3.333-31,0.667-45-8  s-22.333-21-25-37c-3.333-16-0.667-30.833,8-44.5s21-22.167,37-25.5c40-8.667,79.667-6.833,119,5.5S1461,586.667,1489,618z   M1670,455c58,64,95.5,138.167,112.5,222.5S1795,842.333,1769,919c-6,18-17.333,31.333-34,40s-34,10-52,4s-31.333-17.333-40-34  s-10.333-34-5-52c18.667-54.667,22-112,10-172s-38.667-112.667-80-158c-41.333-46-90.667-77.833-148-95.5s-115-20.5-173-8.5  c-18.667,4-36,0.833-52-9.5s-26-24.833-30-43.5s-0.833-35.833,9.5-51.5s24.833-25.5,43.5-29.5c82-17.333,163.333-13.5,244,11.5  S1612,390.333,1670,455z"/></svg>