<?xml version="1.0" ?><svg contentScriptType="text/ecmascript" contentStyleType="text/css" enable-background="new 0 0 2048 2048" height="2048px" id="Layer_1" preserveAspectRatio="xMidYMid meet" version="1.1" viewBox="0.0 0 1408.0 2048" width="1408.0px" xml:space="preserve" xmlns="http://www.w3.org/2000/svg" xmlns:xlink="http://www.w3.org/1999/xlink" zoomAndPan="magnify"><path d="M493,611c10.667,0,19.833-3.833,27.5-11.5S532,582.667,532,572s-3.833-19.833-11.5-27.5S503.667,533,493,533  s-19.667,3.833-27,11.5s-11,16.833-11,27.5s3.667,19.833,11,27.5S482.333,611,493,611z M915,611c10.667,0,19.667-3.833,27-11.5  s11-16.833,11-27.5s-3.667-19.833-11-27.5S925.667,533,915,533s-19.833,3.833-27.5,11.5S876,561.333,876,572s3.833,19.833,11.5,27.5  S904.333,611,915,611z M103,795c28,0,52,10,72,30s30,44,30,72v430c0,28.667-9.833,53-29.5,73s-43.833,30-72.5,30s-53-10-73-30  s-30-44.333-30-73V897c0-28,10-52,30-72S74.333,795,103,795z M1163,814v666c0,30.667-10.667,56.667-32,78s-47,32-77,32h-75v227  c0,28.667-10,53-30,73s-44.333,30-73,30s-53-10-73-30s-30-44.333-30-73v-227H635v227c0,28.667-10,53-30,73s-44.333,30-73,30  c-28,0-52-10-72-30s-30-44.333-30-73l-1-227h-74c-30.667,0-56.667-10.667-78-32s-32-47.333-32-78V814H1163z M931,409  c71.333,36.667,128.333,87.833,171,153.5s64,137.5,64,215.5H241c0-78,21.333-149.833,64-215.5S405,445.667,477,409l-71-131  c-4.667-8.667-3-15.333,5-20c8.667-4,15.333-2,20,6l72,132c63.333-28,130.333-42,201-42s137.667,14,201,42l72-132  c4.667-8,11.333-10,20-6c8,4.667,9.667,11.333,5,20L931,409z M1408,897v430c0,28.667-10,53-30,73s-44.333,30-73,30  c-28,0-52-10-72-30s-30-44.333-30-73V897c0-28.667,10-52.833,30-72.5s44-29.5,72-29.5c28.667,0,53,9.833,73,29.5  S1408,868.333,1408,897z"/></svg>