<?xml version="1.0" ?><svg contentScriptType="text/ecmascript" contentStyleType="text/css" enable-background="new 0 0 2048 2048" height="2048px" id="Layer_1" preserveAspectRatio="xMidYMid meet" version="1.1" viewBox="0.0 0 1792.0 2048" width="1792.0px" xml:space="preserve" xmlns="http://www.w3.org/2000/svg" xmlns:xlink="http://www.w3.org/1999/xlink" zoomAndPan="magnify"><path d="M514,1323l81-299H436l75,300c0.667,0.667,1,1.667,1,3s0.333,2.333,1,3c0-0.667,0.167-1.833,0.5-3.5S514,1323.667,514,1323z   M630,896l35-128H373l32,128H630z M822,896h139l-35-128h-70L822,896z M1271,1324l78-300h-162l81,299c0,0.667,0.167,1.833,0.5,3.5  s0.833,2.833,1.5,3.5c0-0.667,0.167-1.667,0.5-3S1271,1324.667,1271,1324z M1382,896l33-128h-297l34,128H1382z M1792,928v64  c0,9.333-3,17-9,23s-13.667,9-23,9h-213l-164,616c-4.667,16-15,24-31,24h-159c-16,0-26.333-8-31-24l-166-616H787l-167,616  c-4.667,16-15,24-31,24H430c-7.333,0-13.833-2.333-19.5-7s-9.167-10.333-10.5-17l-160-616H32c-9.333,0-17-3-23-9s-9-13.667-9-23v-64  c0-9.333,3-17,9-23s13.667-9,23-9h175l-33-128H32c-9.333,0-17-3-23-9s-9-13.667-9-23v-64c0-9.333,3-17,9-23s13.667-9,23-9h109  L52,296c-3.333-10-1.667-19.333,5-28c6.667-8,15.333-12,26-12h137c17.333,0,27.667,8,31,24l90,360h359l97-360c4.667-16,15-24,31-24  h126c16,0,26.333,8,31,24l98,360h365l93-360c3.333-16,13.667-24,31-24h137c10.667,0,19.333,4,26,12c6.667,8.667,8.333,18,5,28  l-91,344h111c9.333,0,17,3,23,9s9,13.667,9,23v64c0,9.333-3,17-9,23s-13.667,9-23,9h-145l-34,128h179c9.333,0,17,3,23,9  S1792,918.667,1792,928z"/></svg>