<?xml version="1.0" ?><svg contentScriptType="text/ecmascript" contentStyleType="text/css" enable-background="new 0 0 2048 2048" height="2048px" id="Layer_1" preserveAspectRatio="xMidYMid meet" version="1.1" viewBox="0.0 0 1629.0 2048" width="1629.0px" xml:space="preserve" xmlns="http://www.w3.org/2000/svg" xmlns:xlink="http://www.w3.org/1999/xlink" zoomAndPan="magnify"><path d="M1023,1315l102,204c-38.667,119.333-108.667,216-210,290s-214.333,111-339,111c-104,0-200.167-25.833-288.5-77.5  s-158.333-121.667-210-210S0,1448,0,1344c0-120.667,34.833-230.667,104.5-330S265.667,844.333,379,803l17,131  c-81.333,36-146.333,91.167-195,165.5c-48.667,74.333-73,155.833-73,244.5c0,123.333,43.833,228.833,131.5,316.5  S452.667,1792,576,1792c84,0,161.5-21.667,232.5-65s126-101.833,165-175.5S1029,1399,1023,1315z M1571,1415l58,114l-256,128  c-8.667,4.667-18.333,7-29,7c-26.667,0-45.667-11.667-57-35l-239-477H576c-16,0-30.167-5.5-42.5-16.5S514,1111,512,1095l-96-779  c-1.333-10.667,0.667-24.667,6-42c9.333-34,28.333-61.5,57-82.5s61-31.5,97-31.5c44,0,81.667,15.667,113,47s47,69,47,113  c0,46-17.333,85.167-52,117.5s-74.667,46.167-120,41.5l37,289h423v128H617l16,128h455c26.667,0,45.667,11.667,57,35l228,455  L1571,1415z"/></svg>