<?xml version="1.0" ?><svg contentScriptType="text/ecmascript" contentStyleType="text/css" enable-background="new 0 0 2048 2048" height="2048px" id="Layer_1" preserveAspectRatio="xMidYMid meet" version="1.1" viewBox="0.0 0 1280.0 2048" width="1280.0px" xml:space="preserve" xmlns="http://www.w3.org/2000/svg" xmlns:xlink="http://www.w3.org/1999/xlink" zoomAndPan="magnify"><path d="M1088,1088V448H640v1137c79.333-42,150.333-87.667,213-137C1009.667,1325.333,1088,1205.333,1088,1088z M1280,320v768  c0,57.333-11.167,114.167-33.5,170.5s-50,106.333-83,150s-72.333,86.167-118,127.5c-45.667,41.333-87.833,75.667-126.5,103  s-79,53.167-121,77.5s-71.833,40.833-89.5,49.5s-31.833,15.333-42.5,20c-8,4-16.667,6-26,6s-18-2-26-6  c-10.667-4.667-24.833-11.333-42.5-20s-47.5-25.167-89.5-49.5s-82.333-50.167-121-77.5s-80.833-61.667-126.5-103  s-85-83.833-118-127.5s-60.667-93.667-83-150S0,1145.333,0,1088V320c0-17.333,6.333-32.333,19-45s27.667-19,45-19h1152  c17.333,0,32.333,6.333,45,19S1280,302.667,1280,320z"/></svg>