<?xml version="1.0" ?><svg contentScriptType="text/ecmascript" contentStyleType="text/css" enable-background="new 0 0 2048 2048" height="2048px" id="Layer_1" preserveAspectRatio="xMidYMid meet" version="1.1" viewBox="0.0 0 1536.0 2048" width="1536.0px" xml:space="preserve" xmlns="http://www.w3.org/2000/svg" xmlns:xlink="http://www.w3.org/1999/xlink" zoomAndPan="magnify"><path d="M1152,1024c0,9.333-3,17-9,23l-320,320c-6,6-13.667,9-23,9c-8.667,0-16.167-3.167-22.5-9.5s-9.5-13.833-9.5-22.5v-192H416  c-8.667,0-16.167-3.167-22.5-9.5s-9.5-13.833-9.5-22.5V928c0-8.667,3.167-16.167,9.5-22.5s13.833-9.5,22.5-9.5h352V704  c0-9.333,3-17,9-23s13.667-9,23-9c8,0,16,3.333,24,10l319,319C1149,1007,1152,1014.667,1152,1024z M1312,1024  c0-98.667-24.333-189.667-73-273s-114.667-149.333-198-198s-174.333-73-273-73s-189.667,24.333-273,73S345.667,667.667,297,751  s-73,174.333-73,273s24.333,189.667,73,273s114.667,149.333,198,198s174.333,73,273,73s189.667-24.333,273-73  s149.333-114.667,198-198S1312,1122.667,1312,1024z M1536,1024c0,139.333-34.333,267.833-103,385.5s-161.833,210.833-279.5,279.5  S907.333,1792,768,1792s-267.833-34.333-385.5-103S171.667,1527.167,103,1409.5S0,1163.333,0,1024s34.333-267.833,103-385.5  S264.833,427.667,382.5,359S628.667,256,768,256s267.833,34.333,385.5,103s210.833,161.833,279.5,279.5S1536,884.667,1536,1024z"/></svg>