<?xml version="1.0" ?><svg contentScriptType="text/ecmascript" contentStyleType="text/css" enable-background="new 0 0 2048 2048" height="2048px" id="Layer_1" preserveAspectRatio="xMidYMid meet" version="1.1" viewBox="0.0 0 1402.0 2048" width="1402.0px" xml:space="preserve" xmlns="http://www.w3.org/2000/svg" xmlns:xlink="http://www.w3.org/1999/xlink" zoomAndPan="magnify"><path d="M1402,1231c-21.333,53.333-46.667,99.333-76,138s-59.667,68.167-91,88.5s-64.333,35.833-99,46.5s-68.5,15.5-101.5,14.5  s-65.167-3.833-96.5-8.5s-60.167-12-86.5-22s-49.5-19.167-69.5-27.5s-35.333-15.833-46-22.5l-17-10  c-75.333,152-171.833,271.833-289.5,359.5S183.667,1919.333,45,1920c-12.667,0-23.333-4.333-32-13s-13-19.333-13-32  s4.333-23.167,13-31.5s19.333-12.5,32-12.5c115.333-0.667,222.833-36.5,322.5-107.5S551,1554.333,619,1429c-24,9.333-48,17-72,23  s-51.667,10.333-83,13s-61.667,1.833-91-2.5s-60.333-13.833-93-28.5s-63.333-34.333-92-59s-56.833-58-84.5-100S51,1184.333,29,1129  c76-31.333,147.333-50.333,214-57s122.5-4.167,167.5,7.5S497,1110,535,1136s67.5,51.667,88.5,77s39.833,52.667,56.5,82  c35.333-87.333,61.667-184.333,79-291c-4.667,0.667-10.667,1.5-18,2.5s-22.833,1.833-46.5,2.5s-46.833,0.5-69.5-0.5  s-49.833-4.333-81.5-10s-61.167-13.333-88.5-23s-55.333-23.833-84-42.5s-53.667-40.333-75-65s-39.5-56.167-54.5-94.5  S217,692.667,213,646c46.667-18.667,91.167-30.833,133.5-36.5s79.833-5.333,112.5,1s63.333,16.333,92,30  c28.667,13.667,53.167,30.333,73.5,50s39,40,56,61s31,42,42,63s20.167,39.667,27.5,56s12.667,29.5,16,39.5l4,16  c8-81.333,12-146.333,12-195c-5.333-4-12.5-9.333-21.5-16s-25.333-21.5-49-44.5S666.667,623.667,648,599s-36.667-55.667-54-93  s-28.333-74.833-33-112.5s-0.667-80,12-127s36-93.167,70-138.5c48.667,16.667,91.167,37.167,127.5,61.5S835,239.333,855,266  s36,55,48,85s18.833,59.667,20.5,89s1.5,57.833-0.5,85.5s-6.333,53.167-13,76.5s-13,44-19,62s-11.667,32-17,42l-7,15  c0.667,3.333,1,20.167,1,50.5s-0.333,54.167-1,71.5c2-4.667,5.333-10.833,10-18.5s14.833-22,30.5-43s32.5-40.333,50.5-58  s41.667-36.167,71-55.5c29.333-19.333,59.833-34.167,91.5-44.5s69-15.167,112-14.5s87.167,8.667,132.5,24  c-1.333,52-8.5,99.167-21.5,141.5s-29.667,77.167-50,104.5s-43.5,51.167-69.5,71.5s-53.167,35.5-81.5,45.5s-56.5,18-84.5,24  s-54.667,9.167-80,9.5s-47.833,0-67.5-1s-35.167-2.5-46.5-4.5l-17-3c-15.333,98-39.667,192.333-73,283c4-4.667,10-10.833,18-18.5  s24.5-21.333,49.5-41s50.833-37.167,77.5-52.5s59.833-29.333,99.5-42c39.667-12.667,78.833-19.333,117.5-20s81.667,7.167,129,23.5  C1312.333,1169.833,1358,1195.667,1402,1231z"/></svg>