<?xml version="1.0" ?><svg contentScriptType="text/ecmascript" contentStyleType="text/css" enable-background="new 0 0 2048 2048" height="2048px" id="Layer_1" preserveAspectRatio="xMidYMid meet" version="1.1" viewBox="0.0 0 1536.0 2048" width="1536.0px" xml:space="preserve" xmlns="http://www.w3.org/2000/svg" xmlns:xlink="http://www.w3.org/1999/xlink" zoomAndPan="magnify"><path d="M404,1236l152,152l-52,52h-56v-96h-96v-56L404,1236z M818,846c9.333,8.667,8.333,18.667-3,30l-291,291  c-11.333,11.333-21.333,12.333-30,3c-9.333-8.667-8.333-18.667,3-30l291-291C799.333,837.667,809.333,836.667,818,846z M544,1536  l544-544L800,704l-544,544v288H544z M1152,928l92-92c18.667-18.667,28-41.333,28-68s-9.333-49.333-28-68l-152-152  c-18.667-18.667-41.333-28-68-28c-26.667,0-49.333,9.333-68,28l-92,92L1152,928z M1536,544v960c0,79.333-28.167,147.167-84.5,203.5  S1327.333,1792,1248,1792H288c-79.333,0-147.167-28.167-203.5-84.5S0,1583.333,0,1504V544c0-79.333,28.167-147.167,84.5-203.5  S208.667,256,288,256h960c79.333,0,147.167,28.167,203.5,84.5S1536,464.667,1536,544z"/></svg>