<?xml version="1.0" ?><svg contentScriptType="text/ecmascript" contentStyleType="text/css" enable-background="new 0 0 2048 2048" height="2048px" id="Layer_1" preserveAspectRatio="xMidYMid meet" version="1.1" viewBox="0.0 0 1536.0 2048" width="1536.0px" xml:space="preserve" xmlns="http://www.w3.org/2000/svg" xmlns:xlink="http://www.w3.org/1999/xlink" zoomAndPan="magnify"><path d="M773,1430l350-473c10.667-14.667,18.833-34.333,24.5-59s3.667-53-6-85s-30.167-58.333-61.5-79  c-26.667-17.333-54.333-25.833-83-25.5c-28.667,0.333-53.167,6.167-73.5,17.5S885,752.333,869,771c-24,26.667-56,40-96,40  c-39.333,0-71-13.333-95-40c-16-18.667-34.167-33.667-54.5-45s-44.833-17.167-73.5-17.5s-56.667,8.167-84,25.5  c-30.667,20.667-50.833,47-60.5,79s-11.667,60.333-6,85s13.833,44.333,24.5,59L773,1430z M1536,1024  c0,139.333-34.333,267.833-103,385.5s-161.833,210.833-279.5,279.5S907.333,1792,768,1792s-267.833-34.333-385.5-103  S171.667,1527.167,103,1409.5S0,1163.333,0,1024s34.333-267.833,103-385.5S264.833,427.667,382.5,359S628.667,256,768,256  s267.833,34.333,385.5,103s210.833,161.833,279.5,279.5S1536,884.667,1536,1024z"/></svg>