<?xml version="1.0" ?><svg contentScriptType="text/ecmascript" contentStyleType="text/css" enable-background="new 0 0 2048 2048" height="2048px" id="Layer_1" preserveAspectRatio="xMidYMid meet" version="1.1" viewBox="0.0 0 1536.0 2048" width="1536.0px" xml:space="preserve" xmlns="http://www.w3.org/2000/svg" xmlns:xlink="http://www.w3.org/1999/xlink" zoomAndPan="magnify"><path d="M768,256c139.333,0,267.833,34.333,385.5,103s210.833,161.833,279.5,279.5s103,246.167,103,385.5s-34.333,267.833-103,385.5  s-161.833,210.833-279.5,279.5S907.333,1792,768,1792s-267.833-34.333-385.5-103S171.667,1527.167,103,1409.5S0,1163.333,0,1024  s34.333-267.833,103-385.5S264.833,427.667,382.5,359S628.667,256,768,256z M1152,1079c21.333-12,32-30.333,32-55  c0-24.667-10.667-43-32-55L608,649c-20.667-12.667-42-13-64-1c-21.333,12.667-32,31.333-32,56v640c0,24.667,10.667,43.333,32,56  c10.667,5.333,21.333,8,32,8c11.333,0,22-3,32-9L1152,1079z"/></svg>