<?xml version="1.0" ?><svg contentScriptType="text/ecmascript" contentStyleType="text/css" enable-background="new 0 0 2048 2048" height="2048px" id="Layer_1" preserveAspectRatio="xMidYMid meet" version="1.1" viewBox="0.0 0 1408.0 2048" width="1408.0px" xml:space="preserve" xmlns="http://www.w3.org/2000/svg" xmlns:xlink="http://www.w3.org/1999/xlink" zoomAndPan="magnify"><path d="M1152,928v64c0,9.333-3,17-9,23s-13.667,9-23,9H768v352c0,9.333-3,17-9,23s-13.667,9-23,9h-64c-9.333,0-17-3-23-9  s-9-13.667-9-23v-352H288c-9.333,0-17-3-23-9s-9-13.667-9-23v-64c0-9.333,3-17,9-23s13.667-9,23-9h352V544c0-9.333,3-17,9-23  s13.667-9,23-9h64c9.333,0,17,3,23,9s9,13.667,9,23v352h352c9.333,0,17,3,23,9S1152,918.667,1152,928z M1280,1376V544  c0-44-15.667-81.667-47-113s-69-47-113-47H288c-44,0-81.667,15.667-113,47s-47,69-47,113v832c0,44,15.667,81.667,47,113  s69,47,113,47h832c44,0,81.667-15.667,113-47S1280,1420,1280,1376z M1408,544v832c0,79.333-28.167,147.167-84.5,203.5  S1199.333,1664,1120,1664H288c-79.333,0-147.167-28.167-203.5-84.5S0,1455.333,0,1376V544c0-79.333,28.167-147.167,84.5-203.5  S208.667,256,288,256h832c79.333,0,147.167,28.167,203.5,84.5S1408,464.667,1408,544z"/></svg>