<?xml version="1.0" ?><svg contentScriptType="text/ecmascript" contentStyleType="text/css" enable-background="new 0 0 2048 2048" height="2048px" id="Layer_1" preserveAspectRatio="xMidYMid meet" version="1.1" viewBox="0.0 0 1152.0 2048" width="1152.0px" xml:space="preserve" xmlns="http://www.w3.org/2000/svg" xmlns:xlink="http://www.w3.org/1999/xlink" zoomAndPan="magnify"><path d="M1152,960c0,127.333-31.5,245-94.5,353S909,1506.5,801,1569.5S575.333,1664,448,1664H288c-9.333,0-17-3-23-9s-9-13.667-9-23  v-611l-215,66c-2,0.667-5,1-9,1c-6.667,0-13-2-19-6c-8.667-6.667-13-15.333-13-26V928c0-15.333,7.667-25.667,23-31l233-71v-93  L41,799c-2,0.667-5,1-9,1c-6.667,0-13-2-19-6c-8.667-6.667-13-15.333-13-26V640c0-15.333,7.667-25.667,23-31l233-71V288  c0-9.333,3-17,9-23s13.667-9,23-9h160c9.333,0,17,3,23,9s9,13.667,9,23v181l375-116c10-3.333,19.333-1.667,28,5s13,15.333,13,26v128  c0,15.333-7.667,25.667-23,31L480,664v93l375-116c10-3.333,19.333-1.667,28,5c8.667,6.667,13,15.333,13,26v128  c0,15.333-7.667,25.667-23,31L480,952v487c125.333-8.667,231.333-59,318-151s130-201.333,130-328c0-9.333,3-17,9-23s13.667-9,23-9  h160c9.333,0,17,3,23,9S1152,950.667,1152,960z"/></svg>